<svg width="707" height="598" viewBox="0 0 707 598" fill="none" xmlns="http://www.w3.org/2000/svg">
<path d="M37.4898 26H0V62.9369H37.4898V26Z" fill="url(#paint0_linear_53_11)"/>
<path d="M137.463 103.283H62.483V178.294H137.463V103.283Z" fill="url(#paint1_linear_53_11)"/>
<path d="M55.6667 216.935H13.0646L13.6327 259.555H55.6667V216.935Z" fill="url(#paint2_linear_53_11)"/>
<path d="M207.33 60.6638V167.497H247.092C277.566 169.817 292.737 175.829 316.391 194.205L394.779 275.466C407.367 291.754 412.878 302.988 416.932 330.587V359H501V275.466H483.959C452.901 273.902 437.119 264.97 410.116 243.643L341.384 173.179C324.604 154.389 317.603 140.169 313.551 102.147V60.6638H207.33Z" fill="url(#paint3_linear_53_11)"/>
<path d="M260.971 597V271.134C332.128 268.832 354.826 284.486 367.829 342.79V501.458L471.845 498.615C645.773 475.298 633.268 229.618 471.845 210.851C456.498 210.851 389.968 193.852 392.27 140.332V113.603L487.76 116.447C808.902 169.905 746.947 575.389 487.76 594.725L260.971 597Z" fill="url(#paint4_linear_53_11)"/>
<path d="M220.047 372.363V247.248H95V372.363H220.047Z" fill="url(#paint5_linear_53_11)"/>
<path d="M173.438 1H113.757V60.145H173.438V1Z" fill="url(#paint6_linear_53_11)"/>
<path d="M429.215 9.53053H377.491V60.7137H429.215V9.53053Z" fill="url(#paint7_linear_53_11)"/>
<path d="M260.971 597V271.134C332.128 268.832 354.826 284.486 367.829 342.79V501.458L471.845 498.615C645.773 475.298 633.268 229.618 471.845 210.851C456.498 210.851 389.968 193.852 392.27 140.332V113.603L487.76 116.447C808.902 169.905 746.947 575.389 487.76 594.725L260.971 597Z" stroke="url(#paint8_linear_53_11)"/>
<path d="M220.047 372.363V247.248H95V372.363H220.047Z" stroke="url(#paint9_linear_53_11)"/>
<path d="M173.438 1H113.757V60.145H173.438V1Z" stroke="url(#paint10_linear_53_11)"/>
<path d="M429.215 9.53053H377.491V60.7137H429.215V9.53053Z" stroke="url(#paint11_linear_53_11)"/>
<defs>
<linearGradient id="paint0_linear_53_11" x1="250.5" y1="26" x2="250.5" y2="359" gradientUnits="userSpaceOnUse">
<stop stop-color="#72109A"/>
<stop offset="1" stop-color="#59F2FA"/>
</linearGradient>
<linearGradient id="paint1_linear_53_11" x1="250.5" y1="26" x2="250.5" y2="359" gradientUnits="userSpaceOnUse">
<stop stop-color="#72109A"/>
<stop offset="1" stop-color="#59F2FA"/>
</linearGradient>
<linearGradient id="paint2_linear_53_11" x1="250.5" y1="26" x2="250.5" y2="359" gradientUnits="userSpaceOnUse">
<stop stop-color="#72109A"/>
<stop offset="1" stop-color="#59F2FA"/>
</linearGradient>
<linearGradient id="paint3_linear_53_11" x1="250.5" y1="26" x2="250.5" y2="359" gradientUnits="userSpaceOnUse">
<stop stop-color="#72109A"/>
<stop offset="1" stop-color="#59F2FA"/>
</linearGradient>
<linearGradient id="paint4_linear_53_11" x1="341.683" y1="55.0267" x2="400.563" y2="596.993" gradientUnits="userSpaceOnUse">
<stop stop-color="#72109A"/>
<stop offset="0.893752" stop-color="#9167FC"/>
</linearGradient>
<linearGradient id="paint5_linear_53_11" x1="341.683" y1="55.0267" x2="400.563" y2="596.993" gradientUnits="userSpaceOnUse">
<stop stop-color="#72109A"/>
<stop offset="0.893752" stop-color="#9167FC"/>
</linearGradient>
<linearGradient id="paint6_linear_53_11" x1="341.683" y1="55.0267" x2="400.563" y2="596.993" gradientUnits="userSpaceOnUse">
<stop stop-color="#72109A"/>
<stop offset="0.893752" stop-color="#9167FC"/>
</linearGradient>
<linearGradient id="paint7_linear_53_11" x1="341.683" y1="55.0267" x2="400.563" y2="596.993" gradientUnits="userSpaceOnUse">
<stop stop-color="#72109A"/>
<stop offset="0.893752" stop-color="#9167FC"/>
</linearGradient>
<linearGradient id="paint8_linear_53_11" x1="400.5" y1="1" x2="400.5" y2="597" gradientUnits="userSpaceOnUse">
<stop stop-color="#9167FC"/>
<stop offset="1" stop-color="white" stop-opacity="0"/>
</linearGradient>
<linearGradient id="paint9_linear_53_11" x1="400.5" y1="1" x2="400.5" y2="597" gradientUnits="userSpaceOnUse">
<stop stop-color="#9167FC"/>
<stop offset="1" stop-color="white" stop-opacity="0"/>
</linearGradient>
<linearGradient id="paint10_linear_53_11" x1="400.5" y1="1" x2="400.5" y2="597" gradientUnits="userSpaceOnUse">
<stop stop-color="#9167FC"/>
<stop offset="1" stop-color="white" stop-opacity="0"/>
</linearGradient>
<linearGradient id="paint11_linear_53_11" x1="400.5" y1="1" x2="400.5" y2="597" gradientUnits="userSpaceOnUse">
<stop stop-color="#9167FC"/>
<stop offset="1" stop-color="white" stop-opacity="0"/>
</linearGradient>
</defs>
</svg>
