<?xml version="1.0" standalone="no"?>
<!DOCTYPE svg PUBLIC "-//W3C//DTD SVG 20010904//EN"
 "http://www.w3.org/TR/2001/REC-SVG-20010904/DTD/svg10.dtd">
<svg version="1.0" xmlns="http://www.w3.org/2000/svg"
 width="5157.000000pt" height="3438.000000pt" viewBox="0 0 5157.000000 3438.000000"
 preserveAspectRatio="xMidYMid meet">

<g transform="translate(0.000000,3438.000000) scale(0.100000,-0.100000)"
fill="#000000" stroke="none">
<path d="M32335 30383 c12 -67 46 -132 90 -172 47 -43 93 -57 153 -46 67 12
172 46 172 55 0 15 -387 200 -417 200 -3 0 -2 -17 2 -37z"/>
<path d="M38953 29963 c-180 -144 -329 -287 -476 -453 -253 -288 -474 -619
-664 -994 -70 -139 -83 -172 -75 -190 15 -31 162 -226 270 -356 128 -154 427
-452 582 -580 441 -366 1196 -878 1806 -1227 524 -300 1172 -615 1261 -612 15
0 43 6 60 12 81 30 414 347 571 545 199 250 416 634 429 759 11 104 -18 155
-233 409 -397 468 -970 1039 -1494 1489 -266 228 -628 516 -820 652 -219 156
-498 317 -738 427 -130 59 -394 166 -411 166 -6 0 -36 -21 -68 -47z m747 -803
c258 -73 455 -277 526 -545 27 -103 25 -312 -5 -420 -151 -563 -799 -843
-1258 -544 -101 66 -206 185 -259 294 -244 503 76 1118 641 1231 95 18 258 11
355 -16z m1175 -1242 c117 -30 257 -142 308 -248 109 -225 62 -477 -122 -660
-85 -85 -165 -130 -277 -156 -126 -30 -280 -4 -389 64 -101 64 -189 192 -215
314 -19 87 -8 238 23 320 107 279 395 436 672 366z"/>
<path d="M39345 29045 c-246 -53 -445 -231 -533 -477 -23 -65 -26 -88 -26
-213 -1 -122 2 -149 23 -214 116 -354 518 -516 867 -350 182 86 322 253 385
459 18 58 23 99 23 180 0 190 -51 316 -179 447 -63 64 -98 90 -156 118 -129
61 -272 79 -404 50z m-145 -219 c0 -8 -29 -42 -64 -76 -104 -99 -156 -221
-156 -361 0 -82 24 -179 60 -237 25 -40 26 -62 3 -62 -11 0 -29 19 -45 48 -84
151 -83 351 5 516 56 105 197 228 197 172z"/>
<path d="M40589 27827 c-127 -46 -217 -129 -277 -255 -36 -75 -37 -80 -37
-192 0 -110 1 -118 33 -182 42 -86 109 -153 192 -192 60 -29 73 -31 176 -31
108 0 112 1 188 38 185 92 297 297 267 486 -23 140 -103 251 -226 312 -59 29
-80 34 -159 36 -76 3 -102 0 -157 -20z m-36 -133 c-3 -9 -25 -35 -48 -58 -67
-67 -90 -126 -90 -226 0 -68 5 -94 23 -131 12 -25 22 -53 22 -63 0 -33 -34
-12 -59 39 -23 44 -26 61 -26 155 0 124 19 173 95 252 46 48 97 67 83 32z"/>
<path d="M33120 29700 l0 -300 266 0 c250 0 266 1 259 18 -29 69 -45 127 -45
160 0 32 -7 45 -52 88 -93 90 -347 291 -409 324 -19 10 -19 3 -19 -290z"/>
<path d="M33871 29271 c-43 -61 -47 -61 -416 -61 l-335 0 0 -280 c0 -154 2
-280 5 -280 2 0 19 9 37 20 90 56 219 73 337 45 280 -66 465 -348 396 -604
-62 -236 -290 -405 -499 -371 -70 11 -182 47 -244 79 l-42 21 0 -334 0 -335
328 -3 c324 -3 327 -3 360 -26 38 -27 72 -89 72 -129 0 -16 -15 -72 -34 -126
-43 -123 -53 -201 -33 -249 13 -30 25 -40 74 -58 137 -52 317 -33 395 41 l41
39 -6 65 c-4 51 -15 86 -48 153 -33 66 -43 98 -43 133 1 58 30 108 82 137 35
19 55 22 156 22 l116 0 6 27 c7 28 -2 425 -12 510 l-6 51 -44 7 c-68 10 -158
61 -224 126 -123 124 -167 280 -120 425 27 87 81 190 125 241 l34 40 -53 109
c-87 179 -247 433 -359 568 l-24 29 -22 -32z"/>
<path d="M31127 29223 c-4 -3 -7 -147 -7 -320 0 -241 -3 -321 -14 -346 -29
-71 -129 -127 -199 -111 -18 3 -65 25 -106 47 -64 35 -84 41 -151 45 -90 5
-142 -13 -208 -73 -82 -74 -103 -176 -62 -306 32 -103 97 -166 191 -183 50 -9
181 16 273 53 42 17 94 31 114 31 53 -1 115 -32 148 -76 l29 -37 3 -379 3
-378 258 0 259 0 -24 59 c-89 219 24 540 215 612 231 87 463 10 568 -187 68
-128 87 -309 44 -431 -11 -34 -21 -65 -21 -68 0 -3 108 -5 240 -5 l240 0 0
360 c0 388 0 390 54 448 53 59 151 70 236 27 76 -38 194 -75 242 -75 115 1
229 110 259 250 9 44 8 61 -11 122 -19 62 -30 80 -80 129 -70 69 -145 101
-235 101 -64 1 -95 -10 -164 -57 -38 -25 -54 -30 -106 -30 -50 0 -69 5 -103
28 -80 52 -82 63 -82 422 l0 315 -235 0 c-129 0 -235 -2 -235 -4 0 -2 9 -23
20 -48 31 -71 43 -174 30 -265 -21 -150 -98 -266 -217 -325 -197 -97 -504 2
-633 202 -82 129 -91 284 -25 443 7 16 -9 17 -247 17 -140 0 -258 -3 -261 -7z"/>
<path d="M29982 27699 c-65 -37 -129 -100 -148 -145 -8 -18 -14 -58 -14 -88 0
-46 8 -70 45 -142 35 -67 45 -96 45 -133 0 -57 -28 -105 -80 -135 -33 -20 -53
-21 -387 -24 l-353 -3 0 -340 c0 -321 -1 -342 -20 -379 -25 -48 -80 -87 -137
-96 -37 -6 -54 -1 -120 31 -43 21 -99 40 -124 43 -111 11 -233 -45 -278 -127
-60 -110 3 -343 112 -412 47 -29 94 -20 222 45 127 64 156 72 212 57 53 -14
89 -44 113 -92 19 -36 20 -60 20 -398 l0 -360 358 -3 359 -3 48 -30 c59 -36
95 -98 95 -161 0 -31 -17 -83 -54 -171 -90 -209 -86 -267 20 -319 47 -23 70
-28 133 -28 119 1 205 49 232 132 17 53 5 191 -27 297 -36 120 -38 134 -24
186 15 56 80 123 135 138 25 7 144 11 313 11 l272 0 0 282 c0 267 1 284 21
326 28 57 84 94 153 100 42 3 66 -2 122 -26 134 -57 235 -67 298 -29 72 44
130 167 143 304 7 77 -16 131 -86 196 -91 86 -192 87 -353 6 -103 -52 -211
-30 -266 54 l-27 40 -3 343 -3 343 -302 3 c-295 3 -303 4 -339 26 -42 26 -78
92 -78 143 0 19 9 52 19 74 80 177 32 408 -99 475 -56 29 -105 25 -168 -11z"/>
<path d="M31940 27688 c-47 -13 -72 -38 -105 -106 -24 -47 -29 -73 -33 -147
-3 -89 -3 -91 37 -169 23 -44 41 -93 41 -108 0 -69 -59 -143 -126 -159 -22 -4
-168 -9 -326 -9 l-288 0 0 -305 c0 -177 4 -305 9 -305 5 0 37 13 72 30 84 39
157 53 254 48 137 -7 251 -75 334 -199 56 -84 85 -182 76 -257 -12 -103 -35
-186 -75 -268 -47 -97 -110 -170 -182 -209 -51 -29 -58 -30 -178 -30 -111 1
-133 4 -200 28 -41 15 -83 30 -93 34 -16 5 -17 -10 -15 -253 l3 -259 275 0
c178 0 274 4 273 10 -1 6 -14 39 -29 75 -86 207 25 396 294 498 59 23 82 26
198 27 l132 0 -34 37 c-154 171 -152 501 6 672 89 97 200 142 329 134 84 -5
132 -25 259 -108 l72 -48 0 319 0 319 -294 0 c-288 0 -294 0 -327 23 -85 57
-100 135 -47 240 79 156 25 378 -106 438 -45 21 -147 24 -206 7z"/>
<path d="M27350 27008 c0 -26 56 -353 69 -408 5 -19 12 -47 15 -62 5 -24 12
-28 39 -28 122 -1 283 -94 356 -208 49 -77 64 -154 51 -268 -19 -176 -52 -285
-111 -369 -42 -61 -46 -72 -26 -98 11 -15 17 -13 67 18 99 64 152 79 275 79
101 1 115 -1 172 -28 72 -33 147 -107 181 -176 60 -125 68 -281 20 -397 l-26
-63 234 0 234 0 0 326 c0 179 -3 324 -7 322 -5 -2 -35 -17 -68 -34 -208 -108
-353 -99 -478 29 -95 97 -166 303 -154 446 15 180 130 316 312 370 108 32 254
27 338 -11 l57 -27 0 305 0 304 -224 0 -224 0 27 -62 c23 -56 26 -76 26 -178
0 -109 -2 -119 -32 -183 -81 -171 -282 -272 -474 -239 -91 16 -157 44 -227 99
-158 123 -195 301 -104 507 12 27 22 50 22 52 0 2 -76 4 -170 4 -170 0 -170 0
-170 -22z"/>
<path d="M33110 26628 l0 -351 -26 -45 c-19 -33 -39 -50 -77 -68 -84 -39 -123
-31 -246 50 -117 77 -169 99 -220 92 -105 -14 -180 -94 -202 -215 -31 -176 57
-327 210 -360 65 -14 177 0 274 34 85 29 123 31 174 10 48 -20 71 -41 94 -87
17 -34 19 -63 19 -338 l0 -300 255 0 c140 0 255 2 255 3 0 2 -10 30 -22 63
-18 49 -22 80 -22 189 0 112 3 138 22 187 30 75 99 150 170 185 51 25 67 28
152 27 79 -1 109 -6 177 -31 l82 -30 25 56 c22 48 23 58 11 80 -56 109 -72
288 -36 394 37 105 136 217 238 267 49 24 51 27 62 80 6 30 14 66 17 80 3 14
-6 2 -19 -27 -32 -66 -93 -124 -168 -162 -86 -43 -154 -54 -294 -48 -163 6
-258 38 -330 111 -69 69 -90 134 -82 255 4 71 25 161 54 237 4 12 -40 14 -271
14 l-276 0 0 -352z"/>
<path d="M34463 26908 c25 -59 32 -92 36 -173 l6 -100 23 150 c13 83 25 160
28 173 4 21 1 22 -60 22 l-64 0 31 -72z"/>
<path d="M32825 25563 c-128 -38 -289 -42 -378 -8 -14 6 -12 -3 12 -48 54
-102 51 -231 -8 -383 l-29 -74 249 0 249 0 0 270 c0 149 -3 269 -7 269 -5 -1
-44 -12 -88 -26z"/>
<path d="M33838 25494 c-16 -8 -38 -34 -50 -57 -32 -60 -31 -197 2 -281 24
-63 29 -112 16 -161 -4 -16 -6 -28 -3 -25 16 17 165 265 222 369 75 137 75
130 -9 156 -63 19 -143 19 -178 -1z"/>
<path d="M28015 25467 c-56 -19 -117 -51 -153 -82 l-31 -26 47 -97 c129 -269
307 -577 474 -822 54 -80 104 -152 111 -161 11 -14 21 -15 70 -7 83 15 181 -5
283 -56 l84 -42 0 313 0 313 -242 0 c-139 0 -259 5 -281 11 -44 12 -102 59
-124 103 -26 50 -21 132 13 196 58 111 26 275 -64 335 -48 32 -128 41 -187 22z"/>
<path d="M33755 24910 c-4 -6 -24 -19 -45 -30 -36 -19 -60 -20 -320 -20 l-280
0 0 -375 0 -375 69 72 c193 205 391 449 570 706 12 17 20 32 17 32 -3 0 -8 -5
-11 -10z"/>
<path d="M30420 24842 c0 -5 8 -33 19 -63 31 -91 44 -188 40 -304 -4 -98 -7
-117 -34 -169 -120 -237 -504 -291 -714 -100 -72 64 -86 102 -85 224 0 113 19
180 85 313 l29 57 -335 0 -335 0 0 -352 0 -351 -25 -44 c-32 -54 -90 -85 -157
-85 -38 0 -63 8 -125 45 -75 43 -150 74 -159 65 -2 -3 19 -36 48 -73 70 -93
168 -250 220 -351 24 -46 49 -84 56 -84 33 0 93 -43 117 -83 23 -41 25 -53 25
-172 0 -125 1 -131 51 -294 28 -91 57 -180 64 -198 l14 -33 260 0 259 0 -36
98 c-32 88 -36 107 -36 202 -1 90 2 111 21 146 42 78 145 141 276 168 102 21
188 20 282 -4 128 -33 203 -89 247 -185 19 -41 23 -66 22 -140 -1 -88 -15
-149 -58 -247 l-16 -38 270 0 270 0 0 338 c0 381 0 381 77 436 64 45 112 45
234 1 91 -33 116 -38 196 -39 77 -1 96 2 120 20 112 81 120 400 11 501 -72 67
-200 58 -378 -26 -36 -17 -81 -31 -100 -31 -43 0 -108 29 -137 61 -51 56 -53
73 -53 449 l0 350 -265 0 c-146 0 -265 -4 -265 -8z"/>
<path d="M32477 24090 c-83 -53 -141 -174 -139 -293 1 -73 42 -166 102 -231
73 -80 200 -124 215 -76 9 29 215 335 274 408 28 34 51 65 51 68 0 3 -9 2 -21
-1 -45 -15 -106 5 -174 55 -142 105 -224 123 -308 70z"/>
<path d="M30021 23219 c-73 -12 -136 -42 -157 -74 -15 -23 -16 -34 -5 -92 7
-37 28 -106 47 -154 18 -49 34 -105 34 -124 0 -40 -21 -87 -54 -123 -45 -50
-58 -52 -331 -52 -197 0 -255 -3 -255 -12 0 -7 33 -78 73 -158 196 -392 458
-693 747 -857 41 -24 77 -43 81 -43 3 0 9 44 11 98 9 166 71 281 201 372 156
110 349 121 515 29 l52 -29 -2 297 -3 298 -310 5 c-209 3 -317 9 -330 17 -31
18 -73 65 -84 96 -19 50 -13 108 20 177 52 109 66 219 35 269 -18 29 -166 76
-221 70 -5 -1 -34 -5 -64 -10z"/>
<path d="M31168 22266 l-3 -334 -30 -43 c-39 -55 -95 -84 -160 -83 -40 0 -67
9 -130 44 -75 42 -85 45 -155 44 -85 0 -133 -19 -200 -80 -59 -53 -83 -112
-84 -203 -1 -42 5 -97 13 -123 11 -39 19 -49 45 -57 59 -19 191 -40 296 -46
87 -6 112 -4 145 10 31 14 55 16 115 11 161 -14 404 66 608 201 74 49 272 225
272 242 0 3 -32 14 -72 23 -92 23 -167 72 -212 141 -47 70 -60 129 -53 235 6
99 30 175 84 271 21 36 40 69 41 74 2 4 -114 7 -257 7 l-260 0 -3 -334z"/>
<path d="M36185 22049 c-82 -12 -193 -69 -265 -136 -190 -176 -294 -507 -206
-656 60 -103 205 -193 381 -237 68 -18 133 -25 266 -29 l176 -7 74 -36 c123
-61 289 -247 289 -324 0 -18 -73 -241 -162 -495 -154 -437 -165 -464 -206
-511 -53 -58 -112 -95 -170 -104 -68 -11 -121 16 -241 124 -204 183 -328 262
-426 270 -66 5 -108 -15 -134 -66 -49 -98 -181 -744 -181 -888 0 -54 25 -105
61 -124 26 -14 250 -53 432 -75 151 -18 520 -31 590 -21 35 5 56 16 78 39 19
20 82 142 163 317 73 157 167 353 208 435 42 83 88 190 103 239 82 272 189
373 356 337 72 -16 117 -39 160 -84 48 -49 72 -44 143 30 78 80 110 150 111
243 0 92 -27 157 -102 243 -81 93 -80 137 8 236 78 87 104 149 104 246 0 106
-30 171 -122 266 -78 81 -154 122 -255 139 -73 11 -175 1 -250 -25 -51 -18
-101 -19 -131 -4 -12 6 -40 31 -63 55 -37 40 -45 44 -90 44 -95 0 -143 51
-150 157 -9 128 -46 215 -120 283 -101 93 -277 142 -429 119z"/>
<path d="M21756 21989 c-176 -42 -322 -193 -334 -347 -2 -31 -9 -62 -14 -69
-7 -8 -40 -10 -116 -6 -160 8 -265 -24 -357 -108 -94 -87 -165 -247 -165 -374
0 -89 12 -131 55 -194 19 -28 35 -57 35 -66 0 -9 -22 -25 -52 -39 -100 -45
-148 -123 -148 -240 0 -90 16 -135 64 -182 55 -52 129 -74 253 -74 l91 0 32
-37 c100 -116 309 -277 451 -349 78 -39 207 -77 246 -72 50 6 51 27 7 160
l-40 122 -66 17 c-160 40 -248 120 -248 224 0 49 25 93 56 101 43 11 118 -3
190 -36 71 -32 107 -33 118 -4 4 10 -13 50 -43 103 -47 83 -92 187 -106 244
-15 59 34 82 338 156 434 107 661 211 778 357 61 76 73 116 72 249 0 102 -4
132 -27 202 -60 185 -180 291 -303 268 -68 -13 -137 -56 -214 -136 -42 -44
-83 -79 -92 -79 -8 0 -32 21 -53 46 -106 131 -269 195 -408 163z"/>
<path d="M32005 21693 c-70 -78 -186 -179 -275 -238 -448 -298 -1090 -336
-1596 -94 -98 46 -297 172 -324 203 -7 9 -19 16 -27 16 -30 0 -177 -85 -229
-132 -68 -63 -84 -108 -58 -163 18 -38 70 -83 124 -105 36 -15 38 -25 8 -41
-52 -27 -112 -85 -130 -126 -16 -36 -17 -50 -8 -77 13 -41 62 -88 124 -119
l49 -25 -33 -17 c-57 -30 -129 -104 -140 -146 -19 -69 29 -137 128 -181 l43
-19 -61 -41 c-103 -69 -140 -153 -96 -221 34 -50 159 -113 292 -147 l41 -10 6
-138 c3 -103 10 -154 27 -207 83 -262 343 -458 713 -537 82 -17 137 -22 277
-22 182 -1 226 5 378 50 316 94 581 319 678 574 28 72 29 81 28 246 l-1 171
108 42 c114 44 241 120 277 166 12 15 27 44 33 65 20 65 -26 129 -125 176 -42
21 -44 27 -13 41 12 6 46 32 74 57 110 99 92 183 -57 265 -30 17 -50 31 -43
31 6 0 38 20 71 45 79 59 110 118 93 175 -13 43 -53 82 -118 113 -24 12 -43
23 -43 26 1 4 24 22 52 41 76 52 113 102 113 153 0 75 -67 132 -216 185 l-86
30 -58 -65z m121 -374 c11 -19 -17 -36 -131 -77 -537 -196 -1464 -275 -2055
-176 -100 17 -127 29 -111 48 8 9 35 8 113 -5 242 -41 666 -54 978 -29 429 33
877 122 1105 219 79 33 91 36 101 20z m-2 -355 c65 -25 -181 -121 -479 -188
-329 -74 -619 -107 -1008 -113 -330 -6 -509 4 -702 38 -186 33 -257 58 -236
83 8 9 37 5 119 -15 200 -50 351 -64 717 -64 395 0 654 23 975 86 218 43 491
122 570 165 30 16 25 15 44 8z m9 -370 c23 -24 -60 -63 -274 -127 -225 -69
-539 -125 -874 -159 -194 -19 -736 -16 -901 5 -179 23 -334 57 -341 75 -10 25
16 29 85 11 543 -136 1659 -50 2204 170 76 31 91 35 101 25z m-278 -479 c0
-15 -17 -23 -90 -42 -529 -137 -1254 -186 -1743 -118 -132 19 -144 22 -140 43
4 19 -1 19 160 -4 155 -22 629 -30 840 -15 315 23 694 83 888 140 75 22 85 21
85 -4z"/>
<path d="M24490 19018 c-126 -37 -427 -106 -570 -132 -346 -62 -543 -76 -1035
-76 -216 0 -426 -3 -467 -6 -73 -6 -75 -8 -94 -41 -28 -52 -84 -95 -197 -151
-203 -100 -376 -139 -581 -129 -141 6 -275 38 -387 89 -75 35 -94 50 -100 79
-4 15 -32 12 -262 -27 -256 -43 -577 -105 -776 -149 -115 -26 -128 -33 -314
-179 -252 -195 -592 -519 -778 -741 -312 -371 -526 -753 -619 -1105 -16 -63
-28 -115 -27 -116 1 -1 62 -9 135 -18 339 -42 686 -140 976 -275 49 -23 90
-40 91 -39 1 2 8 25 14 53 7 27 27 79 45 116 34 69 122 205 139 216 7 4 8 -47
4 -153 -4 -87 -10 -303 -14 -479 l-6 -321 62 -47 c78 -58 167 -101 268 -129
69 -19 103 -22 293 -22 196 0 227 2 345 27 240 50 497 134 742 241 l98 42 7
65 c12 123 87 276 165 335 88 67 187 79 365 44 238 -46 598 -154 598 -180 0
-32 -46 -105 -80 -128 -29 -20 -45 -23 -98 -20 l-63 3 33 -27 c18 -15 48 -38
65 -50 42 -29 42 -57 1 -104 -32 -36 -32 -36 -100 -32 l-67 5 59 -66 c53 -59
58 -68 46 -86 -40 -61 -125 -81 -194 -46 -76 39 -90 33 -210 -82 -59 -57 -127
-115 -152 -130 -62 -36 -157 -59 -232 -55 -61 3 -63 4 -66 31 -2 16 -6 27 -10
25 -4 -2 -55 -29 -113 -61 -579 -313 -1154 -501 -1611 -525 l-133 -7 3 -100
c9 -306 41 -837 73 -1195 23 -255 23 -259 -15 -555 -46 -360 -82 -770 -106
-1219 -5 -104 -8 -191 -6 -194 3 -2 103 19 224 47 268 62 314 64 403 19 35
-18 178 -105 317 -193 l254 -160 -1134 -8 c-1044 -8 -1135 -10 -1163 -26 -73
-42 -98 -143 -52 -212 l23 -34 1847 -3 1847 -2 0 191 0 191 249 536 c966 2081
1011 2181 1011 2217 0 42 -18 81 -54 114 -20 19 -40 26 -84 29 -109 7 -84 48
-449 -738 -434 -937 -574 -1237 -628 -1350 l-45 -95 5 385 c3 305 11 463 35
760 33 415 28 383 162 924 l92 368 479 -3 479 -4 35 40 c50 58 214 304 330
496 288 475 623 1090 1077 1976 358 698 371 726 360 764 -5 18 -21 41 -36 52
-25 19 -47 21 -255 26 l-228 6 90 39 c101 43 345 164 345 170 0 3 -30 44 -67
93 -224 297 -400 673 -510 1093 -19 74 -36 136 -37 136 0 1 -30 -7 -66 -18z
m180 -1737 c0 -25 -32 -29 -355 -36 -598 -13 -1238 -56 -1560 -105 -153 -24
-220 -52 -258 -108 -15 -22 -50 -120 -87 -247 -96 -328 -120 -405 -128 -405
-34 1 -30 23 59 325 99 337 117 375 192 419 131 77 774 133 1927 169 47 2 113
4 148 5 55 2 62 0 62 -17z m-1001 -507 c143 -42 211 -213 139 -351 -83 -162
-321 -175 -422 -23 -108 164 4 383 200 389 17 1 54 -6 83 -15z"/>
<path d="M37490 18744 c0 -5 24 -77 54 -159 29 -83 56 -160 60 -171 6 -19 -6
-30 -86 -82 -307 -198 -602 -280 -798 -223 l-35 11 -64 204 c-35 112 -67 209
-71 216 -17 28 -228 -109 -322 -209 -117 -124 -99 -52 -358 -1371 -127 -646
-276 -1401 -331 -1678 -54 -277 -99 -510 -99 -517 0 -13 793 -987 808 -993 4
-1 74 309 157 689 96 444 152 684 157 672 4 -10 181 -691 394 -1513 216 -838
394 -1509 405 -1526 22 -37 68 -70 79 -57 4 4 46 361 94 793 48 432 90 804 93
826 l5 42 -57 33 c-32 19 -62 41 -68 50 -7 11 75 411 297 1450 168 789 306
1442 306 1451 0 9 -27 67 -60 129 -34 62 -59 118 -56 126 13 33 42 1 106 -116
l67 -125 -13 -60 c-7 -34 -144 -673 -304 -1421 -159 -748 -293 -1372 -296
-1386 -5 -24 1 -30 48 -57 76 -44 217 -89 354 -113 95 -17 163 -22 336 -23
119 0 219 2 223 6 4 4 25 87 46 185 177 828 661 3083 666 3101 7 31 43 30 43
-2 0 -17 -668 -3156 -705 -3313 -4 -18 -12 -23 -39 -23 -39 0 -31 26 -110
-340 -43 -196 -125 -566 -350 -1590 l-103 -465 -1922 -3 -1922 -2 3 -43 3 -42
1938 -3 c1539 -2 1937 -5 1937 -15 2 -80 0 -360 -2 -362 -9 -9 -752 -14 -2220
-15 l-1658 0 0 -40 0 -39 2138 -3 c1708 -3 2145 -6 2175 -16 51 -18 113 -75
120 -111 6 -28 -20 -129 -108 -416 -27 -91 -53 -121 -130 -157 -49 -23 -56
-23 -524 -28 l-473 -5 -483 -1473 -483 -1474 98 -246 c53 -136 168 -428 255
-649 87 -222 161 -403 164 -403 4 0 69 129 146 288 76 158 206 424 287 591 81
167 148 305 148 307 0 1 69 143 153 316 84 172 483 996 887 1830 404 834 738
1514 741 1510 8 -9 57 -412 103 -847 216 -2035 277 -3905 171 -5215 -8 -96
-11 -178 -7 -181 4 -4 167 -18 362 -33 195 -14 378 -29 406 -32 l52 -5 10 58
c6 32 31 170 56 307 26 137 75 423 111 635 536 3216 668 5843 366 7277 l-27
130 23 18 c67 50 68 89 13 331 -299 1308 -801 2720 -1419 3990 l-126 260 12
80 c78 525 -184 951 -752 1225 -199 95 -504 190 -755 235 -110 19 -340 32
-340 19z m-1200 -2176 c12 -29 270 -1222 270 -1248 0 -23 -18 -36 -32 -22 -13
13 -287 1262 -280 1280 7 20 32 14 42 -10z"/>
<path d="M30055 18124 c-16 -2 -72 -9 -124 -15 -104 -12 -134 -23 -267 -97
l-91 -50 -159 5 c-180 7 -252 -2 -389 -48 -134 -44 -234 -106 -341 -213 -144
-145 -228 -303 -270 -507 -22 -108 -15 -241 16 -322 62 -162 220 -284 444
-341 32 -9 63 -13 67 -10 5 3 9 60 9 127 l0 122 56 63 c145 162 323 234 493
198 179 -38 367 -169 521 -365 35 -45 65 -81 66 -81 2 0 15 5 29 12 23 10 25
16 25 77 0 63 27 188 49 230 18 33 66 61 125 73 108 21 184 -34 220 -160 22
-79 38 -261 41 -452 l2 -155 279 -545 c266 -519 281 -545 309 -548 33 -4 69
-28 240 -156 460 -344 909 -767 1300 -1221 133 -155 322 -394 391 -494 48 -71
49 -72 86 -66 64 9 199 56 278 95 104 52 174 110 221 182 45 71 56 103 70 216
27 212 -52 406 -209 514 -35 24 -43 35 -40 56 4 31 24 42 133 72 138 36 239
93 331 185 133 133 178 253 177 470 -1 438 -216 706 -638 796 -109 24 -366 35
-480 21 -64 -8 -84 -7 -102 4 -31 19 -29 55 3 85 35 33 109 145 134 204 l20
48 -47 -7 c-279 -38 -323 -41 -703 -41 -249 0 -425 5 -500 13 -63 7 -115 14
-117 15 -1 2 13 53 31 115 49 162 95 232 189 286 23 14 175 78 337 142 234 94
289 120 270 125 -41 11 -209 2 -308 -17 -121 -23 -125 -21 -134 83 -24 294
-370 736 -766 983 -220 136 -473 230 -742 276 -90 15 -464 28 -535 18z"/>
<path d="M17096 17725 c-16 -37 -36 -44 -56 -20 -20 25 -48 18 -66 -17 -24
-47 -111 -135 -178 -180 -81 -56 -217 -118 -376 -173 -499 -171 -760 -417
-760 -714 0 -89 -9 -104 -51 -89 -51 18 -96 1 -154 -55 -45 -44 -55 -60 -64
-107 -30 -148 75 -349 257 -491 43 -33 91 -70 107 -83 l30 -24 -27 -29 c-98
-103 -30 -188 209 -259 69 -21 111 -27 193 -28 114 -1 155 6 163 28 3 8 1 43
-5 76 -12 60 -13 63 -72 103 -174 117 -269 280 -221 381 38 80 127 104 204 53
41 -27 96 -95 144 -178 24 -41 30 -45 57 -41 l30 4 -36 62 c-138 240 -161 415
-60 474 18 11 115 56 217 101 535 239 771 397 851 567 28 60 33 82 36 167 4
84 1 108 -22 180 -39 126 -126 237 -231 298 -70 40 -101 39 -119 -6z"/>
<path d="M24419 14070 c-60 -10 -96 -30 -141 -77 -85 -88 -92 -174 -25 -344
397 -1013 1124 -2844 1142 -2875 29 -50 105 -121 150 -140 30 -12 480 -14
3170 -14 l3135 0 21 21 c66 66 62 188 -9 252 -52 47 -30 46 -1217 47 l-1121 0
-28 58 c-16 31 -307 649 -648 1372 -341 723 -636 1347 -656 1385 -46 87 -154
198 -237 242 -33 17 -91 42 -130 55 l-70 23 -1645 1 c-905 1 -1666 -2 -1691
-6z m2088 -1320 c142 -82 241 -298 230 -502 -8 -160 -74 -248 -186 -248 -73 0
-128 28 -193 99 -97 104 -150 250 -150 406 0 179 67 274 192 275 43 0 66 -7
107 -30z"/>
<path d="M15909 13331 c-42 -42 -38 -79 22 -218 97 -223 209 -428 342 -628
141 -212 162 -234 222 -235 39 0 74 24 91 65 19 45 10 67 -71 180 -140 196
-274 432 -380 670 -37 83 -78 160 -92 173 -36 33 -96 30 -134 -7z"/>
<path d="M19616 9718 c11 -426 25 -831 39 -1098 16 -293 52 -848 60 -910 2
-19 7 -75 10 -125 6 -84 19 -239 30 -345 2 -25 9 -97 15 -160 6 -63 13 -133
15 -155 2 -22 11 -107 20 -190 18 -168 43 -395 52 -464 4 -30 2 -42 -4 -36 -5
6 -238 402 -518 880 -279 479 -513 877 -519 887 -9 13 -37 -48 -145 -325 -74
-187 -136 -351 -139 -363 -4 -21 682 -1782 712 -1829 26 -39 334 -364 618
-651 l289 -291 -20 -45 c-67 -158 -176 -575 -168 -646 5 -50 30 -89 73 -114
30 -17 233 -40 479 -54 105 -6 123 -9 145 -29 58 -53 133 -72 202 -51 44 13
292 207 1092 855 l179 145 -6 -50 c-4 -27 -18 -130 -32 -229 -13 -99 -28 -223
-31 -275 -6 -85 -4 -101 15 -145 28 -64 72 -108 130 -134 39 -17 92 -22 371
-35 668 -33 775 -37 1211 -43 l447 -6 26 26 c41 41 30 102 -26 155 -17 16
-1436 695 -1566 749 -11 5 -13 -3 -10 -33 3 -39 2 -39 -57 -69 -56 -28 -67
-30 -175 -30 -92 0 -130 5 -187 23 -40 12 -74 26 -76 30 -3 4 -7 23 -8 43 -4
36 -2 38 139 151 126 101 152 118 218 138 54 17 83 33 101 54 29 35 30 25 -21
271 -55 268 -122 689 -156 980 -112 978 -178 1955 -210 3120 -6 220 -13 446
-16 503 l-6 102 -613 0 -614 0 5 -32 c2 -18 11 -98 20 -178 141 -1329 441
-2906 841 -4428 30 -117 53 -215 50 -218 -3 -3 -38 -12 -79 -21 -207 -42 -300
-101 -634 -399 -61 -55 -155 -139 -210 -188 -54 -49 -106 -103 -115 -120 -30
-62 -53 -88 -115 -132 -63 -45 -179 -98 -237 -109 l-32 -6 -95 191 c-92 185
-96 192 -137 210 -60 27 -56 46 11 52 48 4 73 17 227 114 105 67 180 120 189
136 13 25 13 31 -6 70 -19 40 -20 53 -13 193 4 83 13 409 19 725 6 316 13 631
15 700 3 69 10 271 15 450 34 1093 86 2039 150 2725 11 116 20 222 20 238 l0
27 -629 0 -630 0 5 -182z"/>
<path d="M28196 9872 c17 -15 386 -330 820 -701 434 -371 835 -714 891 -763
l102 -88 748 0 c1264 0 2276 22 2522 54 120 16 281 55 378 91 190 72 312 203
349 374 50 236 -19 517 -229 939 l-62 122 -2775 0 -2775 -1 31 -27z"/>
<path d="M14517 9864 c-129 -30 -345 -61 -527 -75 -261 -21 -733 -4 -1040 37
l-47 6 -12 -118 c-6 -66 -14 -138 -17 -161 l-6 -41 84 -6 c930 -71 1138 -90
1208 -114 187 -65 283 -174 315 -358 21 -122 45 -407 45 -532 0 -73 4 -104 13
-107 13 -4 847 -42 1102 -50 83 -3 193 -7 245 -10 52 -2 154 -7 225 -10 1151
-51 1184 -53 1228 -74 60 -29 77 -57 124 -201 22 -69 71 -192 108 -274 l68
-148 -6 -342 c-8 -446 -52 -1144 -107 -1691 -10 -104 -18 -191 -17 -192 1 -1
55 132 119 295 64 163 232 589 373 945 140 357 255 654 255 661 0 12 -886
2265 -894 2273 -14 14 -891 129 -1436 187 -484 53 -1269 128 -1295 125 -5 -1
-54 -12 -108 -25z"/>
<path d="M17650 9524 c0 -4 100 -259 222 -568 121 -308 288 -730 369 -936 128
-325 149 -371 158 -350 5 14 62 158 126 320 243 613 225 561 225 653 0 45 -5
132 -10 192 -27 278 -87 423 -197 475 -118 56 -371 124 -682 184 -190 37 -211
40 -211 30z"/>
<path d="M17932 5803 c-249 -632 -455 -1157 -458 -1169 -5 -19 1 -23 58 -37
158 -39 342 -46 432 -15 38 13 40 15 63 98 83 301 304 1225 404 1684 l13 58
20 -28 c25 -34 252 -312 273 -334 11 -11 10 -3 -4 31 -10 25 -90 229 -178 452
-88 224 -163 407 -166 407 -3 0 -209 -516 -457 -1147z"/>
<path d="M35951 5725 c-160 -489 -270 -839 -265 -844 25 -24 152 -98 263 -155
155 -79 281 -124 357 -128 l57 -3 179 369 179 369 -109 276 c-60 152 -169 428
-242 614 -73 185 -136 337 -139 337 -4 0 -130 -376 -280 -835z"/>
<path d="M29805 5388 c-2 -7 -16 -78 -30 -158 -64 -361 -167 -764 -244 -960
-71 -183 -119 -233 -251 -264 -106 -25 -298 -15 -429 23 -29 9 -43 5 -125 -36
-114 -57 -186 -103 -254 -160 -87 -75 -62 -107 113 -142 222 -45 511 -49 743
-10 121 20 257 61 284 85 21 19 269 510 338 669 153 353 250 677 250 840 0 50
-2 55 -33 74 -54 33 -143 51 -254 51 -74 0 -105 -4 -108 -12z"/>
<path d="M18350 4394 c-25 -2 -143 -9 -262 -15 l-217 -12 -3 -31 c-3 -28 -9
-33 -58 -50 -77 -27 -256 -26 -360 2 -41 11 -81 22 -89 24 -10 2 -36 -50 -88
-182 l-74 -185 16 -42 c21 -54 83 -108 143 -123 36 -9 281 -10 1022 -5 536 4
983 9 993 12 21 5 47 53 47 86 0 35 -49 99 -159 208 -149 146 -302 240 -473
290 -58 17 -106 22 -233 24 -88 1 -180 1 -205 -1z"/>
<path d="M35476 4335 c-143 -32 -345 -87 -425 -117 l-65 -25 -137 -346 c-75
-191 -143 -354 -150 -363 -8 -10 -27 -23 -44 -31 -26 -12 8 -13 265 -8 489 10
1085 52 1143 81 84 43 117 102 117 211 0 103 -41 468 -54 481 -2 1 -19 -13
-38 -32 -50 -50 -92 -58 -197 -40 -47 8 -106 24 -129 36 -52 25 -100 87 -108
140 -6 35 -9 38 -38 37 -17 0 -80 -11 -140 -24z"/>
<path d="M26648 4154 c-291 -114 -846 -214 -1337 -241 -102 -5 -119 -4 -134
11 -25 26 -21 66 11 99 25 28 20 26 -63 -18 -188 -101 -319 -190 -418 -284
-57 -54 -133 -148 -126 -155 16 -15 145 -29 304 -33 395 -11 970 47 1858 188
77 13 79 13 99 53 29 56 35 166 14 237 -17 59 -91 179 -109 178 -7 0 -51 -16
-99 -35z"/>
<path d="M34561 3994 c-199 -115 -457 -309 -494 -372 -17 -29 -18 -39 -8 -73
8 -25 21 -44 39 -53 34 -17 172 -35 340 -42 120 -6 126 -5 104 11 -31 23 -52
67 -52 112 0 24 31 117 85 252 46 118 84 216 82 217 -1 1 -44 -22 -96 -52z"/>
<path d="M39514 3631 c-183 -210 -334 -461 -360 -595 -13 -69 33 -153 101
-186 39 -19 62 -20 491 -20 500 0 499 0 557 69 48 58 54 100 29 220 -42 206
-117 390 -207 504 l-46 58 -29 -31 c-34 -37 -52 -37 -155 -4 -50 16 -114 28
-173 31 -86 6 -94 8 -106 31 -13 25 -13 25 -102 -77z"/>
</g>
</svg>
