<?xml version="1.0" standalone="no"?>
<!DOCTYPE svg PUBLIC "-//W3C//DTD SVG 20010904//EN"
 "http://www.w3.org/TR/2001/REC-SVG-20010904/DTD/svg10.dtd">
<svg version="1.0" xmlns="http://www.w3.org/2000/svg"
 width="1380.000000pt" height="828.000000pt" viewBox="0 0 1380.000000 828.000000"
 preserveAspectRatio="xMidYMid meet">

<g transform="translate(0.000000,828.000000) scale(0.100000,-0.100000)"
fill="#000000" stroke="none">
<path d="M2022 7044 c-29 -64 -49 -120 -46 -125 3 -5 1 -9 -4 -9 -12 0 -34
-49 -27 -60 3 -5 1 -10 -4 -12 -6 -1 -17 -20 -25 -40 -12 -29 -13 -38 -3 -44
6 -4 9 -3 5 1 -5 5 3 28 17 52 14 23 23 43 20 43 -4 0 3 16 15 35 12 19 19 39
16 44 -4 5 1 16 9 24 8 9 15 23 15 32 0 9 12 36 26 61 14 24 23 44 20 44 -4 0
1 14 9 31 9 17 15 33 12 35 -2 2 -27 -48 -55 -112z"/>
<path d="M1883 6720 c-6 -17 -8 -30 -3 -30 8 0 24 50 18 56 -2 2 -9 -10 -15
-26z"/>
<path d="M1851 6653 c-12 -26 0 -56 13 -34 4 6 2 11 -4 11 -6 0 -8 5 -5 10 4
6 10 8 14 6 3 -3 7 4 7 15 0 27 -11 24 -25 -8z"/>
<path d="M1819 6570 c-14 -31 -14 -38 -3 -33 13 5 16 11 13 29 0 4 5 10 13 15
8 5 9 12 3 18 -7 7 -16 -3 -26 -29z"/>
<path d="M11955 6534 c22 -20 49 -40 60 -45 11 -6 7 0 -10 13 -16 12 -38 33
-49 45 -11 13 -24 23 -30 23 -6 0 7 -16 29 -36z"/>
<path d="M1786 6504 c-4 -10 -2 -22 4 -28 7 -7 10 -2 10 15 0 20 2 21 11 9 9
-12 10 -12 7 -1 -6 22 -25 24 -32 5z"/>
<path d="M12036 6471 c-4 -6 -4 -10 1 -9 4 1 24 -12 43 -31 59 -55 66 -61 79
-61 7 0 10 -4 7 -9 -3 -5 1 -14 8 -20 26 -21 26 6 1 29 -14 13 -25 20 -25 16
0 -4 -12 6 -26 23 -14 17 -30 31 -36 31 -5 0 -18 10 -27 22 -13 15 -20 18 -25
9z"/>
<path d="M1760 6433 c-21 -55 -23 -60 -12 -45 5 8 13 14 18 15 5 1 8 10 7 20
-2 10 1 16 6 13 5 -4 7 3 4 14 -3 11 -6 20 -7 20 -1 0 -8 -17 -16 -37z"/>
<path d="M12214 6326 c5 -37 56 -67 56 -33 0 7 -4 6 -10 -3 -8 -13 -10 -13
-10 1 0 9 -9 24 -19 33 -16 15 -19 15 -17 2z"/>
<path d="M5200 6314 c-59 -21 -110 -60 -124 -96 -6 -15 -14 -28 -19 -28 -8 0
-43 -74 -57 -121 -8 -26 10 -152 23 -166 4 -3 7 -1 7 5 0 7 11 12 24 12 17 0
27 7 31 23 4 12 23 47 41 78 19 31 34 66 34 77 0 23 11 23 127 1 29 -6 57 -7
63 -4 6 4 51 3 100 -1 l90 -7 0 -30 c0 -16 5 -58 12 -93 8 -48 16 -64 28 -64
22 0 42 81 39 153 -2 47 1 60 24 87 15 17 27 36 27 41 0 35 -135 109 -199 109
-16 0 -48 9 -72 20 -53 24 -136 25 -199 4z m100 -84 c0 -5 -5 -10 -11 -10 -5
0 -7 5 -4 10 3 6 8 10 11 10 2 0 4 -4 4 -10z m-120 -4 c0 -3 -4 -8 -10 -11 -5
-3 -10 -1 -10 4 0 6 5 11 10 11 6 0 10 -2 10 -4z"/>
<path d="M12275 6270 c-6 -10 -5 -11 18 -14 6 -1 11 -8 9 -15 -1 -7 2 -9 8 -6
8 5 6 13 -6 26 -20 22 -21 22 -29 9z"/>
<path d="M12325 6230 c-4 -6 -4 -14 -1 -17 3 -4 6 -1 6 6 0 7 5 9 10 6 6 -4 8
-10 5 -15 -3 -4 2 -13 9 -19 25 -21 26 5 2 28 -16 16 -26 19 -31 11z"/>
<path d="M12384 6179 c-3 -6 -1 -16 5 -22 9 -9 10 -7 5 8 -7 18 -6 18 9 6 9
-7 15 -17 12 -21 -2 -4 3 -14 13 -22 27 -23 40 -29 46 -20 3 5 -15 25 -39 45
-28 23 -46 33 -51 26z"/>
<path d="M12486 6092 c-3 -5 4 -18 16 -28 12 -11 18 -13 14 -6 -11 19 5 14 33
-10 15 -14 20 -16 12 -5 -22 28 -69 58 -75 49z"/>
<path d="M5417 5973 c-15 -14 -6 -23 23 -23 32 0 40 14 14 24 -20 8 -29 8 -37
-1z"/>
<path d="M5200 5954 c0 -11 5 -14 16 -10 9 3 22 6 30 6 8 0 14 5 14 10 0 6
-13 10 -30 10 -21 0 -30 -5 -30 -16z"/>
<path d="M2715 5906 c-16 -7 -41 -25 -54 -40 -14 -14 -35 -26 -48 -26 -60 0
-113 -56 -113 -119 0 -22 -8 -33 -34 -49 -72 -43 -115 -136 -84 -184 11 -17
13 -30 6 -48 -24 -63 12 -138 80 -167 18 -7 37 -24 41 -36 25 -63 121 -89 121
-32 0 53 -13 86 -41 100 -34 18 -55 74 -39 105 7 14 21 20 45 20 32 0 34 2 41
45 l6 45 46 0 c31 0 59 8 90 27 33 18 62 27 101 28 32 1 76 11 101 22 25 12
64 29 87 38 51 21 73 52 73 101 0 49 -32 99 -84 129 -46 27 -85 31 -133 15
-25 -9 -38 -7 -78 15 -53 28 -85 31 -130 11z"/>
<path d="M5429 5883 c-13 -16 -12 -17 3 -5 13 10 22 11 40 2 22 -11 22 -10 4
4 -25 20 -30 20 -47 -1z"/>
<path d="M5223 5883 c-7 -2 -13 -9 -13 -14 0 -6 7 -6 18 0 11 6 25 6 37 0 20
-10 20 -10 1 5 -21 17 -24 17 -43 9z"/>
<path d="M8043 5835 c-67 -20 -131 -63 -158 -103 -30 -47 -52 -129 -37 -144 7
-7 5 -26 -8 -63 -10 -30 -28 -102 -40 -162 -26 -125 -38 -153 -92 -209 -48
-50 -58 -101 -31 -154 19 -38 89 -80 132 -80 13 0 33 -7 43 -17 11 -9 18 -11
18 -5 0 7 -5 12 -12 12 -6 0 -9 3 -6 6 3 3 24 -4 47 -15 48 -25 120 -27 163
-5 28 14 30 19 24 52 -3 21 -6 63 -6 94 0 57 0 58 -37 73 -53 22 -98 69 -123
127 -22 50 -39 166 -35 228 2 19 3 45 4 58 1 20 6 22 50 22 27 0 61 4 76 10
20 8 32 6 51 -6 19 -13 38 -15 84 -11 36 4 62 3 65 -4 4 -5 24 -17 46 -26 22
-8 45 -23 52 -33 6 -9 24 -20 39 -24 18 -4 30 -15 34 -30 6 -26 -17 -80 -41
-93 -14 -8 -48 -135 -60 -228 -9 -64 8 -158 35 -196 12 -16 25 -29 28 -29 7 0
29 45 179 374 87 191 86 183 22 310 -59 117 -117 188 -189 229 -91 53 -227 71
-317 42z"/>
<path d="M5359 5813 c-13 -16 -12 -17 4 -4 9 7 17 15 17 17 0 8 -8 3 -21 -13z"/>
<path d="M10883 5791 c-64 -41 -79 -60 -85 -105 l-4 -27 -95 -2 c-81 -2 -102
-6 -152 -31 -100 -49 -151 -151 -95 -190 28 -20 98 -20 145 -1 44 18 40 19 45
-3 3 -11 27 -26 64 -40 79 -28 151 -76 172 -111 10 -18 28 -32 44 -35 69 -14
25 -139 -47 -133 -15 2 -22 -7 -29 -35 -5 -21 -6 -41 -3 -45 18 -17 88 20 135
72 83 91 113 216 80 328 -10 32 -10 41 0 45 7 2 28 27 47 55 19 29 44 64 56
78 30 38 19 98 -30 152 -72 80 -151 89 -248 28z"/>
<path d="M5078 5560 c18 -4 39 -16 47 -26 8 -11 15 -14 15 -7 0 18 -41 43 -70
42 -21 -1 -20 -2 8 -9z"/>
<path d="M5478 5543 c6 -2 18 -2 25 0 6 3 1 5 -13 5 -14 0 -19 -2 -12 -5z"/>
<path d="M5528 5535 c5 -11 12 -27 15 -35 5 -13 6 -13 6 1 1 8 -6 24 -15 35
-15 19 -15 19 -6 -1z"/>
<path d="M5021 5524 c0 -11 3 -14 6 -6 3 7 2 16 -1 19 -3 4 -6 -2 -5 -13z"/>
<path d="M5478 5513 c7 -3 16 -2 19 1 4 3 -2 6 -13 5 -11 0 -14 -3 -6 -6z"/>
<path d="M3013 5495 c-31 -13 -40 -25 -28 -37 10 -10 80 20 83 36 4 19 -12 20
-55 1z"/>
<path d="M5010 5495 c0 -5 5 -17 10 -25 5 -8 10 -10 10 -5 0 6 -5 17 -10 25
-5 8 -10 11 -10 5z"/>
<path d="M5450 5490 c-24 -15 -7 -18 20 -3 14 7 18 13 10 13 -8 0 -22 -4 -30
-10z"/>
<path d="M5552 5465 c0 -11 3 -29 8 -40 11 -25 11 1 0 35 -6 20 -8 21 -8 5z"/>
<path d="M5052 5435 c-2 -38 12 -64 21 -40 4 9 3 13 -2 10 -6 -3 -12 9 -14 27
l-4 33 -1 -30z"/>
<path d="M7905 5450 c-3 -6 1 -7 9 -4 18 7 21 14 7 14 -6 0 -13 -4 -16 -10z"/>
<path d="M2774 5439 c-11 -18 9 -27 49 -22 52 7 50 33 -2 33 -22 0 -43 -5 -47
-11z"/>
<path d="M5101 5434 c0 -11 3 -14 6 -6 3 7 2 16 -1 19 -3 4 -6 -2 -5 -13z"/>
<path d="M8107 5443 c-3 -5 5 -8 18 -8 13 0 21 3 18 8 -2 4 -10 7 -18 7 -8 0
-16 -3 -18 -7z"/>
<path d="M8011 5424 c0 -11 3 -14 6 -6 3 7 2 16 -1 19 -3 4 -6 -2 -5 -13z"/>
<path d="M3004 5415 c-7 -18 3 -35 20 -35 8 0 14 11 14 25 0 27 -25 35 -34 10z"/>
<path d="M5491 5394 c0 -11 3 -14 6 -6 3 7 2 16 -1 19 -3 4 -6 -2 -5 -13z"/>
<path d="M2944 5359 c8 -33 8 -42 -4 -49 -13 -8 -12 -10 2 -10 26 0 30 16 17
60 -16 52 -29 52 -15 -1z"/>
<path d="M2823 5374 c-8 -21 12 -38 34 -29 17 8 17 8 0 12 -14 4 -16 8 -6 19
9 11 8 14 -5 14 -9 0 -19 -7 -23 -16z"/>
<path d="M5012 5360 c0 -14 2 -19 5 -12 2 6 2 18 0 25 -3 6 -5 1 -5 -13z"/>
<path d="M10450 5330 c0 -5 21 -10 46 -10 27 0 43 4 39 10 -3 6 -24 10 -46 10
-21 0 -39 -4 -39 -10z"/>
<path d="M10660 5312 c0 -5 20 -10 45 -10 25 -1 45 2 45 8 0 5 -20 10 -45 10
-25 0 -45 -4 -45 -8z"/>
<path d="M5071 5294 c0 -11 3 -14 6 -6 3 7 2 16 -1 19 -3 4 -6 -2 -5 -13z"/>
<path d="M10470 5269 c-12 -8 -10 -9 8 -4 13 4 30 1 40 -7 15 -12 16 -11 3 5
-15 19 -29 21 -51 6z"/>
<path d="M10579 5253 c-5 -16 -11 -33 -14 -40 -2 -6 3 -19 11 -30 13 -17 14
-16 8 9 -3 15 -1 41 4 58 6 16 9 30 6 30 -2 0 -9 -12 -15 -27z"/>
<path d="M10673 5253 c-24 -9 -13 -18 23 -19 33 -1 35 1 18 13 -19 14 -22 14
-41 6z"/>
<path d="M5737 5183 c-13 -16 -14 -40 -8 -178 5 -88 13 -171 19 -185 8 -19 11
22 11 178 1 111 -1 202 -2 202 -2 0 -11 -8 -20 -17z"/>
<path d="M8726 5057 c-21 -72 -40 -139 -42 -147 -3 -9 0 -8 8 4 7 10 30 41 51
68 21 27 41 64 44 83 6 38 -4 125 -15 125 -4 0 -24 -60 -46 -133z"/>
<path d="M5537 5166 c-4 -11 -3 -15 4 -10 8 4 9 -1 5 -17 -6 -20 -5 -21 4 -6
7 10 8 23 2 33 -8 15 -10 15 -15 0z"/>
<path d="M4850 4997 c1 -98 4 -176 8 -173 3 3 4 34 3 69 -1 34 3 104 9 156 9
82 9 97 -5 110 -14 15 -16 0 -15 -162z"/>
<path d="M5641 5154 c0 -11 3 -14 6 -6 3 7 2 16 -1 19 -3 4 -6 -2 -5 -13z"/>
<path d="M4955 5090 c-3 -5 -1 -10 4 -10 6 0 11 5 11 10 0 6 -2 10 -4 10 -3 0
-8 -4 -11 -10z"/>
<path d="M5620 5089 c0 -5 5 -7 10 -4 6 3 10 8 10 11 0 2 -4 4 -10 4 -5 0 -10
-5 -10 -11z"/>
<path d="M4991 5070 c0 -8 4 -24 9 -35 5 -13 9 -14 9 -5 0 8 -4 24 -9 35 -5
13 -9 14 -9 5z"/>
<path d="M2392 5051 c-31 -6 -32 -7 -18 -27 8 -11 34 -26 58 -33 67 -20 140
-61 170 -94 49 -54 63 -116 62 -272 -3 -382 -113 -663 -276 -705 -23 -6 -49
-13 -55 -15 -19 -7 -16 14 11 59 45 78 98 290 112 449 6 71 5 77 -12 77 -11 0
-55 16 -99 35 -82 36 -105 42 -105 26 0 -5 -23 -34 -51 -65 -36 -39 -74 -67
-127 -93 -71 -36 -82 -38 -167 -38 -84 0 -95 2 -127 27 l-35 26 -11 -87 c-24
-182 -8 -350 45 -455 53 -106 118 -149 228 -150 76 -1 148 20 200 59 22 16 50
23 107 28 105 7 184 44 248 114 123 134 179 307 201 616 12 177 1 273 -42 358
-56 111 -198 183 -317 160z"/>
<path d="M5680 5011 c0 -6 4 -13 10 -16 6 -3 7 1 4 9 -7 18 -14 21 -14 7z"/>
<path d="M4881 4954 c0 -11 3 -14 6 -6 3 7 2 16 -1 19 -3 4 -6 -2 -5 -13z"/>
<path d="M5681 4954 c0 -11 3 -14 6 -6 3 7 2 16 -1 19 -3 4 -6 -2 -5 -13z"/>
<path d="M4981 4934 c0 -11 3 -14 6 -6 3 7 2 16 -1 19 -3 4 -6 -2 -5 -13z"/>
<path d="M5711 4894 c0 -11 3 -14 6 -6 3 7 2 16 -1 19 -3 4 -6 -2 -5 -13z"/>
<path d="M7865 4871 c6 -11 4 -13 -9 -8 -12 5 -15 3 -9 -6 4 -6 7 -21 5 -32
l-2 -20 9 20 c8 18 10 16 20 -15 l11 -35 -6 35 c-9 57 -10 59 -19 67 -4 5 -5
2 0 -6z"/>
<path d="M5691 4854 c0 -11 3 -14 6 -6 3 7 2 16 -1 19 -3 4 -6 -2 -5 -13z"/>
<path d="M5673 4833 c4 -6 2 -13 -5 -15 -8 -3 -6 -6 4 -10 17 -7 19 15 3 29
-4 4 -5 3 -2 -4z"/>
<path d="M4876 4822 c-3 -4 4 -9 15 -9 23 -2 25 3 4 10 -8 4 -16 3 -19 -1z"/>
<path d="M4834 4787 c-4 -12 -6 -37 -6 -55 1 -18 -5 -67 -13 -109 -8 -42 -13
-79 -10 -81 2 -2 7 9 10 24 3 16 10 36 15 45 4 8 6 29 3 45 -4 23 -2 26 6 14
8 -11 9 -7 5 18 -7 36 -3 38 46 20 29 -9 35 -9 47 7 21 29 16 62 -9 68 -13 3
-37 10 -55 15 -29 9 -33 8 -39 -11z m96 -42 c0 -20 -11 -24 -41 -13 -18 6 -29
17 -29 28 0 16 4 17 35 7 19 -6 35 -16 35 -22z"/>
<path d="M5685 4778 c-50 -13 -47 -11 -39 -42 4 -18 18 -32 42 -41 19 -9 37
-13 40 -10 3 3 -1 5 -8 5 -20 0 -2 13 23 17 17 2 19 1 7 -7 -13 -8 -12 -10 3
-10 13 0 17 8 17 34 0 68 -9 73 -85 54z m45 -33 c0 -20 -50 -32 -61 -14 -5 9
-3 16 9 21 29 11 52 9 52 -7z"/>
<path d="M7866 4762 c-3 -5 1 -26 9 -48 8 -21 14 -48 15 -58 0 -29 7 -16 13
29 4 25 3 33 -2 20 -7 -17 -9 -16 -16 15 -5 19 -8 38 -7 43 3 10 -6 9 -12 -1z"/>
<path d="M7891 4754 c0 -11 3 -14 6 -6 3 7 2 16 -1 19 -3 4 -6 -2 -5 -13z"/>
<path d="M8620 4720 c0 -5 5 -10 11 -10 5 0 7 5 4 10 -3 6 -8 10 -11 10 -2 0
-4 -4 -4 -10z"/>
<path d="M8620 4696 c0 -14 41 -76 50 -76 5 0 12 4 15 10 3 6 -1 7 -9 4 -10
-4 -16 -1 -16 9 0 8 -6 18 -12 20 -10 4 -10 8 1 15 9 7 10 12 2 16 -6 4 -11 1
-11 -6 0 -9 -3 -9 -10 2 -5 8 -10 11 -10 6z"/>
<path d="M5774 4643 c0 -23 4 -36 8 -30 6 9 8 8 8 -2 0 -8 2 -12 5 -9 3 2 -1
22 -9 44 l-13 39 1 -42z"/>
<path d="M7906 4605 c2 -11 4 -24 4 -30 0 -5 7 1 16 13 9 13 13 26 10 29 -3 4
-6 1 -6 -5 0 -16 -17 -15 -23 1 -2 6 -3 3 -1 -8z"/>
<path d="M3203 4605 c0 -8 4 -12 9 -9 5 3 6 10 3 15 -9 13 -12 11 -12 -6z"/>
<path d="M5723 4605 c-8 -9 -9 -16 -3 -20 6 -3 10 -1 10 5 0 6 4 8 10 5 6 -3
7 1 4 9 -7 19 -6 19 -21 1z"/>
<path d="M8704 4593 c9 -17 21 -35 27 -39 13 -8 -1 21 -26 51 -15 19 -15 18
-1 -12z"/>
<path d="M8689 4575 c6 -11 20 -31 31 -45 15 -17 18 -19 11 -5 -6 11 -20 31
-31 45 -15 17 -18 19 -11 5z"/>
<path d="M7926 4564 c-9 -22 -8 -23 14 -21 11 1 20 2 20 3 0 11 -14 34 -20 34
-4 0 -11 -7 -14 -16z"/>
<path d="M5807 4553 c-4 -3 -7 -11 -7 -17 0 -6 5 -5 12 2 6 6 9 14 7 17 -3 3
-9 2 -12 -2z"/>
<path d="M4786 4499 c-8 -42 0 -50 9 -9 4 17 5 34 2 36 -2 3 -7 -10 -11 -27z"/>
<path d="M7941 4520 c-1 -20 40 -133 70 -192 22 -41 25 -45 39 -30 13 14 12
15 -2 10 -10 -4 -19 -1 -22 8 -9 24 -7 27 10 14 13 -12 14 -10 3 14 -11 23
-14 25 -19 11 -10 -27 -51 81 -44 114 5 21 3 23 -6 11 -9 -12 -10 -9 -6 15 5
20 4 25 -3 16 -7 -11 -10 -10 -14 5 -3 12 -5 14 -6 4z"/>
<path d="M5735 4461 c3 -35 5 -95 5 -133 0 -44 4 -67 10 -63 6 3 10 30 10 60
0 30 5 57 10 60 6 3 10 14 10 23 0 15 -2 15 -10 2 -8 -12 -10 -10 -10 10 0 14
-7 43 -16 65 l-15 40 6 -64z"/>
<path d="M8756 4507 c3 -10 9 -15 12 -12 3 3 0 11 -7 18 -10 9 -11 8 -5 -6z"/>
<path d="M1735 4460 c-6 -20 9 -50 26 -50 14 0 29 37 23 54 -9 23 -41 20 -49
-4z"/>
<path d="M5843 4444 c-11 -23 -10 -24 4 -12 15 11 16 11 10 -4 -3 -10 -2 -18
3 -18 11 0 12 17 2 42 -6 15 -9 13 -19 -8z"/>
<path d="M4771 4434 c0 -11 3 -14 6 -6 3 7 2 16 -1 19 -3 4 -6 -2 -5 -13z"/>
<path d="M8793 4379 c17 -38 35 -69 39 -69 5 0 1 11 -8 25 -9 14 -14 25 -10
25 3 0 -3 15 -14 33 -23 37 -25 51 -7 41 6 -4 8 -3 4 1 -4 5 -14 10 -21 11 -9
1 -4 -20 17 -67z"/>
<path d="M4840 4434 c0 -1 6 -7 14 -13 10 -9 15 -8 19 2 3 8 -3 13 -14 13 -11
0 -19 -1 -19 -2z"/>
<path d="M4790 4410 c0 -7 -7 -10 -15 -6 -8 3 -15 1 -15 -4 0 -12 20 -13 39
-1 9 6 10 11 2 15 -6 4 -11 2 -11 -4z"/>
<path d="M8000 4408 c0 -9 5 -20 10 -23 13 -8 13 5 0 25 -8 13 -10 13 -10 -2z"/>
<path d="M8806 4407 c3 -10 9 -15 12 -12 3 3 0 11 -7 18 -10 9 -11 8 -5 -6z"/>
<path d="M5830 4400 c8 -5 20 -10 25 -10 6 0 3 5 -5 10 -8 5 -19 10 -25 10 -5
0 -3 -5 5 -10z"/>
<path d="M4838 4391 l-28 -6 24 -11 c21 -10 25 -9 29 7 3 11 4 18 4 18 -1 -1
-14 -4 -29 -8z"/>
<path d="M8830 4356 c0 -8 4 -17 9 -20 5 -4 7 3 4 14 -6 23 -13 26 -13 6z"/>
<path d="M8856 4290 c3 -14 10 -29 15 -34 5 -6 9 -17 9 -25 -1 -13 -4 -12 -15
3 -19 25 -19 17 0 -25 13 -31 14 -32 15 -9 0 20 2 22 11 10 17 -24 0 29 -23
70 -14 26 -17 28 -12 10z"/>
<path d="M8051 4273 c-7 -8 -10 -17 -6 -21 3 -3 11 0 16 8 8 11 9 7 5 -15 -5
-20 -4 -25 3 -16 7 11 12 8 25 -15 8 -16 15 -24 15 -19 0 6 -10 29 -22 52 -19
35 -24 39 -36 26z"/>
<path d="M8836 4277 c3 -10 9 -15 12 -12 3 3 0 11 -7 18 -10 9 -11 8 -5 -6z"/>
<path d="M8070 4207 c0 -14 31 -69 36 -64 3 3 -4 20 -15 38 -12 19 -21 30 -21
26z"/>
<path d="M8119 4163 c14 -28 14 -46 -1 -37 -6 4 5 -24 26 -62 43 -78 62 -103
51 -64 -7 24 -7 24 9 5 17 -22 22 -50 6 -40 -6 3 0 -10 11 -30 16 -27 24 -33
30 -23 5 7 9 18 9 23 0 6 -4 4 -9 -4 -7 -11 -11 -9 -21 9 -11 20 -10 22 4 17
12 -5 10 2 -8 31 -12 20 -40 69 -60 107 -21 39 -42 75 -48 80 -6 6 -6 1 1 -12z
m31 -65 c0 -5 9 -21 20 -35 11 -14 20 -31 20 -37 0 -6 -9 0 -20 14 -23 29 -44
84 -30 75 6 -4 10 -11 10 -17z"/>
<path d="M4836 4135 c-9 -20 -16 -39 -16 -41 0 -3 -22 -53 -49 -112 -26 -59
-51 -120 -55 -136 -10 -42 -83 -190 -180 -365 -47 -85 -86 -158 -86 -161 0 -4
-21 -33 -47 -66 -81 -100 -188 -265 -259 -395 -70 -129 -228 -382 -316 -506
-49 -69 -51 -74 -38 -100 8 -16 16 -32 18 -36 6 -13 -49 4 -108 33 -76 38
-122 50 -146 37 -25 -14 -34 -27 -34 -56 0 -48 273 -301 326 -301 13 0 31 11
41 26 44 63 80 98 119 115 35 14 54 35 103 108 33 49 107 145 163 214 57 68
163 202 237 296 73 94 174 211 223 259 104 101 180 196 303 377 97 143 162
230 213 287 l33 37 149 -136 c82 -74 150 -139 152 -143 2 -5 26 -33 53 -62 28
-29 85 -93 127 -143 108 -128 201 -220 288 -284 75 -55 639 -611 739 -729 55
-64 103 -98 122 -86 6 3 40 -24 75 -60 36 -36 67 -66 70 -66 35 0 140 104 245
243 64 84 70 106 39 137 -29 29 -58 25 -126 -16 -77 -48 -135 -77 -141 -71 -2
3 3 19 11 36 l16 30 -77 88 c-114 131 -262 317 -328 413 -103 149 -170 232
-276 346 -93 100 -205 251 -388 524 -28 41 -73 102 -100 135 -27 33 -76 112
-109 175 -88 166 -78 157 -138 127 -84 -43 -200 -62 -374 -61 -127 0 -169 4
-235 22 -80 22 -204 77 -217 95 -3 6 -13 -7 -22 -28z"/>
<path d="M8911 4154 c-1 -15 30 -117 34 -112 2 2 -4 31 -14 63 -11 33 -20 55
-20 49z"/>
<path d="M8891 4135 c1 -19 18 -51 18 -35 0 8 -4 22 -9 30 -5 8 -9 11 -9 5z"/>
<path d="M8911 4064 c0 -11 3 -14 6 -6 3 7 2 16 -1 19 -3 4 -6 -2 -5 -13z"/>
<path d="M8921 4024 c0 -11 3 -14 6 -6 3 7 2 16 -1 19 -3 4 -6 -2 -5 -13z"/>
<path d="M8947 4009 c4 -13 8 -18 11 -10 2 7 -1 18 -6 23 -8 8 -9 4 -5 -13z"/>
<path d="M8937 3955 c3 -22 7 -42 9 -44 8 -9 2 45 -6 64 -7 14 -8 8 -3 -20z"/>
<path d="M8961 3964 c0 -11 3 -14 6 -6 3 7 2 16 -1 19 -3 4 -6 -2 -5 -13z"/>
<path d="M8971 3914 c0 -11 3 -14 6 -6 3 7 2 16 -1 19 -3 4 -6 -2 -5 -13z"/>
<path d="M8261 3902 c-8 -15 -8 -23 1 -28 6 -4 8 -3 4 4 -3 6 -2 13 4 17 5 3
10 1 10 -6 0 -7 7 -21 17 -31 9 -10 13 -21 10 -25 -4 -4 -14 2 -22 13 -28 37
-15 3 15 -38 17 -22 30 -36 30 -30 0 6 -4 14 -10 17 -5 3 -10 14 -10 23 0 12
6 7 20 -13 11 -16 18 -37 15 -46 -3 -8 2 -24 10 -35 8 -10 15 -14 15 -7 0 6
-4 15 -10 18 -12 8 -13 25 -2 25 5 0 14 -12 21 -26 6 -15 15 -24 18 -20 4 3
-3 20 -15 36 -12 16 -22 34 -22 40 0 5 -4 10 -9 10 -6 0 -25 28 -44 61 -32 57
-36 60 -46 41z"/>
<path d="M8957 3835 c3 -38 9 -74 14 -79 8 -9 4 32 -12 109 -5 28 -6 19 -2
-30z"/>
<path d="M8977 3883 c-2 -5 0 -19 4 -33 7 -23 7 -22 6 8 -1 33 -3 37 -10 25z"/>
<path d="M8988 3808 c-3 -7 -1 -24 3 -38 6 -21 7 -19 6 13 0 39 -2 45 -9 25z"/>
<path d="M8885 3743 c-56 -12 -219 -70 -282 -100 -90 -42 -113 -70 -113 -134
0 -101 34 -130 153 -131 71 -1 93 4 167 33 149 60 250 144 250 207 0 34 -26
78 -63 106 -32 25 -64 30 -112 19z m-71 -292 c9 -15 -23 -36 -36 -23 -5 5 -7
15 -4 21 9 13 33 14 40 2z"/>
<path d="M8380 3692 c0 -5 7 -15 15 -22 8 -7 15 -9 15 -6 0 4 -7 14 -15 22 -8
9 -15 11 -15 6z"/>
<path d="M8420 3681 c0 -5 5 -13 10 -16 6 -3 10 -2 10 4 0 5 -4 13 -10 16 -5
3 -10 2 -10 -4z"/>
<path d="M8433 3635 c-8 -9 -9 -16 -3 -20 6 -3 10 -1 10 4 0 6 5 11 11 11 6 0
8 -7 5 -16 -4 -12 -2 -15 9 -10 8 3 15 1 15 -3 0 -5 -5 -11 -12 -13 -7 -3 -9
-12 -5 -22 4 -9 11 -15 16 -11 6 3 7 13 4 22 -5 11 -3 14 6 8 11 -6 11 -3 0
16 -12 23 -34 49 -41 49 -2 -1 -9 -7 -15 -15z"/>
<path d="M3309 3475 c-7 -7 -224 -41 -354 -56 -60 -7 -203 -13 -317 -13 l-208
-1 0 -195 c-1 -186 -13 -437 -23 -446 -3 -3 -67 13 -143 35 -77 22 -191 52
-254 67 -63 15 -165 44 -227 65 -135 47 -173 49 -203 12 l-20 -26 -28 26 c-49
47 -79 32 -150 -74 -54 -80 -142 -255 -142 -281 0 -31 29 -58 62 -58 26 0 100
52 148 105 14 15 37 33 51 41 24 12 28 11 40 -5 8 -10 70 -37 139 -61 177 -61
347 -129 509 -205 222 -104 403 -136 483 -87 60 38 74 71 122 307 25 121 54
258 65 305 12 47 21 100 21 118 0 17 4 32 8 32 13 0 66 -190 118 -420 l46
-205 -16 -92 c-9 -51 -39 -184 -67 -295 -27 -112 -63 -264 -79 -338 -16 -74
-40 -171 -55 -215 -36 -110 -43 -170 -21 -194 17 -18 16 -20 -18 -46 -53 -41
-49 -65 26 -137 34 -33 106 -93 161 -134 125 -94 167 -98 183 -18 5 24 -3 43
-41 99 -61 91 -67 103 -75 146 -7 36 -6 37 29 43 l36 6 74 227 c40 125 102
294 137 375 124 289 132 342 110 678 -25 362 -51 601 -86 785 -21 109 -31 140
-41 130z"/>
<path d="M9640 2896 c-14 -8 -44 -17 -67 -21 -63 -10 -68 -23 -33 -86 34 -62
38 -96 13 -101 -14 -3 -8 -10 22 -31 37 -25 56 -48 129 -165 15 -23 38 -48 51
-54 35 -16 73 -3 81 28 11 43 -57 315 -103 411 -17 37 -48 43 -93 19z"/>
<path d="M9685 1519 c-80 -32 -113 -36 -122 -13 -4 12 -15 6 -52 -29 -26 -26
-85 -65 -137 -91 -123 -60 -160 -109 -116 -149 24 -22 45 -21 189 3 142 24
276 57 321 77 35 17 51 55 33 77 -6 7 -16 40 -22 72 -6 33 -14 64 -17 70 -5 9
-28 3 -77 -17z"/>
<path d="M11520 1448 c-16 -85 -35 -129 -53 -123 -11 5 -13 -14 -13 -97 1 -57
-4 -136 -11 -177 -12 -74 -6 -117 20 -133 21 -13 53 -9 71 11 37 41 171 347
197 450 13 52 13 54 -10 72 -13 11 -33 19 -45 19 -11 0 -41 9 -65 20 -70 32
-77 29 -91 -42z"/>
<path d="M7998 1483 c-8 -10 -31 -43 -50 -73 -48 -74 -76 -103 -96 -95 -20 7
-32 -12 -32 -51 0 -31 -24 -84 -94 -203 -39 -67 -43 -106 -15 -124 36 -23 74
4 241 172 165 166 232 250 221 277 -3 8 -22 23 -42 34 -20 10 -49 32 -65 49
-34 36 -47 38 -68 14z"/>
</g>
</svg>
