<svg xmlns="http://www.w3.org/2000/svg" xmlns:xlink="http://www.w3.org/1999/xlink" viewBox="0 0 1600 1600" width="1600" height="1600" style="width:100%;height:100%;transform:translate3d(0,0,0);content-visibility:visible"><defs><path fill="#005E4C" d="M-296.465-307.645c-2.212.15-4.555.896-6.257 2.96-2.847 3.452-3.152 9.686-.814 16.67L9.367 645.006c4.619 13.787 17.165 24.51 27.419 23.616l397.039-36.687.359 3.742-.359-3.742c2.582-.25 4.629-1.514 6.082-3.762 2.77-4.296 2.932-11.554.425-18.949L141.046-259.621c-4.253-12.51-15.836-24.153-25.303-25.422l-409.236-22.491a15.07 15.07 0 0 0-2.972-.116v.005z" transform="matrix(.5 0 0 .5 552.736 509.942)" style="display:block" id="a"/><path fill="#3FB19A" d="m255.285 63.07-435.815 71.525c-11.839 1.94-25.742-9.219-31.009-24.936L-264.636-48.84c-5.248-15.668.238-29.575 12.203-31.062l440.581-54.81c10.149-1.264 22.289 9.342 27.161 23.679l49.27 145.071c4.885 14.381.738 27.374-9.295 29.022l.001.01z" transform="matrix(.5 0 0 .5 702.868 950.91)" style="display:block" id="b"/><path fill="#3FB19A" d="M448.143 98.874-113.21 46.359l-39.933-117.233L411.36-8.235l36.783 107.109z" transform="matrix(.5 0 0 .5 721.556 279.867)" style="display:block" id="c"/><mask id="g" mask-type="alpha"><use xlink:href="#a"/></mask><mask id="f" mask-type="alpha"><use xlink:href="#b"/></mask><mask id="e" mask-type="alpha"><use xlink:href="#c"/></mask><clipPath id="d"><path d="M0 0h1600v1600H0z"/></clipPath><clipPath id="h"><path d="M0 0h1600v1600H0z"/></clipPath></defs><g clip-path="url(#d)"><g style="display:block"><path fill="#005E4C" d="M473.092 1280.671c-11.104.594-21.25-6.286-24.839-16.843L219.508 590.981c-1.84-5.412.489-11.009 4.92-13.756 1.626-1.009 16.224-9.959 16.224-9.959l111.006 2.975 121.434 710.43z"/><path fill="#005E4C" d="M471.779 1282.584c-11.335 0-21.608-7.299-25.299-18.147l-228.745-672.85c-2.066-6.006.309-12.643 5.71-15.962 1.627-1.009 16.23-9.964 16.23-9.964a1.732 1.732 0 0 1 1.026-.275l111.007 2.975a1.874 1.874 0 0 1 1.795 1.56l121.435 710.43a1.885 1.885 0 0 1-1.745 2.193c-.472.026-.944.039-1.414.039v.002zM241.153 569.156a13604.24 13604.24 0 0 0-15.744 9.665 9.813 9.813 0 0 0-4.132 11.551l228.749 672.848c3.073 9.04 11.464 15.213 20.85 15.586l-120.803-706.73-108.917-2.92h-.003z"/><path fill="#3FB19A" d="M1015.096 1044.734 472.369 1278.54 235.316 581.264c-2.506-7.377 2.734-15.105 10.496-15.478l583.59-27.917c7.794-.373 14.894 4.47 17.412 11.877l168.282 494.988z"/><path fill="#005E4C" d="M472.369 1280.418a1.878 1.878 0 0 1-1.773-1.27L233.544 581.87c-1.385-4.08-.796-8.464 1.62-12.028 2.417-3.563 6.264-5.727 10.559-5.932l583.592-27.917c8.561-.408 16.5 4.996 19.271 13.147l168.283 494.988a1.88 1.88 0 0 1-1.034 2.332l-542.727 233.805a1.844 1.844 0 0 1-.74.153zm357.86-740.691c-.245 0-.492.005-.737.017L245.9 567.664c-3.106.15-5.89 1.712-7.64 4.292s-2.177 5.75-1.173 8.702l236.4 695.355 539.277-232.318-167.722-493.342c-2.181-6.342-8.125-10.606-14.813-10.626z"/><path fill="#005E4C" d="m1008.602 1050.505-542.65 209.156s6.736 19.816 8.082 23.17c.492 1.227 1.073 2.539 2.656 2.814l679.406 117.875a38.828 38.828 0 0 0 31.625-8.544l322.812-271.375a5.75 5.75 0 0 0 2.086-4.788c-.132-2.309-.035-18.729-.01-22.748a.96.96 0 0 0-.877-.964l-502.666-44.67a.959.959 0 0 0-.464.076v-.003z"/><path fill="#005E4C" d="M1162.755 1405.974a40.83 40.83 0 0 1-6.98-.601l-679.407-117.875c-2.671-.464-3.584-2.74-4.074-3.965-1.348-3.36-7.84-22.452-8.114-23.263a1.88 1.88 0 0 1 1.1-2.36l542.626-209.147a2.858 2.858 0 0 1 1.333-.202l502.658 44.67a2.82 2.82 0 0 1 2.584 2.849c-.03 4.753-.12 20.44.005 22.628a7.622 7.622 0 0 1-2.751 6.333l-322.812 271.374a40.614 40.614 0 0 1-26.168 9.558zm-694.449-145.206c1.666 4.878 6.385 18.672 7.463 21.366.497 1.237.751 1.577 1.238 1.663l679.407 117.874a36.856 36.856 0 0 0 30.102-8.133l322.812-271.374a3.857 3.857 0 0 0 1.419-3.238c-.123-2.141-.058-15.503-.018-22.027l-501.62-44.577-540.805 208.446h.003zm541.04-208.539h-.005.005zm-.744-1.722h.025-.025z"/><path fill="#3FB19A" d="m1008.824 1026.289-542.872 233.375 690.584 119.813a37.867 37.867 0 0 0 30.844-8.335l323.154-271.662c3.908-3.283 2.035-9.658-3.021-10.297l-498.689-62.894z"/><path fill="#005E4C" d="M1163.03 1381.914c-2.265 0-4.544-.193-6.814-.586l-690.584-119.813a1.88 1.88 0 0 1-1.52-2.18 1.879 1.879 0 0 1 1.103-1.399l542.872-233.372a1.869 1.869 0 0 1 .971-.138l498.687 62.895a7.621 7.621 0 0 1 6.434 5.489 7.641 7.641 0 0 1-2.445 8.111l-323.156 271.662a39.661 39.661 0 0 1-25.551 9.333l.003-.002zm-690.535-123.021 684.358 118.733a35.926 35.926 0 0 0 29.32-7.92l323.157-271.662a3.881 3.881 0 0 0 1.256-4.172 3.865 3.865 0 0 0-3.31-2.822l-498.183-62.83-536.597 230.675v-.002z"/><path fill="#005E4C" d="m896.377 1309.697 370.179-227.96-263.707-34.35L548.68 1250.3l347.698 59.397zm349.941-26.371a1.689 1.689 0 0 1-.297-.025l-200.706-32.389a1.88 1.88 0 0 1-1.545-2.162 1.88 1.88 0 0 1 .833-1.274l178.563-114.71a1.837 1.837 0 0 1 1.279-.278l174.026 25.28a1.877 1.877 0 0 1 1.585 2.128 1.879 1.879 0 0 1-.683 1.198l-151.882 121.821a1.867 1.867 0 0 1-1.168.411h-.005zm-195.565-35.342 195.043 31.476 147.862-118.597-169.06-24.558-173.842 111.68h-.003z"/><path fill="#37FFB0" d="m837.18 557.695 153.414 451.26a5.863 5.863 0 0 1-3.221 7.269l-504.586 217.594c-5.923 2.554-12.789-.191-15.336-6.132a11.889 11.889 0 0 1-.325-.848L248.871 584.852c-1.04-3.06.59-6.387 3.64-7.43a5.817 5.817 0 0 1 1.608-.308l571.453-27.338a11.676 11.676 0 0 1 11.607 7.918z"/><path fill="#FFF" d="m342.413 859.739 124.715 367.1c2.082 6.122 8.718 9.392 14.822 7.303.284-.097.564-.205.84-.324l352.763-152.335-493.14-221.744z"/><path fill="#005E4C" d="M478.178 1236.646a13.534 13.534 0 0 1-12.822-9.201L247.097 585.459a7.692 7.692 0 0 1 .924-6.846 7.643 7.643 0 0 1 6.009-3.376L825.483 547.9c5.944-.325 11.529 3.491 13.469 9.188l153.414 451.26c1.281 3.822-.566 7.992-4.252 9.6l-504.586 217.595a13.537 13.537 0 0 1-5.353 1.101h.003zm347.943-685.004c-.152 0-.307.003-.462.01L254.21 578.99a3.935 3.935 0 0 0-3.092 1.736 3.954 3.954 0 0 0-.474 3.521l218.255 641.984a9.715 9.715 0 0 0 5.298 5.812 9.66 9.66 0 0 0 7.852.048l504.586-217.594a4.004 4.004 0 0 0 2.187-4.939L835.407 558.301a9.865 9.865 0 0 0-9.285-6.662v.003z"/><path fill="#3FB19A" d="M896.38 1311.575a1.725 1.725 0 0 1-.317-.027l-347.701-59.4a1.877 1.877 0 0 1-1.595-2.12 1.873 1.873 0 0 1 2.224-1.58l347.701 59.399a1.878 1.878 0 0 1 1.526 2.17 1.875 1.875 0 0 1-1.838 1.559zm41.13-25.327a1.861 1.861 0 0 1-.312-.025l-338.366-56.615a1.878 1.878 0 0 1-1.595-2.12 1.873 1.873 0 0 1 2.211-1.584l338.366 56.615a1.877 1.877 0 0 1 1.526 2.171 1.874 1.874 0 0 1-1.833 1.558h.003zm41.133-25.33c-.102 0-.205-.008-.305-.025l-329.036-53.832a1.878 1.878 0 0 1-1.548-2.156 1.873 1.873 0 0 1 2.149-1.553l329.036 53.833a1.877 1.877 0 0 1 1.543 2.159 1.873 1.873 0 0 1-1.84 1.572v.002zm41.132-25.33a1.97 1.97 0 0 1-.297-.022l-319.701-51.048a1.878 1.878 0 0 1-1.501-2.188 1.873 1.873 0 0 1 2.087-1.521l319.701 51.048a1.878 1.878 0 0 1 1.543 2.159 1.874 1.874 0 0 1-1.835 1.573h.003zm-20.945-34.98a1.88 1.88 0 0 1-.29-.023l-248.294-38.613a1.877 1.877 0 0 1-1.563-2.143 1.873 1.873 0 0 1 2.138-1.567l248.294 38.611a1.874 1.874 0 0 1 1.6 2.113 1.872 1.872 0 0 1-1.885 1.621zm42.141-24.902a1.836 1.836 0 0 1-.282-.02l-239.973-36.258a1.879 1.879 0 0 1-1.573-2.139 1.875 1.875 0 0 1 2.132-1.577l239.974 36.257a1.877 1.877 0 0 1 1.579 2.132 1.875 1.875 0 0 1-1.857 1.604zm43.854-24.644a1.659 1.659 0 0 1-.273-.02l-233.364-34.16a1.878 1.878 0 0 1-1.583-2.13 1.874 1.874 0 0 1 2.125-1.588l233.364 34.159a1.877 1.877 0 0 1 1.6 2.116 1.875 1.875 0 0 1-1.867 1.623h-.002zm99.472-16.788a1.84 1.84 0 0 1-.262-.017l-282.372-39.917a1.877 1.877 0 0 1-1.546-2.156 1.874 1.874 0 0 1 2.068-1.563l282.371 39.916a1.878 1.878 0 0 1 1.6 2.117 1.875 1.875 0 0 1-1.86 1.622v-.002zm41.132-25.33a1.744 1.744 0 0 1-.255-.017l-54.609-7.428a1.88 1.88 0 0 1-1.512-2.185 1.877 1.877 0 0 1 2.014-1.538l54.609 7.427a1.88 1.88 0 0 1 1.566 2.146 1.877 1.877 0 0 1-1.813 1.593v.002zm-109.216-14.855a1.744 1.744 0 0 1-.255-.017l-163.823-22.28a1.88 1.88 0 0 1-1.512-2.185 1.876 1.876 0 0 1 2.014-1.539l163.823 22.28a1.88 1.88 0 0 1 1.566 2.146 1.877 1.877 0 0 1-1.813 1.593v.002zm150.346-10.475c-.082 0-.164-.005-.245-.015l-263.707-34.35a1.877 1.877 0 0 1-1.559-2.146 1.873 1.873 0 0 1 2.042-1.577l263.706 34.35a1.877 1.877 0 0 1 1.6 2.116 1.875 1.875 0 0 1-1.84 1.622h.003z"/><path fill="#3FB19A" d="M548.679 1252.178a1.875 1.875 0 0 1-1.874-1.876 1.879 1.879 0 0 1 1.11-1.717l454.173-202.915a1.87 1.87 0 0 1 2.492.9 1.88 1.88 0 0 1-.969 2.531l-454.173 202.915a1.867 1.867 0 0 1-.762.163h.003zm69.541 11.878a1.875 1.875 0 0 1-1.876-1.875 1.879 1.879 0 0 1 1.072-1.701l437.374-207.923a1.87 1.87 0 0 1 2.494.892 1.881 1.881 0 0 1-.889 2.502l-437.373 207.922a1.869 1.869 0 0 1-.801.18v.003zm69.54 11.88a1.873 1.873 0 0 1-1.878-1.868 1.875 1.875 0 0 1 1.034-1.685l420.576-212.934a1.87 1.87 0 0 1 2.514.831 1.88 1.88 0 0 1-.829 2.522l-420.576 212.934a1.851 1.851 0 0 1-.841.203v-.003zm69.539 11.882a1.875 1.875 0 0 1-1.877-1.874 1.88 1.88 0 0 1 .988-1.66l403.776-217.941a1.87 1.87 0 0 1 2.537.764 1.882 1.882 0 0 1-.761 2.544l-403.777 217.941a1.855 1.855 0 0 1-.886.223v.003zm69.54 11.878a1.875 1.875 0 0 1-1.873-1.879c0-.671.358-1.292.938-1.627l386.979-222.953a1.87 1.87 0 0 1 2.556.694 1.881 1.881 0 0 1-.691 2.564l-386.979 222.953a1.879 1.879 0 0 1-.93.25v-.002zm69.541 11.88a1.878 1.878 0 0 1-1.867-1.889 1.882 1.882 0 0 1 .886-1.59l370.178-227.961a1.87 1.87 0 0 1 2.577.619 1.882 1.882 0 0 1-.617 2.584L897.36 1311.3a1.871 1.871 0 0 1-.979.278v-.003z"/></g><g style="display:block"><path fill="#3FB19A" d="m168.677 1471.944-79.795-51.474 53.495-250.329 26.3 301.803z"/><path fill="#005E4C" d="M168.676 1473.822a1.879 1.879 0 0 0 1.873-2.041l-26.3-301.802a1.88 1.88 0 0 0-3.711-.231l-53.494 250.329a1.88 1.88 0 0 0 .82 1.972l79.792 51.473a1.878 1.878 0 0 0 1.02.3zm-27.083-291.021 24.878 285.483-75.479-48.694 50.601-236.791v.002z"/><path fill="#005E4C" d="m88.882 1420.47 133.639-16.258-80.143-234.071-53.496 250.329z"/><path fill="#005E4C" d="m189.447 1474.089 432.087-63.322c6.358-.905 10.376-7.915 8.985-15.659l-64.883-361.484c-1.398-7.79-7.757-13.748-14.218-13.306l-444.406 27.264s-9.168 3.79-10.158 4.243c-5.569 2.553-9 8.416-7.684 15.594l72.038 393.225c1.411 7.71 7.672 13.357 14.456 13.442.63.007 13.783 0 13.783 0v.002z"/><path fill="#005E4C" d="m179.584 1475.97 9.865-.003a1.64 1.64 0 0 0 .271-.02l432.087-63.319c3.143-.449 5.97-2.202 7.95-4.94 2.509-3.47 3.461-8.178 2.612-12.911l-64.883-361.484c-1.561-8.691-8.795-15.378-16.199-14.847l-444.392 27.262a1.86 1.86 0 0 0-.604.14c-.376.155-9.213 3.808-10.226 4.274-6.714 3.077-10.148 9.999-8.75 17.64l72.038 393.226c1.547 8.443 8.547 14.885 16.284 14.982l3.943.003.005-.003zm9.725-3.76c-1.393 0-13.036.004-13.624 0-5.97-.076-11.402-5.192-12.63-11.901l-72.038-393.226c-1.098-5.983 1.439-11.171 6.62-13.546a916.975 916.975 0 0 1 9.804-4.096l444.092-27.247c5.564-.366 11.021 4.9 12.254 11.76l64.88 361.485c.672 3.735-.043 7.395-1.96 10.046-1.396 1.931-3.278 3.115-5.441 3.422l-431.96 63.303h.003z"/><path fill="#005E4C" d="m189.447 1473.963 448.814-63.885c6.429-.915 10.489-8.003 9.083-15.83l-65.589-365.425c-1.413-7.875-7.843-13.898-14.374-13.451l-456.195 31.15c-7.688.526-12.66 7.897-11.091 16.465l72.825 397.512c1.559 8.514 8.968 14.541 16.53 13.464h-.003z"/><path fill="#005E4C" d="M187.705 1475.966c.666 0 1.336-.048 2.005-.143l448.817-63.886c3.18-.454 6.032-2.225 8.03-4.986 2.534-3.505 3.496-8.255 2.64-13.036l-65.592-365.425c-1.574-8.777-8.88-15.486-16.352-14.992l-456.195 31.15a13.505 13.505 0 0 0-9.87 5.246c-2.777 3.572-3.85 8.469-2.94 13.431l72.825 397.512c1.599 8.734 8.825 15.131 16.635 15.131l-.003-.003zm1.476-3.864c-6.569.93-13.038-4.422-14.414-11.944l-72.825-397.511c-.717-3.911.09-7.722 2.211-10.448a9.796 9.796 0 0 1 7.158-3.803l456.198-31.148c5.559-.358 11.149 4.958 12.396 11.906l65.59 365.423c.679 3.78-.045 7.489-1.985 10.172-1.414 1.957-3.321 3.155-5.514 3.467l-448.815 63.889v-.003z"/><path fill="#3FB19A" d="M183.81 1475.364a1.879 1.879 0 0 0 .561-3.67c-4.83-1.516-8.599-6.043-9.607-11.535l-72.825-397.513c-1.027-5.609 1.034-10.735 5.249-13.058a1.88 1.88 0 1 0-1.815-3.292c-5.657 3.116-8.456 9.799-7.133 17.027l72.825 397.512c1.253 6.845 6.035 12.512 12.178 14.441a1.83 1.83 0 0 0 .564.088h.003z"/><path fill="#FFF" d="m192.966 1460.57 438.237-61.413c3.639-.511 5.942-4.512 5.146-8.942l-63.782-355.208c-.8-4.452-4.439-7.852-8.133-7.591l-445.014 31.35c-4.327.305-7.124 4.464-6.239 9.292l70.479 384.908c.88 4.798 5.047 8.203 9.308 7.606l-.002-.002z"/></g><g style="display:block"><path fill="#3FB19A" d="m544.102 1345.691 19.123-2.467-29.94-164.61-19.282 1.739 30.1 165.338z"/><path fill="#37FFB0" d="m524.848 1348.172 19.255-2.481-31.584-172.864-19.42 1.75 31.749 173.595z"/><path fill="#3FB19A" d="m476.725 1354.376 19.592-2.527-29.308-160.114-19.775 1.716 29.491 160.924z"/><path fill="#37FFB0" d="m456.99 1356.917 19.735-2.541-26.719-144.758-19.918 1.728 26.902 145.57z"/><path fill="#3FB19A" d="m407.666 1363.274 20.085-2.588-38.346-209.064-20.235 1.919 38.496 209.733z"/><path fill="#37FFB0" d="m387.439 1365.883 20.227-2.608-17.562-94.841-20.38 1.933 17.715 95.516z"/><path fill="#3FB19A" d="m336.867 1372.4 20.593-2.655-23.632-127.132-20.657 2.378 23.696 127.409z"/><path fill="#37FFB0" d="m316.122 1375.073 20.745-2.674-18.608-99.051-20.806 2.396 18.669 99.329z"/><path fill="#3FB19A" d="m264.258 1381.759 21.123-2.721-29.343-154.544-21.256 2.133 29.476 155.132z"/><path fill="#37FFB0" d="m242.98 1384.5 21.278-2.741-34.364-182.714-21.415 2.146 34.501 183.31z"/><path fill="#005E4C" d="M226.746 1388.47c.081 0 .162-.005.243-.015l350.876-45.225a1.876 1.876 0 0 0-.477-3.72l-350.877 45.225a1.876 1.876 0 0 0 .238 3.735h-.002z"/><path stroke-linecap="round" stroke-linejoin="round" stroke="#005D4B" stroke-width="3.75" d="m194.125 1115.624 206.3-17.831m-201.8 42.081 163.894-14.165" fill="none"/></g><g style="display:block"><path fill="#005E4C" d="M902.302 976.117c-5.543.375-11.717-5.016-14.324-12.665L720.734 472.481c-1.621-4.758-1.362-9.085.712-11.874 1.403-1.891 3.54-2.884 6.024-2.789l418.776 15.561c4.431.165 9.531 5.331 11.859 12.014l143.516 411.705c1.56 4.48 1.534 8.769-.07 11.469-.887 1.494-2.196 2.421-3.786 2.682l-394.719 64.78c-.246.04-.493.069-.742.086l-.002.003zm-175.45-514.535c-1.016.069-1.82.492-2.397 1.267-1.286 1.73-1.349 4.953-.169 8.417l167.245 490.971c2.075 6.096 7.063 10.716 10.903 10.087l394.719-64.78c.302-.051.754-.197 1.169-.896.768-1.295 1.165-4.25-.251-8.31l-143.514-411.706c-1.912-5.48-5.989-9.402-8.454-9.494l-418.775-15.56a4.495 4.495 0 0 0-.478.006l.002-.002zm570.606 447.814.025-.002-.024.002z"/><path fill="#FFF" d="m1152.927 565.996-233.192.617-10.568-30.748 234.052 2.243 9.707 27.888z"/><path fill="#005E4C" d="m1153.053 567.871-.12.006-233.189.617a1.88 1.88 0 0 1-1.781-1.269l-10.567-30.748a1.885 1.885 0 0 1 .25-1.709c.356-.494.94-.78 1.54-.78l234.052 2.243a1.877 1.877 0 0 1 1.756 1.26l9.707 27.888a1.88 1.88 0 0 1-1.648 2.492zm-231.978-3.142 229.214-.604-8.405-24.15-230.077-2.204 9.265 26.959h.003z"/><path fill="#3FB19A" d="m903.987 566.654-105.996.28-11.007-32.24 106.378 1.02 10.626 30.94z"/><path fill="#005E4C" d="m904.114 568.531-.12.005-105.993.28a1.877 1.877 0 0 1-1.782-1.27l-11.009-32.24a1.881 1.881 0 0 1 .253-1.708 1.823 1.823 0 0 1 1.54-.78l106.377 1.02a1.883 1.883 0 0 1 1.76 1.268l10.625 30.94a1.88 1.88 0 0 1-1.651 2.485zm-104.78-3.479 102.026-.27-9.342-27.202-102.399-.983 9.715 28.455zm226.359.76-105.958.801-10.568-30.748 106.532 1.116 9.994 28.83z"/><path fill="#FFF" d="m1174.694 628.547-231.254 7.04-10.593-30.826 232.119-4.165 9.728 27.951z"/><path fill="#005E4C" d="m1174.821 630.422-.07.005-231.252 7.04a1.877 1.877 0 0 1-1.831-1.267l-10.596-30.827a1.887 1.887 0 0 1 .237-1.69 1.92 1.92 0 0 1 1.504-.8l232.118-4.169a1.873 1.873 0 0 1 1.806 1.262l9.729 27.954a1.882 1.882 0 0 1-1.645 2.492zm-230.054 3.245 227.314-6.92-8.436-24.249-228.18 4.098 9.303 27.073-.001-.002z"/><path fill="#3FB19A" d="m927.822 636.063-105.134 3.2-11.037-32.326 105.52-1.895 10.65 31.021z"/><path fill="#005E4C" d="m927.951 637.938-.07.005-105.133 3.2a1.877 1.877 0 0 1-1.835-1.27l-11.038-32.326a1.89 1.89 0 0 1 .24-1.689c.343-.492.911-.769 1.503-.799l105.521-1.895a1.877 1.877 0 0 1 1.809 1.269l10.654 31.02a1.88 1.88 0 0 1-1.648 2.485h-.003zm-103.933-.595 101.204-3.08-9.38-27.315-101.579 1.824 9.757 28.573-.002-.002zm284.602-7.145-165.18 5.39-10.593-30.827 165.571-4.074 10.203 29.512z"/><path fill="#FFF" d="m1196.511 691.242-229.303 13.496-10.623-30.905 230.176-10.609 9.75 28.018z"/><path fill="#005E4C" d="m1196.639 693.118-.015.001-229.304 13.498a1.879 1.879 0 0 1-1.886-1.264l-10.62-30.905a1.875 1.875 0 0 1 .223-1.667 1.86 1.86 0 0 1 1.464-.823l230.176-10.609a1.873 1.873 0 0 1 1.859 1.261l9.75 28.018a1.872 1.872 0 0 1-1.645 2.492l-.003-.002zm-228.12 9.664 225.403-13.268-8.472-24.345L959.178 675.6l9.343 27.184-.003-.002z"/><path fill="#3FB19A" d="m951.718 705.65-104.268 6.138-11.066-32.412 104.655-4.825 10.679 31.1z"/><path fill="#005E4C" d="m951.845 707.525-.015.001-104.268 6.138a1.877 1.877 0 0 1-1.887-1.269l-11.069-32.414a1.885 1.885 0 0 1 1.688-2.485l104.656-4.825a1.877 1.877 0 0 1 1.861 1.268l10.68 31.099a1.877 1.877 0 0 1-1.649 2.487h.003zm-103.08 2.303 100.375-5.907-9.419-27.428-100.755 4.644 9.796 28.691h.003zm313.238-16.65-194.794 11.56-10.623-30.905 195.589-8.93 9.828 28.274z"/><path fill="#FFF" d="m1218.381 754.083-227.346 19.986-10.649-30.986 228.223-17.082 9.773 28.082z"/><path fill="#005E4C" d="M991.162 775.944a1.877 1.877 0 0 1-1.902-1.263l-10.648-30.983a1.873 1.873 0 0 1 .207-1.644 1.866 1.866 0 0 1 1.428-.84l228.223-17.085h.013a1.877 1.877 0 0 1 1.898 1.257l9.773 28.082a1.875 1.875 0 0 1-1.608 2.49l-227.347 19.984-.037.002zm-8.21-31.166 9.38 27.29 223.484-19.645-8.505-24.441-224.36 16.796z"/><path fill="#3FB19A" d="m975.676 775.419-103.396 9.087-11.097-32.5 103.787-7.768 10.706 31.18z"/><path fill="#005E4C" d="M872.408 786.383a1.883 1.883 0 0 1-1.904-1.268l-11.097-32.5a1.88 1.88 0 0 1 1.635-2.481l103.787-7.768h.012a1.877 1.877 0 0 1 1.902 1.265l10.707 31.18a1.887 1.887 0 0 1-1.611 2.485l-103.396 9.09-.037.003.002-.006zm-8.664-32.682 9.836 28.805 99.539-8.75-9.454-27.536-99.923 7.481h.002zm280.194 6.272-152.903 14.096-10.648-30.986 153.615-11.725 9.936 28.615z"/><path fill="#FFF" d="m1240.301 817.07-225.378 26.503-10.677-31.062 226.258-23.589 9.797 28.148z"/><path fill="#005E4C" d="M1015.05 845.45a1.877 1.877 0 0 1-1.902-1.262l-10.676-31.065a1.877 1.877 0 0 1 1.58-2.48l226.258-23.589c.92-.13 1.68.428 1.968 1.25l9.795 28.149a1.874 1.874 0 0 1-1.553 2.483l-225.376 26.503-.095.006v.005zm-8.258-31.313 9.415 27.398 221.551-26.053-8.537-24.534-222.429 23.189z"/><path fill="#3FB19A" d="M999.698 845.364 897.175 857.42l-11.126-32.586 102.914-10.73 10.735 31.259z"/><path fill="#005E4C" d="M897.302 859.295a1.877 1.877 0 0 1-1.902-1.268l-11.128-32.588a1.879 1.879 0 0 1 1.583-2.478l102.914-10.727a1.867 1.867 0 0 1 1.969 1.258l10.735 31.259a1.88 1.88 0 0 1-1.556 2.478l-102.521 12.057-.095.007v.002zm-8.715-32.839 9.874 28.921 98.704-11.608-9.495-27.641-99.085 10.33.002-.002zm170.398 11.866-44.062 5.251-10.676-31.062 44.273-4.545 10.465 30.356z"/></g><g style="display:block" stroke-linecap="round" stroke="#005D4B" stroke-width="3.75" fill="none"><path stroke-linejoin="round" d="m1071.014 242.184-108.578-14.762"/><path d="m678.202 341.809 155.9 12.172m-142.65 25.578 294.611 19.273"/></g><g mask="url(#e)" style="display:block"><path fill="#3FB19A" d="M798.128 315.304 664.95 303.047l-19.966-58.617 134.001 15.07 19.142 55.804z"/><path fill="#37FFB0" d="m945.336 328.853-118.333-10.892-18.963-55.194 119.081 13.394 18.214 52.692z"/><path fill="#37FFB0" d="M798.128 315.304 664.95 303.047l-19.966-58.617 134.001 15.07 19.142 55.804z" opacity=".896"/><path fill="#FFF" d="m945.336 328.853-118.333-10.892-18.963-55.194 119.081 13.394 18.214 52.692z"/><path fill="#3FB19A" d="M1108.128 347.304 974.95 335.047l-19.966-58.617 134.001 15.07 19.142 55.804z"/><path fill="#37FFB0" d="m1255.336 360.853-118.333-10.892-18.962-55.194 119.08 13.394 18.214 52.692z"/></g><g mask="url(#f)" style="display:block" fill="#3FB19A"><path d="m285.51 1064.445-217.907 35.762c-5.92.97-12.871-4.61-15.505-12.468l-26.548-79.25c-2.624-7.834.119-14.787 6.101-15.53l220.291-27.405c5.074-.632 11.144 4.67 13.58 11.839l24.635 72.536c2.443 7.19.37 13.687-4.647 14.51v.006zm545-82.001-217.907 35.763c-5.92.97-12.871-4.61-15.505-12.468l-26.548-79.25c-2.624-7.834.119-14.787 6.101-15.53l220.291-27.405c5.074-.632 11.145 4.67 13.58 11.839l24.635 72.536c2.443 7.19.37 13.687-4.647 14.51v.006zm-398.5 62.001-88.407 14.262c-5.92.97-12.871-4.61-15.505-12.468l-26.548-79.25c-2.624-7.834.119-14.787 6.101-15.53l88.291-11.155c5.074-.632 11.144 4.67 13.581 11.839l27.134 77.785c2.443 7.191.37 13.687-4.647 14.511v.005zm129.5-21.5-76.907 12.512c-5.92.97-12.871-4.61-15.505-12.468l-26.798-73.5c-2.624-7.834.119-14.787 6.101-15.53l79.541-9.905c5.074-.632 11.144 4.67 13.58 11.839l24.635 72.536c2.443 7.19.37 13.687-4.647 14.51v.006z"/></g><path fill="#005E4C" d="M11.908 696.148c-13.773.931-28.901-11.567-34.659-28.757L-469.654-666.63c-3.217-9.597-2.436-18.289 2.14-23.842 3.673-4.447 9.35-6.408 16.018-5.513l474.235 63.491c12.378 1.654 26.175 15.032 31.412 30.454L469.437 620.8c3.282 9.658 2.821 19.171-1.225 25.442a15.435 15.435 0 0 1-11.671 7.168L12.506 696.097l-.598.051zM-455.465-688.645c-2.212.15-4.555.896-6.257 2.96-2.847 3.452-3.152 9.686-.814 16.67L-15.633 665.006c4.619 13.787 17.164 24.51 27.418 23.616l444.04-42.687.359 3.742-.359-3.742c2.582-.25 4.629-1.514 6.082-3.762 2.77-4.296 2.932-11.554.425-18.949L47.045-599.621c-4.252-12.51-15.835-24.153-25.302-25.422l-474.236-63.491a15.073 15.073 0 0 0-2.972-.116v.005z" transform="matrix(.5 0 0 .5 552.736 509.942)" style="display:block"/><path fill="#005E4C" d="M384.433 248.261a9.487 9.487 0 0 0-2.477-3.913c-1.139-1.086-2.782-2.13-4.93-3.136-2.152-1.009-3.872-1.915-5.145-2.713-4.251-2.641-7.121-6.169-8.604-10.584-1.002-2.989-1.067-5.357-.194-7.106.872-1.75 2.547-2.649 5.025-2.699l-1.97-5.871 3.594.43 1.987 5.918c2.748.754 5.2 2.31 7.352 4.671 2.148 2.356 3.812 5.288 4.992 8.794l-5.405-.616c-.76-2.259-1.776-4.087-3.054-5.482-1.284-1.398-2.646-2.182-4.097-2.35-1.436-.166-2.404.17-2.9 1.01-.497.842-.452 2.132.132 3.876a9.173 9.173 0 0 0 2.469 3.899c1.116 1.034 2.776 2.08 4.97 3.14 2.194 1.057 3.956 2.007 5.285 2.847a22.883 22.883 0 0 1 3.573 2.767 18.625 18.625 0 0 1 2.782 3.373c.806 1.244 1.477 2.67 2.018 4.284 1.017 3.025 1.072 5.394.17 7.113-.907 1.719-2.679 2.604-5.32 2.657l1.766 5.255-3.557-.37-1.756-5.235c-3.093-.708-5.8-2.227-8.124-4.559-2.323-2.334-4.088-5.286-5.287-8.857l5.476.6c.76 2.269 1.826 4.075 3.193 5.42 1.365 1.341 2.914 2.105 4.647 2.29 1.701.181 2.828-.174 3.382-1.066s.56-2.152.01-3.785l-.003-.002zm25.774 2.803a9.44 9.44 0 0 0-2.45-3.88c-1.124-1.074-2.742-2.11-4.858-3.104-2.117-1-3.811-1.898-5.066-2.69-4.188-2.614-7.02-6.112-8.49-10.488-.996-2.964-1.067-5.315-.216-7.05.851-1.735 2.494-2.63 4.928-2.682l-1.956-5.821 3.533.424 1.972 5.869c2.704.746 5.119 2.286 7.241 4.626 2.122 2.335 3.765 5.24 4.934 8.72l-5.314-.605c-.753-2.24-1.758-4.053-3.021-5.437-1.265-1.386-2.609-2.161-4.035-2.326-1.413-.163-2.361.169-2.845 1.003-.488.837-.439 2.117.142 3.846.521 1.549 1.333 2.838 2.439 3.866 1.1 1.023 2.736 2.06 4.896 3.109s3.894 1.987 5.205 2.818a22.764 22.764 0 0 1 3.522 2.74 18.337 18.337 0 0 1 2.744 3.343 18.8 18.8 0 0 1 1.998 4.247c1.008 3 1.074 5.352.191 7.056-.885 1.708-2.623 2.586-5.218 2.641l1.753 5.211-3.496-.361-1.746-5.191c-3.042-.699-5.707-2.204-8.001-4.515-2.291-2.311-4.036-5.24-5.224-8.78l5.385.587c.757 2.25 1.808 4.04 3.158 5.372 1.344 1.328 2.872 2.086 4.575 2.267 1.673.179 2.778-.175 3.323-1.06.54-.883.543-2.134-.003-3.755zm25.335 2.755a9.427 9.427 0 0 0-2.42-3.847c-1.108-1.065-2.703-2.09-4.786-3.077-2.086-.989-3.752-1.876-4.989-2.662-4.125-2.589-6.92-6.056-8.38-10.398-.99-2.939-1.066-5.269-.237-6.993.828-1.723 2.441-2.61 4.836-2.665l-1.943-5.772 3.474.415 1.96 5.82c2.66.737 5.038 2.264 7.132 4.583 2.093 2.314 3.717 5.196 4.881 8.646l-5.225-.596c-.747-2.223-1.744-4.019-2.988-5.389-1.249-1.372-2.57-2.141-3.974-2.303-1.39-.162-2.32.172-2.794.998-.476.828-.425 2.1.152 3.814.518 1.537 1.32 2.815 2.412 3.833 1.087 1.014 2.694 2.04 4.823 3.079 2.13 1.039 3.836 1.969 5.126 2.79a22.439 22.439 0 0 1 3.47 2.717 18.346 18.346 0 0 1 2.709 3.312c.787 1.223 1.444 2.625 1.978 4.211 1.001 2.976 1.074 5.307.212 7-.864 1.694-2.57 2.567-5.12 2.624l1.739 5.169-3.438-.358-1.733-5.146c-2.991-.692-5.618-2.182-7.88-4.47-2.259-2.291-3.983-5.193-5.166-8.704l5.294.578c.75 2.23 1.791 4.005 3.122 5.327 1.325 1.316 2.828 2.066 4.504 2.246 1.645.175 2.73-.174 3.26-1.054.527-.877.526-2.117-.016-3.723l.005-.005zm-23.372 85.914-4.771-.378-9.43-28.098-6.11 2.302-1.647-4.909 9.587-4.008.609.054 11.762 35.037zm23.494-12.314c1.673 4.975 2.176 8.665 1.511 11.07-.667 2.409-2.556 3.491-5.663 3.244-3.062-.243-5.789-1.663-8.177-4.264s-4.425-6.339-6.096-11.206l-2.023-6.023c-1.68-5.002-2.172-8.686-1.474-11.049.698-2.362 2.615-3.393 5.752-3.108 3.107.282 5.827 1.703 8.163 4.265 2.336 2.56 4.333 6.256 5.997 11.086l2.013 5.987-.003-.002zm-6.886-6.865c-1.092-3.251-2.259-5.669-3.495-7.245-1.235-1.582-2.643-2.441-4.23-2.583-1.547-.139-2.446.477-2.692 1.852-.245 1.376.124 3.588 1.109 6.638l2.644 7.876c1.09 3.249 2.274 5.697 3.552 7.349 1.278 1.651 2.705 2.54 4.289 2.666 1.518.123 2.388-.52 2.622-1.93.233-1.41-.158-3.674-1.17-6.798l-2.631-7.825h.003zm29.25 8.748c1.663 4.938 2.169 8.6 1.523 10.99-.651 2.392-2.507 3.467-5.566 3.224-3.016-.238-5.707-1.648-8.067-4.229-2.36-2.58-4.376-6.288-6.037-11.118l-2.01-5.977c-1.67-4.965-2.165-8.623-1.486-10.967.68-2.344 2.564-3.373 5.656-3.092 3.061.277 5.743 1.688 8.049 4.227 2.309 2.541 4.286 6.207 5.939 11.003l2 5.942-.001-.003zm-6.801-6.813c-1.086-3.229-2.242-5.624-3.464-7.192s-2.612-2.42-4.174-2.56c-1.524-.136-2.408.477-2.645 1.841-.236 1.365.133 3.562 1.113 6.59l2.628 7.816c1.083 3.224 2.256 5.654 3.518 7.293 1.262 1.64 2.671 2.52 4.232 2.645 1.496.12 2.35-.518 2.575-1.92.224-1.401-.167-3.647-1.171-6.746l-2.615-7.769.003.002zm38.384 9.47c1.647 4.885 2.158 8.51 1.535 10.875-.627 2.368-2.437 3.432-5.433 3.195-2.953-.235-5.59-1.626-7.91-4.179-2.32-2.553-4.309-6.22-5.954-10.999l-1.993-5.915c-1.654-4.913-2.154-8.531-1.498-10.853.655-2.322 2.495-3.34 5.521-3.066 2.996.272 5.628 1.664 7.896 4.178 2.269 2.511 4.22 6.139 5.858 10.885l1.983 5.878h-.005zm-6.684-6.736c-1.077-3.195-2.218-5.566-3.419-7.115-1.203-1.55-2.565-2.393-4.094-2.528-1.492-.133-2.353.473-2.58 1.824-.227 1.352.145 3.526 1.115 6.52l2.605 7.732c1.074 3.19 2.232 5.593 3.475 7.216s2.624 2.49 4.153 2.615c1.463.117 2.298-.517 2.51-1.9.212-1.383-.178-3.61-1.176-6.676l-2.591-7.686.002-.002zm11.047 4.64-4.295-16.957 14.487 1.313 1.641 4.862-10.723-.956 1.985 8.025c.947-.792 2.204-1.118 3.771-.983 2.561.224 4.903 1.425 7.016 3.6 2.109 2.175 3.75 5 4.923 8.474 1.157 3.43 1.297 6.096.412 7.998-.882 1.908-2.696 2.754-5.442 2.538-2.461-.195-4.804-1.237-7.027-3.128-2.222-1.892-3.89-4.293-5.001-7.194l4.364.36c.727 1.659 1.62 2.96 2.684 3.898 1.06.938 2.205 1.455 3.439 1.555 1.38.113 2.244-.42 2.596-1.594.35-1.174.165-2.832-.556-4.963-.693-2.057-1.669-3.722-2.921-4.991-1.255-1.271-2.629-1.97-4.12-2.097-.815-.071-1.462.006-1.939.229-.476.223-.918.7-1.32 1.435l-3.979-1.423.005-.001zm38.46 5.702c1.627 4.818 2.146 8.389 1.553 10.722-.595 2.336-2.347 3.386-5.255 3.155-2.868-.228-5.436-1.596-7.703-4.11-2.27-2.516-4.217-6.128-5.842-10.835l-1.967-5.83c-1.634-4.842-2.142-8.409-1.518-10.699.623-2.29 2.401-3.296 5.341-3.03 2.91.263 5.471 1.634 7.688 4.108 2.216 2.475 4.13 6.05 5.749 10.724l1.957 5.795h-.003zm-6.526-6.633c-1.063-3.148-2.184-5.485-3.358-7.008-1.177-1.528-2.505-2.355-3.989-2.488-1.449-.13-2.281.47-2.495 1.801-.213 1.33.162 3.474 1.122 6.426l2.575 7.621c1.06 3.143 2.199 5.512 3.413 7.11 1.214 1.598 2.561 2.452 4.044 2.572 1.42.115 2.228-.512 2.427-1.877.198-1.364-.196-3.558-1.18-6.58l-2.559-7.574v-.003zm35.024 11.113 3.216.267 1.501 4.437-3.213-.263 2.498 7.384-4.32-.344-2.502-7.395-11.254-.921-1.274-3.4 3.648-21.508 4.478.406 7.222 21.335v.003zm-11.135-.93 6.808.57-4.692-13.867-.076.7-2.04 12.6v-.003zm33.183.705c1.605 4.734 2.128 8.244 1.573 10.537-.557 2.295-2.24 3.333-5.05 3.111-2.769-.219-5.255-1.56-7.459-4.028s-4.109-6.019-5.711-10.644l-1.94-5.725c-1.611-4.756-2.123-8.262-1.538-10.517s2.294-3.244 5.13-2.986c2.81.254 5.29 1.598 7.444 4.027 2.156 2.428 4.029 5.941 5.621 10.534l1.93 5.694v-.003zm-6.343-6.512c-1.046-3.094-2.145-5.388-3.29-6.885-1.144-1.5-2.431-2.312-3.864-2.441-1.398-.124-2.198.465-2.393 1.774-.195 1.309.18 3.416 1.126 6.318l2.536 7.488c1.046 3.088 2.159 5.415 3.341 6.984 1.183 1.57 2.488 2.407 3.921 2.523 1.372.11 2.146-.506 2.328-1.85.183-1.343-.212-3.5-1.182-6.468l-2.523-7.443zm26.57 8.214c1.595 4.699 2.119 8.184 1.581 10.463-.543 2.282-2.2 3.31-4.968 3.091-2.73-.217-5.184-1.548-7.364-3.998-2.18-2.449-4.069-5.972-5.659-10.566l-1.927-5.686c-1.601-4.724-2.118-8.205-1.546-10.443.57-2.239 2.253-3.224 5.047-2.971 2.769.253 5.219 1.584 7.348 3.994 2.132 2.41 3.988 5.896 5.571 10.46l1.917 5.651v.005zm-6.269-6.463c-1.04-3.071-2.13-5.35-3.261-6.836-1.134-1.488-2.402-2.293-3.816-2.421-1.378-.123-2.163.463-2.354 1.764-.19 1.3.187 3.392 1.129 6.272l2.52 7.434c1.04 3.067 2.142 5.378 3.313 6.933 1.17 1.556 2.458 2.388 3.871 2.504 1.352.109 2.113-.505 2.289-1.838.176-1.333-.22-3.473-1.184-6.422l-2.507-7.39z" style="display:block"/><g mask="url(#g)" style="display:block"><path stroke-linecap="round" stroke="#005E4C" stroke-width="3.75" d="m418.966 799.581 93.75-6.875" fill="none"/><path fill="#005E4C" d="m399.093 823.434-55.555 4.51-14.974-44.617 55.8-3.642 14.729 43.749z"/><path stroke-linecap="round" stroke="#005E4C" stroke-width="3.75" d="m383.59 695.331 94.626-3.375" fill="none"/><path fill="#FFF" d="m363.579 717.947-56.145 2.42-14.914-44.44 56.386-1.56 14.673 43.58z"/><path stroke-linecap="round" stroke="#005E4C" stroke-width="3.75" d="m348.466 591.331 96-.125" fill="none"/><path fill="#FFF" d="m328.2 612.867-56.729.347-14.857-44.265 56.97.508 14.616 43.41z"/><path stroke-linecap="round" stroke="#005E4C" stroke-width="3.75" d="m313.716 487.581 96.75 3.625" fill="none"/><path fill="#3FB19A" d="m292.959 508.195-57.31-1.71-14.797-44.089 57.55 2.555 14.557 43.244z"/><path stroke-linecap="round" stroke="#005E4C" stroke-width="3.75" d="m641.966 784.081 93.75-6.875" fill="none"/><path fill="#005E4C" d="m622.093 807.934-55.554 4.51-14.974-44.617 55.798-3.642 14.73 43.749z"/><path stroke-linecap="round" stroke="#005E4C" stroke-width="3.75" d="m606.59 679.831 94.625-3.375" fill="none"/><path fill="#FFF" d="m586.578 702.447-56.145 2.42-14.914-44.44 56.386-1.56 14.673 43.58z"/><path stroke-linecap="round" stroke="#005E4C" stroke-width="3.75" d="m571.466 575.831 96-.125" fill="none"/><path fill="#FFF" d="m551.2 597.367-56.729.347-14.857-44.265 56.97.508 14.616 43.41z"/><path stroke-linecap="round" stroke="#005E4C" stroke-width="3.75" d="m536.716 472.081 96.75 3.625" fill="none"/><path fill="#3FB19A" d="m515.959 492.695-57.31-1.71-14.797-44.089 57.55 2.555 14.557 43.244z"/><path stroke-linecap="round" stroke="#005E4C" stroke-width="3.75" d="m869.965 767.081 93.75-6.875" fill="none"/><path fill="#FFF" d="m850.093 790.934-55.554 4.51-14.974-44.617 55.798-3.642 14.73 43.749z"/><path stroke-linecap="round" stroke="#005E4C" stroke-width="3.75" d="m834.59 662.831 94.625-3.375" fill="none"/><path fill="#3FB19A" d="m814.578 685.447-56.145 2.42-14.914-44.44 56.386-1.56 14.673 43.58z"/><path stroke-linecap="round" stroke="#005E4C" stroke-width="3.75" d="m799.465 558.831 96-.125" fill="none"/><path fill="#FFF" d="m779.2 580.367-56.729.347-14.858-44.265 56.97.508 14.617 43.41z"/><path stroke-linecap="round" stroke="#005E4C" stroke-width="3.75" d="m764.715 455.081 96.75 3.625" fill="none"/><path fill="#005E4C" d="m743.959 475.695-57.31-1.71-14.797-44.089 57.55 2.555 14.557 43.244z"/></g><g clip-path="url(#h)" style="display:block"/></g></svg>