<svg xmlns="http://www.w3.org/2000/svg" xmlns:xlink="http://www.w3.org/1999/xlink" viewBox="0 0 1600 1600" width="1600" height="1600" style="width:100%;height:100%;transform:translate3d(0,0,0);content-visibility:visible"><defs><mask id="i" mask-type="alpha"><use xlink:href="#a"/></mask><mask id="h" mask-type="alpha"><use xlink:href="#b"/></mask><mask id="g" mask-type="alpha"><use xlink:href="#c"/></mask><mask id="k" mask-type="alpha"><use xlink:href="#d"/></mask><g style="display:block" id="a"><path fill="#FFF" d="M2509.834 1814.705c-17.522-11.433-36.532-20.695-56.62-27.915-124.97-44.847-291.533-9.097-399.54 93.026-125.363 118.534-124.394 281.577 2.165 364.152 84.92 55.409 204.792 60.524 312.382 22.088 52.729-18.866 102.51-48.18 143.778-87.2 19.753-18.676 36.385-38.449 49.878-58.863 72.057-109.04 54.575-235.723-52.043-305.288zm-45.542 333.024c-32.658 30.879-72.089 54.052-113.864 68.977-85.183 30.447-180.093 26.45-247.332-17.42-100.207-65.382-100.951-194.475-1.69-288.327 85.519-80.861 217.328-109.128 316.29-73.596 15.92 5.693 30.987 12.995 44.86 22.046 84.418 55.08 98.286 155.356 41.209 241.7-10.7 16.17-23.833 31.833-39.473 46.62z"/><path stroke-linecap="round" stroke-linejoin="round" fill-opacity="0" stroke="#111" stroke-width="2" d="M1002.993 276.297c-17.012-12.82-35.604-23.424-55.361-31.93-122.917-52.844-290.867-22.823-403.184 79.659C414.081 442.977 408.006 614.478 530.88 707.07c82.447 62.129 201.985 72.959 311.135 37.432 53.494-17.442 104.495-46.005 147.41-85.162 20.541-18.742 38.012-38.779 52.374-59.633 76.7-111.39 64.707-245.407-38.806-323.41zm-59.886 348.14C909.146 655.424 868.751 678 826.37 691.796c-86.418 28.145-181.067 19.626-246.347-29.566-97.289-73.312-92.456-209.101 10.766-303.284 88.932-81.145 221.839-104.877 319.173-63.011 15.66 6.71 30.397 15.074 43.865 25.223 81.96 61.761 91.484 167.843 30.73 256.048-11.388 16.517-25.186 32.392-41.45 47.231z" transform="matrix(.99907 -.0432 .04104 .94915 1496.435 1595.787)"/></g><g style="display:block" id="b"><path fill="#B0C3FF" d="M2527.544 1853.878c-16.685-12.509-36.533-20.695-56.62-27.915-124.972-44.847-291.534-9.097-399.54 93.026-77.96 73.713-87.657 150.487-68.085 228.57 11.902 47.477 43.476 86.679 95.24 111.68 75.772 36.596 166.54 55.52 274.13 17.085 52.728-18.866 97.925-38.472 139.193-77.492 19.753-18.677 25.888-26.584 39.38-46.998 72.058-109.04 53.894-239.783-23.698-297.956zm-45.543 333.024c-32.658 30.879-72.089 54.052-113.864 68.977-85.183 30.447-180.094 26.45-247.332-17.42-100.207-65.381-100.951-194.474-1.69-288.327 85.519-80.861 217.328-109.128 316.29-73.596 15.92 5.693 30.987 12.995 44.86 22.046 84.418 55.08 98.286 155.356 41.209 241.7-10.7 16.17-23.834 31.833-39.473 46.62z"/><path stroke-linecap="round" stroke-linejoin="round" fill-opacity="0" stroke="#111" stroke-width="2" d="M1018.994 318.297c-16.129-13.913-35.605-23.424-55.362-31.93-122.917-52.844-290.867-22.823-403.184 79.659-81.071 73.972-94.075 154.267-77.894 237.269 9.839 50.469 39.69 93.13 90.326 121.775C647 767 736.865 791.029 846.015 755.502c53.494-17.442 99.495-36.005 142.41-75.162 20.541-18.742 27.012-26.779 41.374-47.633 76.7-111.39 64.201-249.707-10.805-314.41zm-59.887 348.14C925.146 697.424 884.751 720 842.37 733.796c-86.418 28.145-181.067 19.626-246.347-29.566-97.289-73.312-92.456-209.101 10.766-303.284 88.932-81.145 221.839-104.877 319.173-63.011 15.66 6.71 30.397 15.074 43.865 25.223 81.96 61.761 91.484 167.843 30.73 256.048-11.388 16.517-25.186 32.392-41.45 47.231z" transform="matrix(.99907 -.0432 .04104 .94915 1496.435 1595.787)"/></g><g style="display:block" id="c"><path fill="#B0C3FF" d="M2527.544 1853.878c-17.522-11.433-36.533-20.695-56.62-27.915-124.972-44.847-291.534-9.097-399.54 93.026-77.96 73.713-107.064 164.639-87.491 242.721 11.9 47.479 41.8 90.207 89.655 121.432 84.92 55.408 204.792 60.523 312.382 22.087 52.729-18.866 102.51-48.18 143.778-87.2 19.752-18.676 36.385-38.449 49.878-58.863 72.057-109.039 54.576-235.723-52.042-305.288zm-45.543 333.024c-32.658 30.879-72.089 54.052-113.864 68.977-85.183 30.447-180.094 26.45-247.332-17.42-100.207-65.381-141.545-225.203-43.09-319.82 96.304-92.548 261.343-132.902 360.305-97.37 15.92 5.693 55.443 46.17 69.315 55.222 84.419 55.08 71.216 177.447 14.139 263.791-10.7 16.17-23.834 31.833-39.473 46.62z"/><path stroke-linecap="round" stroke-linejoin="round" fill-opacity="0" stroke="#111" stroke-width="2" d="M1018.994 318.297c-17.012-12.82-35.605-23.424-55.362-31.93-122.917-52.844-290.867-22.823-403.184 79.659-81.071 73.972-114.075 168.267-97.894 251.269 9.839 50.47 37.864 96.763 84.326 131.775 82.447 62.129 201.985 72.959 311.135 37.432 53.494-17.442 104.495-46.005 147.41-85.162 20.54-18.742 38.012-38.779 52.374-59.633 76.7-111.39 64.708-245.407-38.805-323.41zm-59.887 348.14C925.146 697.424 884.751 720 842.37 733.796c-86.418 28.145-181.067 19.626-246.347-29.566-97.289-73.312-131.684-243.261-29.234-338.284C667 273 833.628 238.069 930.962 279.935c15.66 6.71 53.397 51.074 66.865 61.223 81.96 61.761 63.484 189.843 2.73 278.048-11.388 16.517-25.186 32.392-41.45 47.231z" transform="matrix(.99907 -.0432 .04104 .94915 1496.435 1595.787)"/></g><clipPath id="e"><path d="M0 0h1600v1600H0z"/></clipPath><clipPath id="f"><path d="M0 0h3000v3000H0z"/></clipPath><linearGradient id="j" spreadMethod="pad" gradientUnits="userSpaceOnUse" x1="-47.559" y1="415.483" x2="92.995" y2="-715.356"><stop offset="0%" stop-color="#111"/><stop offset="23%" stop-color="#233569"/><stop offset="46%" stop-color="#3658C1"/><stop offset="59%" stop-color="#3658C1"/><stop offset="72%" stop-color="#3658C1"/><stop offset="86%" stop-color="#738EE0"/><stop offset="100%" stop-color="#B0C3FF"/></linearGradient><path fill="#111" d="m573-582-228 38-122 179s131 87 134 89 94-61 94-61l122-245z" transform="matrix(.99974 .02286 -.0222 .97059 1522.068 1431.671)" style="display:block" id="d"/></defs><g clip-path="url(#e)"><g clip-path="url(#f)" transform="translate(.005 .005) scale(.53333)" style="display:block"><g style="display:block"><path fill="#B0C3FF" d="M2527.543 1853.878c-17.522-11.433-36.532-20.695-56.62-27.915-124.971-44.847-291.533-9.097-399.54 93.026-125.364 118.534-124.394 281.577 2.165 364.153 84.92 55.408 204.792 60.523 312.382 22.087 52.729-18.866 102.51-48.18 143.778-87.2 19.752-18.676 36.385-38.449 49.878-58.863 72.057-109.039 54.575-235.723-52.043-305.288zm-45.542 333.024c-32.658 30.879-72.089 54.052-113.864 68.977-85.183 30.447-180.094 26.45-247.332-17.42-100.207-65.381-100.951-194.474-1.69-288.327 85.519-80.861 217.328-109.128 316.29-73.596 15.92 5.693 30.987 12.995 44.86 22.046 84.418 55.08 98.286 155.356 41.209 241.7-10.7 16.17-23.834 31.833-39.473 46.62z"/><path stroke-linecap="round" stroke-linejoin="round" stroke="#111" stroke-width="2" d="M1018.993 318.297c-17.012-12.82-35.604-23.424-55.361-31.93-122.917-52.844-290.867-22.823-403.184 79.659C430.081 484.977 424.006 656.478 546.88 749.07c82.447 62.129 201.985 72.959 311.135 37.432 53.494-17.442 104.495-46.005 147.41-85.162 20.54-18.742 38.012-38.779 52.374-59.633 76.7-111.39 64.707-245.407-38.806-323.41zm-59.886 348.14C925.146 697.424 884.751 720 842.37 733.796c-86.418 28.145-181.067 19.626-246.347-29.566-97.289-73.312-92.456-209.101 10.766-303.284 88.932-81.145 221.839-104.877 319.173-63.011 15.66 6.71 30.397 15.074 43.865 25.223 81.96 61.761 91.484 167.843 30.73 256.048-11.388 16.517-25.186 32.392-41.45 47.231z" fill="none" transform="matrix(.99907 -.0432 .04104 .94915 1496.435 1595.787)"/></g><g mask="url(#g)" style="display:block"><path fill="#3658C1" d="m2531.89 2249.303 146.13-113.325-29.33-431.813-188.415 164.516-180.131 157.639 149.24 107.85 70.167 56.77 32.338 58.362z"/><path stroke-linecap="round" stroke-linejoin="round" stroke="#111" stroke-width="2" d="M-108.102 39.643 76.207 1.426l182.82-417.26L12.49-349.359l-235.871 63.886 80.11 169.983 34.732 85.587.436 69.545z" fill="none" transform="matrix(.88812 -.44028 .45942 .84197 2609.685 2168.33)"/><path fill="#111" d="m2354.602 1679.413-17.611 18.628-25.892 184.462-30.954 143.817 196.183-148.616 53.689-40.771 83.525-63.43-159.191-57.845-99.749-36.245z"/><path stroke-linecap="round" stroke-linejoin="round" stroke="#111" stroke-width="2" d="m10.364-231.172-24.616 9.252L-126.4-61.48l-96.98 120.098L22.353 10.606 89.651-2.627l104.697-20.587-113.11-127.849-70.874-80.109z" fill="none" transform="matrix(.88812 -.44028 .45942 .84197 2451.603 1878.616)"/></g><path stroke-linecap="round" stroke-linejoin="round" stroke="#111" stroke-width="2" d="M1018.993 318.297c-17.012-12.82-35.604-23.424-55.361-31.93-122.917-52.844-290.867-22.823-403.184 79.659C430.081 484.977 424.006 656.478 546.88 749.07c82.447 62.129 201.985 72.959 311.135 37.432 53.494-17.442 104.495-46.005 147.41-85.162 20.54-18.742 38.012-38.779 52.374-59.633 76.7-111.39 64.707-245.407-38.806-323.41zm-59.886 348.14C925.146 697.424 884.751 720 842.37 733.796c-86.418 28.145-181.067 19.626-246.347-29.566-97.289-73.312-92.456-209.101 10.766-303.284 88.932-81.145 221.839-104.877 319.173-63.011 15.66 6.71 30.397 15.074 43.865 25.223 81.96 61.761 91.484 167.843 30.73 256.048-11.388 16.517-25.186 32.392-41.45 47.231z" fill="none" transform="matrix(.99907 -.0432 .04104 .94915 1496.435 1595.787)" style="display:block"/><g mask="url(#h)" style="display:block"><path fill="#3658C1" d="m2531.89 2249.303 146.13-113.325-29.33-431.813-188.415 164.516-180.131 157.639 149.24 107.85 18.441 14.92 51.726 41.85 32.338 58.362z"/><path stroke-linecap="round" stroke-linejoin="round" stroke="#111" stroke-width="2" d="M-108.102 39.643 76.207 1.426l182.82-417.26L12.49-349.359l-235.871 63.886 80.11 169.983 9.128 22.493 25.604 63.094.436 69.545z" fill="none" transform="matrix(.88812 -.44028 .45942 .84197 2609.685 2168.33)"/><path fill="#111" d="m2354.602 1679.413-17.611 18.628-17.279 123.82 19.803 36.41-59.37 168.05 235.742-88.967-35.282-62.702 49.412-37.72 83.525-63.429-159.191-57.845-99.749-36.245z"/><path stroke-linecap="round" stroke-linejoin="round" stroke="#111" stroke-width="2" d="m10.364-231.172-24.616 9.252-75.19 107.743-.057 43.213L-223.38 58.618 28.567 84.701 27.62 9.735 89.651-2.627l104.697-20.587-113.11-127.849-70.874-80.109z" fill="none" transform="matrix(.88812 -.44028 .45942 .84197 2451.603 1878.616)"/></g><path stroke-linecap="round" stroke-linejoin="round" stroke="#111" stroke-width="2" d="M1018.993 318.297c-17.012-12.82-35.604-23.424-55.361-31.93-122.917-52.844-290.867-22.823-403.184 79.659-130.367 118.951-125.442 249.452-2.568 342.044 82.447 62.129 162.985 44.959 272.135 9.432 53.494-17.442 79.495-19.005 122.41-58.162 20.541-18.742 38.012-38.779 52.374-59.633 76.7-111.39 117.707-203.407 14.194-281.41zm-59.886 348.14C925.146 697.424 884.751 720 842.37 733.796c-86.418 28.145-181.067 19.626-246.347-29.566-97.289-73.312-92.456-209.101 10.766-303.284 88.932-81.145 221.839-104.877 319.173-63.011 15.66 6.71 30.397 15.074 43.865 25.223 81.96 61.761 91.484 167.843 30.73 256.048-11.388 16.517-25.186 32.392-41.45 47.231z" fill="none" transform="matrix(.99907 -.0432 .04104 .94915 1496.435 1595.787)" style="display:block"/><g style="display:block"><path fill="#FFF" d="M2509.834 1814.705c-17.522-11.433-36.532-20.695-56.62-27.915-124.97-44.847-291.533-9.097-399.54 93.026-125.363 118.534-124.394 281.577 2.165 364.152 84.92 55.409 204.792 60.524 312.382 22.088 52.729-18.866 102.51-48.18 143.778-87.2 19.753-18.676 36.385-38.449 49.878-58.863 72.057-109.04 54.575-235.723-52.043-305.288zm-45.542 333.024c-32.658 30.879-72.089 54.052-113.864 68.977-85.183 30.447-180.093 26.45-247.332-17.42-100.207-65.382-100.951-194.475-1.69-288.327 85.519-80.861 217.328-109.128 316.29-73.596 15.92 5.693 30.987 12.995 44.86 22.046 84.418 55.08 98.286 155.356 41.209 241.7-10.7 16.17-23.833 31.833-39.473 46.62z"/><path stroke-linecap="round" stroke-linejoin="round" stroke="#111" stroke-width="2" d="M1002.993 276.297c-17.012-12.82-35.604-23.424-55.361-31.93-122.917-52.844-290.867-22.823-403.184 79.659C414.081 442.977 408.006 614.478 530.88 707.07c82.447 62.129 201.985 72.959 311.135 37.432 53.494-17.442 104.495-46.005 147.41-85.162 20.541-18.742 38.012-38.779 52.374-59.633 76.7-111.39 64.707-245.407-38.806-323.41zm-59.886 348.14C909.146 655.424 868.751 678 826.37 691.796c-86.418 28.145-181.067 19.626-246.347-29.566-97.289-73.312-92.456-209.101 10.766-303.284 88.932-81.145 221.839-104.877 319.173-63.011 15.66 6.71 30.397 15.074 43.865 25.223 81.96 61.761 91.484 167.843 30.73 256.048-11.388 16.517-25.186 32.392-41.45 47.231z" fill="none" transform="matrix(.99907 -.0432 .04104 .94915 1496.435 1595.787)"/></g><g mask="url(#i)" style="display:block"><path fill="#B0C3FF" d="m2697.988 2429.93-49.3-725.766-188.413 164.517-180.131 157.64 149.24 107.85 91.022 73.74 177.582 222.018z"/><path stroke-linecap="round" stroke-linejoin="round" stroke="#111" stroke-width="2" d="m-48.246 285.471 307.273-701.306L12.49-349.358l-235.871 63.886 80.11 169.983L-98.263-4.373l50.017 289.844z" fill="none" transform="matrix(.88812 -.44028 .45942 .84197 2609.685 2168.33)"/><path fill="#3658C1" d="m2354.602 1679.413-17.611 18.628-25.892 184.462-30.954 143.817 196.183-148.616 137.214-104.201-258.94-94.09z"/><path stroke-linecap="round" stroke-linejoin="round" stroke="#111" stroke-width="2" d="m10.364-231.172-24.616 9.252L-126.4-61.48l-96.98 120.098L22.353 10.606l171.995-33.82L10.364-231.172z" fill="none" transform="matrix(.88812 -.44028 .45942 .84197 2451.603 1878.616)"/></g><path stroke-linecap="round" stroke-linejoin="round" stroke="#111" stroke-width="2" d="M1002.993 276.297c-17.012-12.82-35.604-23.424-55.361-31.93-122.917-52.844-290.867-22.823-403.184 79.659C414.081 442.977 408.006 614.478 530.88 707.07c82.447 62.129 201.985 72.959 311.135 37.432 53.494-17.442 104.495-46.005 147.41-85.162 20.541-18.742 38.012-38.779 52.374-59.633 76.7-111.39 64.707-245.407-38.806-323.41zm-59.886 348.14C909.146 655.424 868.751 678 826.37 691.796c-86.418 28.145-181.067 19.626-246.347-29.566-97.289-73.312-92.456-209.101 10.766-303.284 88.932-81.145 221.839-104.877 319.173-63.011 15.66 6.71 30.397 15.074 43.865 25.223 81.96 61.761 91.484 167.843 30.73 256.048-11.388 16.517-25.186 32.392-41.45 47.231z" fill="none" transform="matrix(.99907 -.0432 .04104 .94915 1496.435 1595.787)" style="display:block"/><g style="display:block"><path fill="url(#j)" d="m744.961-527.815-25.886-16.704C669.445-576.167-808.25 470.413-808.25 470.413c1.473 22.848 14.711 59.773 25.846 75.098 8.903 12.255 16.793 17.494 26.526 22.627 12.517 6.601 28.423 8.166 42.62 8.176l1271.204.945c44.948.034 86.575-39.177 93.045-87.546l125.837-940.706c4.424-33.075-8.732-61.894-31.866-76.822z" transform="matrix(.99974 .02286 -.0222 .97059 1674.21 1360.124)"/><path stroke-linecap="round" stroke-linejoin="round" stroke="#111" stroke-width="2" d="m744.961-527.815-25.886-16.704C669.445-576.167-808.25 470.413-808.25 470.413c1.473 22.848 14.711 59.773 25.846 75.098 8.903 12.255 16.793 17.494 26.526 22.627 12.517 6.601 28.423 8.166 42.62 8.176l1271.204.945c44.948.034 86.575-39.177 93.045-87.546l125.837-940.706c4.424-33.075-8.732-61.894-31.866-76.822z" fill="none" transform="matrix(.99974 .02286 -.0222 .97059 1674.21 1360.124)"/></g><g style="display:block"><path fill="#B0C3FF" d="M2367.654 820.769c44.935 1.06 75.183 39.883 67.641 86.682l-146.688 910.163c-7.542 46.799-50.027 83.904-94.963 82.844l-1270.852-29.977c-44.888-1.058-75.184-39.882-67.642-86.68l146.688-910.164c7.542-46.798 50.076-83.903 94.963-82.845l1270.853 29.977z"/><path stroke-linecap="round" stroke-linejoin="round" stroke="#111" stroke-width="2" d="M710.239-557.488c44.948.033 76.076 39.3 69.606 87.669L654.008 470.887c-6.47 48.369-48.096 87.579-93.044 87.546l-1271.204-.945c-44.9-.033-76.076-39.299-69.606-87.668l125.837-940.706c6.47-48.369 48.144-87.58 93.044-87.547l1271.204.945z" fill="none" transform="matrix(.99974 .02286 -.0222 .97059 1645.223 1345.625)"/><path fill="#FFF" d="m2333.845 865.642-1217.92-28.728c-33.37-.788-64.949 26.764-70.554 61.55l-139.043 862.72c-5.607 34.79 16.88 63.665 50.248 64.453l1217.92 28.728c33.369.788 64.956-26.813 70.563-61.602l139.041-862.72c5.607-34.786-16.887-63.613-50.255-64.4z"/><path stroke-linecap="round" stroke-linejoin="round" stroke="#111" stroke-width="2" d="m677.474-510.498-1218.257-.906c-33.378-.025-64.319 29.09-69.128 65.044l-119.278 891.671c-4.81 35.957 18.33 65.162 51.708 65.187l1218.257.906c33.378.025 64.326-29.141 69.136-65.097l119.277-891.67c4.81-35.954-18.337-65.11-51.715-65.135z" fill="none" transform="matrix(.99974 .02286 -.0222 .97059 1645.214 1345.64)"/><path fill="#111" d="M953.879 1318.796c-5.57-.131-10.844 4.428-11.78 10.233-.936 5.808 2.826 10.63 8.397 10.76 5.521.13 10.803-4.477 11.74-10.285.935-5.805-2.836-10.578-8.357-10.708"/><path stroke-linecap="round" stroke-linejoin="round" stroke="#111" stroke-width="2" d="M1.472-10.849C-4.1-10.853-9.268-6.034-10.071-.034c-.803 6.003 3.069 10.879 8.641 10.883 5.523.004 10.698-4.865 11.501-10.868.803-6-3.076-10.826-8.599-10.83" fill="none" transform="matrix(.99974 .02286 -.0222 .97059 952.166 1329.292)"/><path fill="#B0C3FF" d="m1103.843 965.077-56.133 49.14 14.661.346-7.621 47.293 20.755.49 5.846-36.275 25.23.594-5.847 36.276 20.753.49 7.622-47.293 14.615.345-39.881-51.406"/><path stroke-linecap="round" stroke-linejoin="round" stroke="#111" stroke-width="2" d="M6.974-50.433-48.02 1.492l14.665.011-6.538 48.88 20.761.015 5.015-37.492 25.236.018-5.015 37.493 20.759.016 6.538-48.88 14.619.011L6.974-50.433" fill="none" transform="matrix(.99974 .02286 -.0222 .97059 1095.75 1013.867)"/><path fill="#B0C3FF" d="m1050.123 1177.857-22.857-.54-6.191 38.421 22.857.54 6.191-38.421"/><path stroke-linecap="round" stroke-linejoin="round" stroke="#111" stroke-width="2" d="m13.994-19.715-22.712-.017-5.276 39.447 22.712.017 5.276-39.447" fill="none" transform="matrix(1.0064 .02301 -.02235 .97706 1035.599 1196.797)"/><path fill="#B0C3FF" d="m1083.382 1163.095-22.857-.539-8.688 53.907 22.857.54 8.688-53.908"/><path stroke-linecap="round" stroke-linejoin="round" stroke="#111" stroke-width="2" d="m15.058-27.665-22.712-.017-7.404 55.347 22.712.017 7.404-55.347" fill="none" transform="matrix(1.0064 .02301 -.02235 .97706 1067.61 1189.78)"/><path fill="#B0C3FF" d="m1117.076 1145.938-22.857-.54-11.57 71.792 22.857.54 11.57-71.792"/><path stroke-linecap="round" stroke-linejoin="round" stroke="#111" stroke-width="2" d="m16.286-36.846-22.712-.017-9.86 73.709 22.712.017 9.86-73.709" fill="none" transform="matrix(1.0064 .02301 -.02235 .97706 1099.862 1181.564)"/><path fill="#B0C3FF" d="m1035.257 1295.084-31.103-.733-11.838 73.449 93.05 2.194 9.966-61.829-48.745-1.15-11.33-11.93"/><path stroke-linecap="round" stroke-linejoin="round" stroke="#111" stroke-width="2" d="m-8.604-34.224-28.043-.02-9.154 68.426 83.896.062 7.706-57.601-43.949-.033-10.456-10.834" fill="none" transform="matrix(1.10913 .02536 -.02463 1.0768 1043.957 1332.154)"/><path fill="#B0C3FF" d="M1015.528 1513.197c-6.074-.143-11.496-3.48-13.96-9.334-3.83-8.97.674-20.55 10.09-25.77 3.252-1.833 6.66-2.663 9.884-2.587 6.061.143 11.475 3.482 13.974 9.338 3.828 8.97-.73 20.55-10.088 25.77-3.253 1.833-6.668 2.66-9.9 2.583m15.136-72.236-4.467 11.352a40.484 40.484 0 0 0-.903-.031c-4.523-.107-9.204.587-13.826 2.088l-4.304-10.124-15.894 8.961 4.256 10.068a52.06 50.541 1.304 0 0-10.524 12.125l-10.454-2.994-6.709 17.085 10.506 2.996c-.901 4.908-1.026 10.117-.112 15.01l-10.573 5.935 6.449 15.22 10.565-5.88a33.595 32.615 1.304 0 0 10.335 9.18l-4.403 11.297 15.815 4.497 4.465-11.352c.317.014.631.025.946.032 4.46.105 9.12-.543 13.785-2.09l4.3 10.125 15.888-8.905-4.246-10.124c4.137-3.513 7.71-7.61 10.471-12.13l10.506 2.999 6.71-17.085-10.506-2.999c.919-5.02 1.026-10.114.112-15.006l10.571-5.939-6.503-15.218-10.51 5.88c-2.853-3.79-6.36-6.909-10.4-9.124l4.469-11.352-15.815-4.497"/><path stroke-linecap="round" stroke-linejoin="round" stroke="#111" stroke-width="2" d="M-2.246 16.935c-5.283-.004-10.063-2.88-12.321-8.072-3.509-7.954.177-18.416 8.258-23.283 2.791-1.707 5.737-2.52 8.542-2.518 5.272.004 10.045 2.883 12.334 8.075 3.506 7.954-.226 18.416-8.258 23.283-2.791 1.707-5.744 2.517-8.555 2.515M9.476-48.058 5.818-37.802c-.26-.006-.524-.009-.785-.009-3.934-.003-7.99.714-11.978 2.153l-3.943-8.978-13.639 8.35 3.9 8.928a45.269 45.269 0 0 0-8.908 11.073l-9.147-2.467-5.493 15.436 9.193 2.468c-.686 4.413-.691 9.08.201 13.442l-9.074 5.532 5.909 13.496 9.068-5.481a29.213 29.213 0 0 0 9.167 8.008l-3.603 10.206 13.838 3.703 3.656-10.256c.276.006.549.009.823.009 3.88.003 7.918-.673 11.942-2.153l3.94 8.978 13.635-8.3-3.893-8.978c3.527-3.231 6.551-6.973 8.862-11.076l9.193 2.47 5.493-15.436-9.193-2.47c.699-4.514.691-9.078-.201-13.44l9.072-5.534-5.956-13.494-9.019 5.481c-2.556-3.336-5.667-6.057-9.223-7.958l3.659-10.256-13.838-3.703" fill="none" transform="matrix(1.1497 .02629 -.02553 1.11618 1018.542 1494.354)"/><path fill="#B0C3FF" d="m1032.323 1621.216-68.349-1.612c-6.998-.166-13.662 5.604-14.838 12.9l-6.278 38.955c-1.176 7.298 3.585 13.333 10.583 13.498l47.144 1.113 6.773 15.349 11.704-14.914 2.728.065c7 .165 13.61-5.602 14.787-12.9l6.278-38.957c1.176-7.295-3.532-13.332-10.532-13.497"/><path stroke-linecap="round" stroke-linejoin="round" stroke="#111" stroke-width="2" d="m35.818-38.442-63.233-.047c-6.474-.005-12.514 5.635-13.447 12.609l-4.981 37.239c-.933 6.977 3.597 12.621 10.071 12.626l43.615.033 6.588 14.471L24.937 24.03l2.524.002c6.476.005 12.467-5.631 13.4-12.608l4.981-37.24c.933-6.974-3.548-12.621-10.024-12.626" fill="none" transform="matrix(1.08092 .02472 -.024 1.0494 992.684 1660.672)"/><path fill="#FFF" d="m1666.874 893.204-368.539-8.694c-15.947-.376-31.064 12.77-33.743 29.394l-62.481 387.689c-2.68 16.626 8.093 30.428 24.04 30.804l368.538 8.694c15.948.377 31.023-12.817 33.703-29.443l62.482-387.689c2.679-16.623-8.053-30.379-24-30.755z"/><path stroke-linecap="round" stroke-linejoin="round" stroke="#111" stroke-width="2" d="m215.303-231.321-368.641-.275c-15.952-.012-30.764 13.882-33.062 31.063L-240 200.166c-2.299 17.184 8.787 31.143 24.739 31.155l368.64.275c15.952.012 30.721-13.929 33.02-31.113L240-200.216c2.298-17.181-8.746-31.093-24.697-31.105z" fill="none" transform="matrix(.99974 .02286 -.0222 .97059 1446.492 1112.8)"/><path fill="#FFF" d="m1626.812 968.328-312.847-7.38c-8.661-.204-16.89 6.975-18.346 16.008-1.464 9.081 4.406 16.542 13.068 16.746l312.846 7.38c8.665.204 16.885-6.924 18.35-16.006 1.455-9.033-4.407-16.544-13.071-16.748z"/><path stroke-linecap="round" stroke-linejoin="round" stroke="#111" stroke-width="2" d="m158.73-16.81-312.933-.233c-8.664-.006-16.726 7.58-17.975 16.916-1.256 9.386 4.783 16.931 13.447 16.937l312.933.233c8.667.006 16.722-7.528 17.978-16.914 1.249-9.336-4.783-16.933-13.45-16.939z" fill="none" transform="matrix(.99974 .02286 -.0222 .97059 1467.75 981.015)"/><path fill="#3658C1" d="m1563.918 966.956-249.953-6.008c-8.661-.204-16.89 6.976-18.346 16.009-1.464 9.081 4.406 16.541 13.068 16.745l249.951 6.007c8.662.204 16.883-6.924 18.347-16.005 1.456-9.033-4.406-16.545-13.067-16.75"/><path stroke-linecap="round" stroke-linejoin="round" stroke="#111" stroke-width="2" d="m206.364-16.66-250.024-.301c-8.664-.006-16.726 7.581-17.975 16.917-1.256 9.386 4.783 16.93 13.447 16.936l250.023.3c8.664.006 16.72-7.527 17.976-16.913 1.249-9.336-4.783-16.934-13.447-16.94" fill="none" transform="matrix(.99974 .02286 -.0222 .97059 1357.237 978.408)"/><path fill="#FFF" d="m1612.655 1056.17-312.846-7.38c-8.662-.203-16.89 6.975-18.346 16.006-1.464 9.081 4.406 16.544 13.068 16.748l312.845 7.38c8.665.204 16.886-6.926 18.35-16.007 1.456-9.03-4.406-16.543-13.07-16.747z"/><path stroke-linecap="round" stroke-linejoin="round" stroke="#111" stroke-width="2" d="m158.73-16.81-312.933-.233c-8.664-.006-16.726 7.58-17.975 16.914-1.256 9.386 4.783 16.933 13.447 16.939l312.932.233c8.667.006 16.723-7.53 17.979-16.916 1.249-9.333-4.783-16.931-13.45-16.937z" fill="none" transform="matrix(.99974 .02286 -.0222 .97059 1453.593 1068.857)"/><path fill="#3658C1" d="m1537.433 1054.505-237.624-5.715c-8.662-.203-16.891 6.975-18.347 16.005-1.464 9.081 4.406 16.545 13.068 16.75l237.624 5.714c8.665.203 16.885-6.926 18.35-16.008 1.455-9.03-4.407-16.541-13.071-16.746"/><path stroke-linecap="round" stroke-linejoin="round" stroke="#111" stroke-width="2" d="m159.63-16.697-237.692-.289c-8.664-.006-16.727 7.58-17.976 16.913-1.256 9.386 4.783 16.934 13.447 16.94l237.693.29c8.667.005 16.722-7.53 17.978-16.917 1.249-9.333-4.783-16.93-13.45-16.937" fill="none" transform="matrix(.99974 .02286 -.0222 .97059 1377.474 1067.061)"/><path fill="#FFF" d="m1598.498 1144.008-312.845-7.38c-8.662-.203-16.891 6.976-18.347 16.008-1.456 9.033 4.406 16.545 13.067 16.749l312.847 7.38c8.664.203 16.893-6.975 18.349-16.008 1.455-9.033-4.406-16.545-13.07-16.75z"/><path stroke-linecap="round" stroke-linejoin="round" stroke="#111" stroke-width="2" d="m158.729-16.812-312.932-.232c-8.664-.006-16.727 7.58-17.976 16.916-1.249 9.336 4.783 16.933 13.447 16.939l312.933.233c8.667.006 16.729-7.58 17.978-16.916 1.249-9.336-4.783-16.934-13.45-16.94z" fill="none" transform="matrix(.99974 .02286 -.0222 .97059 1439.437 1156.697)"/><path fill="#3658C1" d="m1474.027 1141.09-188.374-4.461c-8.662-.204-16.891 6.975-18.347 16.007-1.456 9.033 4.406 16.545 13.067 16.749l188.375 4.46c8.664.204 16.894-6.974 18.349-16.007 1.457-9.033-4.405-16.544-13.07-16.75"/><path stroke-linecap="round" stroke-linejoin="round" stroke="#111" stroke-width="2" d="m120.102-16.822-188.427-.158c-8.664-.006-16.727 7.58-17.976 16.916-1.249 9.336 4.783 16.933 13.447 16.939l188.427.158c8.667.006 16.73-7.58 17.978-16.916 1.25-9.336-4.782-16.933-13.449-16.94" fill="none" transform="matrix(.99974 .02286 -.0222 .97059 1353.583 1154.671)"/><path fill="#FFF" d="m1584.342 1231.85-312.847-7.38c-8.661-.205-16.89 6.975-18.347 16.008-1.455 9.03 4.406 16.542 13.068 16.746l276.227 6.52 36.62.86c8.664.204 16.892-6.975 18.348-16.006 1.456-9.033-4.405-16.544-13.07-16.748z"/><path stroke-linecap="round" stroke-linejoin="round" stroke="#111" stroke-width="2" d="m158.73-16.81-312.933-.233c-8.664-.007-16.727 7.58-17.976 16.916-1.249 9.333 4.783 16.931 13.447 16.937l276.304.21 36.629.023c8.667.006 16.729-7.58 17.978-16.914 1.249-9.336-4.782-16.933-13.449-16.939z" fill="none" transform="matrix(.99974 .02286 -.0222 .97059 1425.28 1244.537)"/><path fill="#3658C1" d="m1556.011 1231.287-284.515-6.816c-8.661-.204-16.89 6.975-18.347 16.008-1.455 9.03 4.406 16.541 13.068 16.745l284.517 6.816c8.664.204 16.893-6.975 18.349-16.005 1.456-9.033-4.406-16.544-13.07-16.748"/><path stroke-linecap="round" stroke-linejoin="round" stroke="#111" stroke-width="2" d="m149.7-16.709-284.596-.319c-8.664-.006-16.727 7.58-17.976 16.916-1.249 9.333 4.783 16.93 13.447 16.936l284.598.32c8.667.006 16.729-7.581 17.978-16.914 1.249-9.336-4.783-16.933-13.45-16.939" fill="none" transform="matrix(.99974 .02286 -.0222 .97059 1405.98 1244.082)"/><path fill="#FFF" d="m2275.3 907.555-512.236-12.082c-15.945-.377-31.014 12.77-33.692 29.393l-62.483 387.69c-2.68 16.626 8.045 30.427 23.99 30.804l512.236 12.082c15.898.376 31.022-12.817 33.702-29.443L2299.3 938.31c2.679-16.623-8.103-30.38-24-30.755z"/><path stroke-linecap="round" stroke-linejoin="round" stroke="#111" stroke-width="2" d="m287.147-231.268-512.378-.381c-15.949-.012-30.713 13.881-33.011 31.062l-53.601 400.699c-2.299 17.184 8.739 31.144 24.688 31.156l512.378.381c15.902.012 30.721-13.929 33.02-31.113l53.601-400.699c2.298-17.181-8.795-31.093-24.697-31.105z" fill="none" transform="matrix(.99974 .02286 -.0222 .97059 1983.093 1125.458)"/><path fill="#B0C3FF" d="m1777.346 1268.069-39.224-.927-6.274 38.422 39.223.926 6.275-38.421"/><path stroke-linecap="round" stroke-linejoin="round" stroke="#111" stroke-width="2" d="m22.079-17.771-39.235-.03-5.394 39.713 39.234.03 5.395-39.713" fill="none" transform="matrix(.99974 .02286 -.0222 .97059 1754.878 1284.812)"/><path fill="#B0C3FF" d="m1852.183 1242.437-39.224-.925-10.66 65.715 39.224.925 10.66-65.714"/><path stroke-linecap="round" stroke-linejoin="round" stroke="#111" stroke-width="2" d="m23.928-31.694-39.235-.029-9.154 67.921 39.234.029 9.155-67.92" fill="none" transform="matrix(.99974 .02286 -.0222 .97059 1827.558 1272.652)"/><path fill="#B0C3FF" d="m1921.593 1250.111-39.223-.926-9.622 59.703 39.223.926 9.622-59.703"/><path stroke-linecap="round" stroke-linejoin="round" stroke="#111" stroke-width="2" d="m23.744-30.838-39.234-.03-8.254 61.706 39.234.03 8.254-61.706" fill="none" transform="matrix(.99974 .02286 -.0222 .97059 1897.17 1279.5)"/><path fill="#B0C3FF" d="m1997.656 1216.935-39.22-.925-15.237 94.54 39.22.925 15.237-94.54"/><path stroke-linecap="round" stroke-linejoin="round" stroke="#111" stroke-width="2" d="m26.151-48.842-39.231-.029-13.071 97.713 39.231.029 13.071-97.713" fill="none" transform="matrix(.99974 .02286 -.0222 .97059 1970.428 1263.743)"/><path fill="#B0C3FF" d="m2070.466 1204.255-39.27-.926-17.548 108.883 39.27.926 17.548-108.883"/><path stroke-linecap="round" stroke-linejoin="round" stroke="#111" stroke-width="2" d="m27.167-56.254-39.28-.029-15.054 112.537 39.28.029L27.167-56.254" fill="none" transform="matrix(.99974 .02286 -.0222 .97059 2042.057 1258.233)"/><path fill="#B0C3FF" d="m2134.663 1244.726-39.223-.925-11.294 70.073 39.224.925 11.293-70.073"/><path stroke-linecap="round" stroke-linejoin="round" stroke="#111" stroke-width="2" d="m24.461-36.198-39.234-.029-9.688 72.425 39.234.029 9.688-72.425" fill="none" transform="matrix(.99974 .02286 -.0222 .97059 2109.405 1279.3)"/><path fill="#B0C3FF" d="m2209.055 1221.921-39.224-.925-15.237 94.54 39.224.926 15.237-94.54"/><path stroke-linecap="round" stroke-linejoin="round" stroke="#111" stroke-width="2" d="m26.153-48.842-39.235-.029-13.071 97.713 39.235.029 13.071-97.713" fill="none" transform="matrix(.99974 .02286 -.0222 .97059 2181.824 1268.729)"/><path stroke-linecap="round" stroke-linejoin="round" stroke="#111" stroke-width="2" d="M68.349-510.952-68.349 510.952" fill="none" transform="matrix(.99974 .02286 -.0222 .97059 1113.581 1333.074)"/></g><g style="display:block"><path fill="#FFF" d="m2197.165 1392.41-976.966-23.045c-15.947-.376-31.071 12.819-33.743 29.394l-57.643 357.662c-2.68 16.627 8.094 30.431 24.041 30.808l976.965 23.045c15.898.375 31.022-12.82 33.702-29.445l57.643-357.663c2.672-16.575-8.1-30.38-24-30.756"/><path stroke-linecap="round" stroke-linejoin="round" stroke="#111" stroke-width="2" d="m539.916 26.834-977.236-.727c-15.952-.012-30.77 13.932-33.062 31.063l-49.449 369.665c-2.299 17.184 8.787 31.146 24.739 31.158l977.235.727c15.902.012 30.721-13.931 33.02-31.115L564.612 57.94c2.292-17.131-8.793-31.094-24.696-31.106" fill="none" transform="matrix(.99974 .02286 -.0222 .97059 1657.985 1354.023)"/><path fill="#3658C1" d="M2052.654 1543.727c-51.984-1.31-44.493-76.192-89.355-77.278-59.108-1.412-94.726 67-147.902 65.906-73.36-1.495-36.345-132.878-103.672-138.485-70.447-5.859-120.582 171.658-198.33 192.519-56.737 15.21-136.206-14.905-183.907-14.903-42.386.002-122.792 49.709-187.331 105.345l-13.324 79.569c-2.693 16.63 8.117 30.472 24.051 30.836l976.916 23.067c15.871.362 31.053-12.825 33.746-29.454l55.039-343.677c-24.02 57.96-97.39 108.244-165.931 106.555z"/><path stroke-linecap="round" stroke-linejoin="round" stroke="#111" stroke-width="2" d="M398.903 186.057c-52-.125-46.223-77.412-91.098-77.474-59.125-.062-93.169 71.225-146.357 71.35-73.375.188-39.373-135.977-106.811-140.165-70.562-4.375-116.625 179.606-193.875 202.918-56.375 17-136.512-12.141-184.2-11.016-42.375 1-121.623 54.08-184.873 112.892l-11.501 82.25C-522.124 444-511 458-495.062 458l977.187.75c15.875 0 30.751-13.937 33.063-31.125l47.166-355.201c-22.688 60.25-94.889 113.758-163.451 113.633z" fill="none" transform="matrix(.99974 .02286 -.0222 .97059 1657.985 1354.023)"/></g><g style="display:block"><path stroke-miterlimit="10" stroke="#111" stroke-width="4" d="M74.581 101.715a14.944 14.944 0 0 1-10.007-3.831c-6.157-5.519-6.686-14.977-1.189-21.146.247-.283 12.677-14.561 19.966-35.967 9.35-27.46 6.231-53.798-9.269-78.283C62.131-56.391 45.894-67.58 25.823-70.768c-26.328-4.182-53.08 6.342-67.921 18.626-15.683 12.979-64.84 60.799-38.971 131.174 2.858 7.775-1.128 16.396-8.903 19.254-7.784 2.859-16.398-1.129-19.255-8.903-13.575-36.931-12.387-73.063 3.533-107.389 13.391-28.87 33.608-48.259 44.467-57.247 18.573-15.372 53.747-31.184 91.756-25.143 28.549 4.535 52.374 20.731 68.9 46.838 20.544 32.452 24.662 68.827 11.908 105.194-9.428 26.881-24.926 44.36-25.581 45.091a14.965 14.965 0 0 1-11.175 4.988z" fill="none" transform="matrix(.99974 .02286 -.0222 .97059 1995.254 1037.474)"/><path fill="#FFF" d="M2067.558 1137.902a14.944 14.508 1.304 0 1-9.92-3.947c-6.033-5.497-6.352-14.689-.72-20.55.254-.27 12.998-13.844 20.76-34.454 9.957-26.438 7.424-52.073-7.528-76.192-11.53-18.597-27.514-29.828-47.509-33.381-26.228-4.661-53.207 4.942-68.317 16.525-15.967 12.239-66.172 57.529-41.872 126.425 2.684 7.612-1.492 15.888-9.329 18.485-7.845 2.597-16.368-1.471-19.052-9.082-12.752-36.155-10.762-71.197 5.916-104.15 14.029-27.714 34.67-46.071 45.727-54.546 18.909-14.496 54.425-29.039 92.29-22.306 28.44 5.054 51.9 21.318 67.842 47.035 19.818 31.967 23.128 67.367 9.57 102.373-10.023 25.874-25.905 42.485-26.576 43.18a14.965 14.529 1.304 0 1-11.282 4.585z"/></g><g stroke-linecap="round" stroke-linejoin="round" fill="none" mask="url(#k)" style="display:block"><path stroke="#111" stroke-width="34" d="M-80.005-32.763C-98.62-5.929-113.559 34.216-95.187 84.195m169.734 2.507s1.86-2.075 4.638-5.889" transform="matrix(.99974 .02286 -.0222 .97059 1995.293 1037.486)"/><path stroke="#B0C3FF" stroke-width="30" d="M-80.005-32.763C-98.62-5.929-113.559 34.216-95.187 84.195m169.734 2.507s1.86-2.075 4.638-5.889" transform="matrix(.99974 .02286 -.0222 .97059 1995.293 1037.486)"/></g><g style="display:block"><path fill="#3658C1" d="M786.895 2008.07s-238.123 8.996-247.837-43.293c-6.14-33.053-8.266-87.673-37.623-70.389l-18.134 14.61c-20.98 16.9-31.493 45.972-25.354 79.025 9.714 52.29 57.449 94.768 106.618 94.855l202.088.362c18.096.032 33.865-5.682 46.083-15.524l18.135-14.608c20.98-22.085-25.88-45.007-43.976-45.039z"/><path stroke-linecap="round" stroke-linejoin="round" stroke="#111" stroke-width="2" d="M786.895 2008.07s-238.123 8.996-247.837-43.293c-6.14-33.053-8.266-87.673-37.623-70.389l-18.134 14.61c-20.98 16.9-31.493 45.972-25.354 79.025 9.714 52.29 57.449 94.768 106.618 94.855l202.088.362c18.096.032 33.865-5.682 46.083-15.524l18.135-14.608c20.98-22.085-25.88-45.007-43.976-45.039z" fill="none"/><path fill="#FFF" d="M754.056 1874.77c49.17.088 96.904 42.566 106.62 94.867 9.714 52.29-22.267 94.626-71.437 94.538l-202.087-.362c-49.17-.087-96.904-42.566-106.618-94.856-9.716-52.301 22.265-94.636 71.434-94.549l202.088.362z"/><path stroke-linecap="round" stroke-linejoin="round" stroke="#111" stroke-width="2" d="M754.056 1874.77c49.17.088 96.904 42.566 106.62 94.867 9.714 52.29-22.267 94.626-71.437 94.538l-202.087-.362c-49.17-.087-96.904-42.566-106.618-94.856-9.716-52.301 22.265-94.636 71.434-94.549l202.088.362z" fill="none"/><path fill="#FFF" d="M553.95 1894.563c38.713.07 76.297 33.507 83.946 74.684 7.647 41.166-17.534 74.492-56.247 74.423-38.712-.07-76.286-33.508-83.933-74.674-7.65-41.178 17.522-74.502 56.235-74.433z"/><path stroke-linecap="round" stroke-linejoin="round" stroke="#111" stroke-width="2" d="M553.95 1894.563c38.713.07 76.297 33.507 83.946 74.684 7.647 41.166-17.534 74.492-56.247 74.423-38.712-.07-76.286-33.508-83.933-74.674-7.65-41.178 17.522-74.502 56.235-74.433z" fill="none"/></g><g style="display:block"><path fill="#3658C1" d="M714.266 1776.015s-115.379-3.184-178.7-49.924c-27.045-19.963-83.451-60.736-104.214-46.729l-17.144 15.76c-19.831 18.23-28.424 47.92-20.142 80.5 13.105 51.556 63.505 90.82 112.575 87.7l201.672-12.817c18.063-1.148 33.43-7.88 44.984-18.5l29.003-27.92c11.19-11.493-49.97-29.219-68.034-28.07z"/><path stroke-linecap="round" stroke-linejoin="round" stroke="#111" stroke-width="2" d="M714.266 1776.015s-115.379-3.184-178.7-49.924c-27.045-19.963-83.451-60.736-104.214-46.729l-17.144 15.76c-19.831 18.23-28.424 47.92-20.142 80.5 13.105 51.556 63.505 90.82 112.575 87.7l201.672-12.817c18.063-1.148 33.43-7.88 44.984-18.5l29.003-27.92c11.19-11.493-49.97-29.219-68.034-28.07z" fill="none"/><path fill="#B0C3FF" d="M683.96 1644.434c49.071-3.12 99.483 36.145 112.589 87.701 13.105 51.557-16.06 95.877-65.13 98.996l-201.672 12.818c-49.07 3.119-99.47-36.146-112.576-87.702-13.106-51.557 16.048-95.876 65.119-98.995l201.67-12.818z"/><path stroke-linecap="round" stroke-linejoin="round" stroke="#111" stroke-width="2" d="M683.96 1644.434c49.071-3.12 99.483 36.145 112.589 87.701 13.105 51.557-16.06 95.877-65.13 98.996l-201.672 12.818c-49.07 3.119-99.47-36.146-112.576-87.702-13.106-51.557 16.048-95.876 65.119-98.995l201.67-12.818z" fill="none"/><path fill="#FFF" d="M614.123 1669.39c38.635-2.455 78.32 28.462 88.635 69.041 10.318 40.591-12.637 75.488-51.272 77.943-38.623 2.455-78.308-28.46-88.627-69.052-10.315-40.58 12.64-75.477 51.264-77.931z"/><path stroke-linecap="round" stroke-linejoin="round" stroke="#111" stroke-width="2" d="M614.123 1669.39c38.635-2.455 78.32 28.462 88.635 69.041 10.318 40.591-12.637 75.488-51.272 77.943-38.623 2.455-78.308-28.46-88.627-69.052-10.315-40.58 12.64-75.477 51.264-77.931z" fill="none"/></g><g style="display:block"><path fill="#B0C3FF" d="m761.186 1014.266-3.107 20.709-17.843 36.209 2.418-24.93 18.532-31.988z"/><path stroke="#111" stroke-width="2" d="m761.186 1014.266-3.107 20.709-17.843 36.209 2.418-24.93 18.532-31.988z" fill="none"/><path fill="#B0C3FF" d="m932.842 953.7-8.517 27.2-10.986 27.527 8.61-26.185 10.893-28.542z"/><path stroke="#111" stroke-width="2" d="m932.842 953.7-8.517 27.2-10.986 27.527 8.61-26.185 10.893-28.542z" fill="none"/><path fill="#B0C3FF" d="m916.344 881.23-33.796 17.898-10.822 22.26 33.796-17.898c.96-.45 1.658-1.135 2.07-1.947l10.823-22.261c-.413.812-1.112 1.495-2.071 1.948z"/><path stroke-linecap="round" stroke-linejoin="round" stroke="#111" stroke-width="2" d="m916.344 881.23-33.796 17.898-10.822 22.26 33.796-17.898c.96-.45 1.658-1.135 2.07-1.947l10.823-22.261c-.413.812-1.112 1.495-2.071 1.948z" fill="none"/><path fill="#B0C3FF" d="M656.585 788.339c-.838-1.518-.874-3.08-.243-4.324l-10.822 22.26c-.631 1.244-.594 2.806.243 4.325l18.031 36.44 10.822-22.262-18.031-36.44z"/><path stroke-linecap="round" stroke-linejoin="round" stroke="#111" stroke-width="2" d="M656.585 788.339c-.838-1.518-.874-3.08-.243-4.324l-10.822 22.26c-.631 1.244-.594 2.806.243 4.325l18.031 36.44 10.822-22.262-18.031-36.44z" fill="none"/><path fill="#B0C3FF" d="m846.689 952.44-10.821 22.26c7.982-15.73 8.643-35.127.108-54.87-17.885-41.374-69.386-68.607-115.026-60.826-23.862 4.07-41.399 16.905-50.145 34.141l10.822-22.261c8.746-17.235 26.283-30.071 50.145-34.139 45.64-7.782 97.14 19.45 115.026 60.827 8.534 19.742 7.872 39.137-.11 54.868"/><path stroke-linecap="round" stroke-linejoin="round" stroke="#111" stroke-width="2" d="m846.689 952.44-10.821 22.26c7.982-15.73 8.643-35.127.108-54.87-17.885-41.374-69.386-68.607-115.026-60.826-23.862 4.07-41.399 16.905-50.145 34.141l10.822-22.261c8.746-17.235 26.283-30.071 50.145-34.139 45.64-7.782 97.14 19.45 115.026 60.827 8.534 19.742 7.872 39.137-.11 54.868" fill="none"/><path fill="#B0C3FF" d="m924.369 986.107-10.822 22.262c-.644 1.27-1.94 2.117-3.512 2.385-.974.166-2.054.11-3.153-.207l10.822-22.26c1.098.315 2.18.373 3.153.207 1.573-.268 2.868-1.116 3.512-2.386"/><path stroke-linecap="round" stroke-linejoin="round" stroke="#111" stroke-width="2" d="m924.369 986.107-10.822 22.262c-.644 1.27-1.94 2.117-3.512 2.385-.974.166-2.054.11-3.153-.207l10.822-22.26c1.098.315 2.18.373 3.153.207 1.573-.268 2.868-1.116 3.512-2.386" fill="none"/><path fill="#B0C3FF" d="m917.704 988.286-10.822 22.261-43.467-10.637 10.821-22.26 43.468 10.636z"/><path stroke-linecap="round" stroke-linejoin="round" stroke="#111" stroke-width="2" d="m917.704 988.286-10.822 22.261-43.467-10.637 10.821-22.26 43.468 10.636z" fill="none"/><path fill="#B0C3FF" d="M593.153 859.45a4.023 4.023 0 0 0-.276.704l-8.624 29.71 10.823-22.262 8.623-29.709a3.941 3.941 0 0 1 .277-.704l-10.823 22.261z"/><path stroke-linecap="round" stroke-linejoin="round" stroke="#111" stroke-width="2" d="M593.153 859.45a4.023 4.023 0 0 0-.276.704l-8.624 29.71 10.823-22.262 8.623-29.709a3.941 3.941 0 0 1 .277-.704l-10.823 22.261z" fill="none"/><path fill="#B0C3FF" d="m874.237 977.65-10.823 22.26c-5.446 7.969-12.361 15-20.545 20.876l10.823-22.26c8.181-5.876 15.096-12.908 20.545-20.876"/><path stroke-linecap="round" stroke-linejoin="round" stroke="#111" stroke-width="2" d="m874.237 977.65-10.823 22.26c-5.446 7.969-12.361 15-20.545 20.876l10.823-22.26c8.181-5.876 15.096-12.908 20.545-20.876" fill="none"/><path fill="#B0C3FF" d="m640.092 893.938-10.823 22.259-40.898-19.524 10.822-22.261 40.899 19.526z"/><path stroke-linecap="round" stroke-linejoin="round" stroke="#111" stroke-width="2" d="m640.092 893.938-10.823 22.259-40.898-19.524 10.822-22.261 40.899 19.526z" fill="none"/><path fill="#B0C3FF" d="m599.192 874.41-10.822 22.26c-3.054-1.32-4.855-4.286-4.116-6.807l10.822-22.26c-.74 2.52 1.062 5.487 4.116 6.808"/><path stroke-linecap="round" stroke-linejoin="round" stroke="#111" stroke-width="2" d="m599.192 874.41-10.822 22.26c-3.054-1.32-4.855-4.286-4.116-6.807l10.822-22.26c-.74 2.52 1.062 5.487 4.116 6.808" fill="none"/><path fill="#B0C3FF" d="m645.769 924.195-10.822 22.261c-3.543-10.077-5.466-20.268-5.676-30.259l10.821-22.26c.21 9.99 2.133 20.181 5.677 30.258"/><path stroke-linecap="round" stroke-linejoin="round" stroke="#111" stroke-width="2" d="m645.769 924.195-10.822 22.261c-3.543-10.077-5.466-20.268-5.676-30.259l10.821-22.26c.21 9.99 2.133 20.181 5.677 30.258" fill="none"/><path fill="#B0C3FF" d="m801.477 1017.517-10.822 22.26c-11.262 1.205-22.974.951-34.774-.761l10.82-22.26c11.801 1.712 23.513 1.966 34.775.76"/><path stroke-linecap="round" stroke-linejoin="round" stroke="#111" stroke-width="2" d="m801.477 1017.517-10.822 22.26c-11.262 1.205-22.974.951-34.774-.761l10.82-22.26c11.801 1.712 23.513 1.966 34.775.76" fill="none"/><path fill="#B0C3FF" d="m869.505 1041.42-32.171 11.686-10.822 22.26 32.17-11.685c1.164-.426 2.01-1.18 2.483-2.112l10.822-22.261c-.473.933-1.319 1.686-2.482 2.111z"/><path stroke-linecap="round" stroke-linejoin="round" stroke="#111" stroke-width="2" d="m869.505 1041.42-32.171 11.686-10.822 22.26 32.17-11.685c1.164-.426 2.01-1.18 2.483-2.112l10.822-22.261c-.473.933-1.319 1.686-2.482 2.111z" fill="none"/><path fill="#B0C3FF" d="m829.11 1050.477-10.823 22.26-27.633-32.96 10.823-22.26 27.632 32.96z"/><path stroke-linecap="round" stroke-linejoin="round" stroke="#111" stroke-width="2" d="m829.11 1050.477-10.823 22.26-27.633-32.96 10.823-22.26 27.632 32.96z" fill="none"/><path fill="#B0C3FF" d="m837.333 1053.107-10.822 22.26a5.844 5.844 0 0 1-1.014.266c-2.548.434-5.514-.718-7.21-2.896l10.822-22.26c1.696 2.177 4.663 3.331 7.21 2.897.348-.06.687-.148 1.014-.268"/><path stroke-linecap="round" stroke-linejoin="round" stroke="#111" stroke-width="2" d="m837.333 1053.107-10.822 22.26a5.844 5.844 0 0 1-1.014.266c-2.548.434-5.514-.718-7.21-2.896l10.822-22.26c1.696 2.177 4.663 3.331 7.21 2.897.348-.06.687-.148 1.014-.268" fill="none"/><path fill="#B0C3FF" d="m706.849 995.366-10.822 22.26c-10.5-6.272-20.144-13.65-28.662-21.918l10.822-22.261c8.517 8.268 18.163 15.646 28.662 21.919"/><path stroke-linecap="round" stroke-linejoin="round" stroke="#111" stroke-width="2" d="m706.849 995.366-10.822 22.26c-10.5-6.272-20.144-13.65-28.662-21.918l10.822-22.261c8.517 8.268 18.163 15.646 28.662 21.919" fill="none"/><path fill="#B0C3FF" d="m678.187 973.447-10.822 22.261-39.761 8.847 10.82-22.261 39.763-8.848z"/><path stroke-linecap="round" stroke-linejoin="round" stroke="#111" stroke-width="2" d="m678.187 973.447-10.822 22.261-39.761 8.847 10.82-22.261 39.763-8.848z" fill="none"/><path fill="#B0C3FF" d="M610.397 948.786c-1.059-1.624-1.18-3.386-.48-4.765l-10.822 22.26c-.7 1.38-.577 3.14.48 4.766l19.967 30.317 10.822-22.26-19.968-30.319z"/><path stroke-linecap="round" stroke-linejoin="round" stroke="#111" stroke-width="2" d="M610.397 948.786c-1.059-1.624-1.18-3.386-.48-4.765l-10.822 22.26c-.7 1.38-.577 3.14.48 4.766l19.967 30.317 10.822-22.26-19.968-30.319z" fill="none"/><path fill="#B0C3FF" d="m638.425 982.292-10.822 22.261c-3.292.589-6.47-.78-8.06-3.188l10.822-22.261c1.59 2.41 4.767 3.777 8.06 3.188"/><path stroke-linecap="round" stroke-linejoin="round" stroke="#111" stroke-width="2" d="m638.425 982.292-10.822 22.261c-3.292.589-6.47-.78-8.06-3.188l10.822-22.261c1.59 2.41 4.767 3.777 8.06 3.188" fill="none"/><path fill="#B0C3FF" d="m751.189 1049.101-10.822 22.261c-.648 1.276-1.94 2.11-3.497 2.374-1.128.192-2.394.086-3.653-.366l10.822-22.26c1.259.451 2.525.558 3.654.367 1.555-.266 2.848-1.1 3.496-2.377"/><path stroke-linecap="round" stroke-linejoin="round" stroke="#111" stroke-width="2" d="m751.189 1049.101-10.822 22.261c-.648 1.276-1.94 2.11-3.497 2.374-1.128.192-2.394.086-3.653-.366l10.822-22.26c1.259.451 2.525.558 3.654.367 1.555-.266 2.848-1.1 3.496-2.377" fill="none"/><path fill="#B0C3FF" d="m702.485 1031.326-10.821 22.26 4.363-35.96 10.821-22.261-4.363 35.96z"/><path stroke-linecap="round" stroke-linejoin="round" stroke="#111" stroke-width="2" d="m702.485 1031.326-10.821 22.26 4.363-35.96 10.821-22.261-4.363 35.96z" fill="none"/><path fill="#B0C3FF" d="m744.038 1051.11-10.822 22.26-36.845-13.177 10.822-22.261 36.845 13.178z"/><path stroke-linecap="round" stroke-linejoin="round" stroke="#111" stroke-width="2" d="m744.038 1051.11-10.822 22.26-36.845-13.177 10.822-22.261 36.845 13.178z" fill="none"/><path fill="#B0C3FF" d="m707.191 1037.931-10.821 22.261c-3.126-1.125-5.177-3.988-4.706-6.605l10.821-22.261c-.47 2.617 1.58 5.48 4.706 6.605"/><path stroke-linecap="round" stroke-linejoin="round" stroke="#111" stroke-width="2" d="m707.191 1037.931-10.821 22.261c-3.126-1.125-5.177-3.988-4.706-6.605l10.821-22.261c-.47 2.617 1.58 5.48 4.706 6.605" fill="none"/><path fill="#FFF" d="M897.964 844.196c-1.59-2.41-4.767-3.778-8.08-3.186l-39.754 8.866c-8.517-8.267-18.172-15.666-28.641-21.922l4.355-35.98c.479-2.6-1.58-5.48-4.706-6.605l-36.859-13.155c-1.267-.456-2.543-.564-3.678-.37-1.667.284-3.03 1.219-3.617 2.657l-15.377 32.048c-11.793-1.694-23.512-1.967-34.774-.762l-27.626-32.941c-1.684-2.199-4.666-3.352-7.217-2.916-.348.06-.688.148-1.015.268l-32.14 11.7c-2.73.998-3.714 3.786-2.25 6.442l18.032 36.44c-8.183 5.874-15.096 12.906-20.537 20.894l-43.454-10.66c-1.101-.307-2.182-.362-3.155-.196-1.84.313-3.294 1.415-3.772 3.075l-8.623 29.71c-.74 2.52 1.063 5.488 4.117 6.809l40.9 19.525c.21 9.99 2.132 20.181 5.676 30.258l-33.796 17.898c-2.576 1.195-3.254 4.114-1.575 6.693l19.967 30.318c1.59 2.41 4.768 3.778 8.06 3.19l39.762-8.848c8.518 8.269 18.163 15.647 28.662 21.92l-4.363 35.96c-.471 2.618 1.58 5.481 4.707 6.606l36.845 13.178c1.259.451 2.526.558 3.655.367 1.673-.286 3.043-1.23 3.632-2.675l15.377-32.047c11.801 1.713 23.512 1.966 34.775.761l27.633 32.961c1.697 2.178 4.663 3.332 7.21 2.898.348-.06.687-.149 1.014-.268l32.17-11.686c2.729-.997 3.706-3.804 2.242-6.46l-18.054-36.435c8.182-5.877 15.097-12.909 20.545-20.877l43.468 10.637c1.098.315 2.178.373 3.152.207 1.839-.314 3.3-1.42 3.782-3.068l8.603-29.705c.73-2.54-1.043-5.49-4.105-6.83l-40.89-19.507c-.233-9.988-2.134-20.181-5.699-30.255l33.796-17.898c2.588-1.218 3.276-4.119 1.576-6.694l-19.956-30.34zm-101.42 142.383c-45.64 7.781-97.14-19.45-115.025-60.826-17.886-41.375 4.614-81.228 50.254-89.01 45.64-7.781 97.14 19.452 115.025 60.827 17.885 41.375-4.614 81.226-50.254 89.008"/><path stroke-linecap="round" stroke-linejoin="round" stroke="#111" stroke-width="2" d="M897.964 844.196c-1.59-2.41-4.767-3.778-8.08-3.186l-39.754 8.866c-8.517-8.267-18.172-15.666-28.641-21.922l4.355-35.98c.479-2.6-1.58-5.48-4.706-6.605l-36.859-13.155c-1.267-.456-2.543-.564-3.678-.37-1.667.284-3.03 1.219-3.617 2.657l-15.377 32.048c-11.793-1.694-23.512-1.967-34.774-.762l-27.626-32.941c-1.684-2.199-4.666-3.352-7.217-2.916-.348.06-.688.148-1.015.268l-32.14 11.7c-2.73.998-3.714 3.786-2.25 6.442l18.032 36.44c-8.183 5.874-15.096 12.906-20.537 20.894l-43.454-10.66c-1.101-.307-2.182-.362-3.155-.196-1.84.313-3.294 1.415-3.772 3.075l-8.623 29.71c-.74 2.52 1.063 5.488 4.117 6.809l40.9 19.525c.21 9.99 2.132 20.181 5.676 30.258l-33.796 17.898c-2.576 1.195-3.254 4.114-1.575 6.693l19.967 30.318c1.59 2.41 4.768 3.778 8.06 3.19l39.762-8.848c8.518 8.269 18.163 15.647 28.662 21.92l-4.363 35.96c-.471 2.618 1.58 5.481 4.707 6.606l36.845 13.178c1.259.451 2.526.558 3.655.367 1.673-.286 3.043-1.23 3.632-2.675l15.377-32.047c11.801 1.713 23.512 1.966 34.775.761l27.633 32.961c1.697 2.178 4.663 3.332 7.21 2.898.348-.06.687-.149 1.014-.268l32.17-11.686c2.729-.997 3.706-3.804 2.242-6.46l-18.054-36.435c8.182-5.877 15.097-12.909 20.545-20.877l43.468 10.637c1.098.315 2.178.373 3.152.207 1.839-.314 3.3-1.42 3.782-3.068l8.603-29.705c.73-2.54-1.043-5.49-4.105-6.83l-40.89-19.507c-.233-9.988-2.134-20.181-5.699-30.255l33.796-17.898c2.588-1.218 3.276-4.119 1.576-6.694l-19.956-30.34zm-101.42 142.383c-45.64 7.781-97.14-19.45-115.025-60.826-17.886-41.375 4.614-81.228 50.254-89.01 45.64-7.781 97.14 19.452 115.025 60.827 17.885 41.375-4.614 81.226-50.254 89.008" fill="none"/></g></g></g></svg>