<svg xmlns="http://www.w3.org/2000/svg" viewBox="0 0 1600 1600" width="1600" height="1600" style="width:100%;height:100%;transform:translate3d(0,0,0);content-visibility:visible"><defs><linearGradient id="e" spreadMethod="pad" gradientUnits="userSpaceOnUse" x1="179.72" y1="312.354" x2="-185.959" y2="-658.477"><stop offset="0%" stop-color="#111"/><stop offset="20%" stop-color="#233569"/><stop offset="49%" stop-color="#3658C1"/><stop offset="73%" stop-color="#738EE0"/><stop offset="100%" stop-color="#B0C3FF"/></linearGradient><linearGradient id="d" spreadMethod="pad" gradientUnits="userSpaceOnUse" x1="-216.638" y1="32.207" x2="226.799" y2="-16.969"><stop offset="0%" stop-color="#3658C1"/><stop offset="60%" stop-color="#233569"/><stop offset="100%" stop-color="#111"/></linearGradient><linearGradient id="b" spreadMethod="pad" gradientUnits="userSpaceOnUse" x1="-121.544" y1="174.69" x2="122.847" y2="-172.098"><stop offset="0%" stop-color="#3658C1"/><stop offset="34%" stop-color="#233569"/><stop offset="100%" stop-color="#111"/></linearGradient><linearGradient id="c" spreadMethod="pad" gradientUnits="userSpaceOnUse" x1="-108.333" y1="157.212" x2="113.941" y2="-151.986"><stop offset="0%" stop-color="#3658C1"/><stop offset="34%" stop-color="#233569"/><stop offset="100%" stop-color="#111"/></linearGradient><clipPath id="a"><path d="M0 0h1600v1600H0z"/></clipPath></defs><g clip-path="url(#a)"><g style="display:block"><path fill="url(#b)" d="m-141.77 161.822 238.943-341.93c1.58-2.26 4.187-3.043 6.338-2.21l50.27 18.186c-2.15-.833-4.757-.05-6.338 2.212L-91.5 180.008c-1.548 2.214-4.152 3.037-6.329 2.194l-50.27-18.186c2.177.843 4.782.02 6.328-2.194z" transform="rotate(1.809 -33033.244 35026.968) scale(.64)"/><path stroke-linecap="round" stroke-linejoin="round" stroke="#111" stroke-width="1.28" d="m995.303 1160.893 159.755-213.899c1.057-1.414 2.74-1.862 4.1-1.286l31.788 12.65c-1.358-.577-3.042-.129-4.099 1.286l-159.755 213.898c-1.035 1.385-2.717 1.858-4.093 1.275l-31.79-12.649c1.376.584 3.06.11 4.093-1.275z" fill="none"/><path fill="#FFF" d="m1194.24 854.317 64.983 86.551c.247.212.517.38.803.5l-31.79-12.648a3.046 3.046 0 0 1-.801-.5l-64.985-86.552 31.79 12.649z"/><path stroke-linecap="round" stroke-linejoin="round" stroke="#111" stroke-width="1.28" d="m1194.24 854.317 64.983 86.551c.247.212.517.38.803.5l-31.79-12.648a3.046 3.046 0 0 1-.801-.5l-64.985-86.552 31.79 12.649z" fill="none"/><path fill="url(#c)" d="M-138.573 146.107 78.318-164.265c1.548-2.214 4.153-3.04 6.33-2.195l50.27 18.185c-2.177-.843-4.783-.018-6.33 2.196L-88.303 164.293c-1.47 2.104-3.829 2.929-6.248 1.992l-50.27-18.186c2.419.937 4.778.112 6.248-1.992z" transform="rotate(1.809 -29167.623 42337.176) scale(.64)"/><path stroke-linecap="round" stroke-linejoin="round" stroke="#111" stroke-width="1.28" d="m1230.359 1032.519 145.011-194.157c1.035-1.385 2.718-1.86 4.094-1.276l31.79 12.648c-1.376-.583-3.06-.108-4.094 1.277l-145.012 194.157c-.983 1.316-2.508 1.796-4.037 1.148l-31.79-12.649c1.53.648 3.055.168 4.038-1.148z" fill="none"/><path fill="#FFF" d="M1474.338 709.841c.89.769 1.401 2.041 1.154 3.488l-27.475 160.454c-.431 2.518-2.871 3.937-4.849 3.099l-31.79-12.65c1.978.84 4.418-.58 4.85-3.099l27.474-160.453c.248-1.447-.264-2.72-1.154-3.488l31.79 12.65z"/><path stroke-linecap="round" stroke-linejoin="round" stroke="#111" stroke-width="1.28" d="M1474.338 709.841c.89.769 1.401 2.041 1.154 3.488l-27.475 160.454c-.431 2.518-2.871 3.937-4.849 3.099l-31.79-12.65c1.978.84 4.418-.58 4.85-3.099l27.474-160.453c.248-1.447-.264-2.72-1.154-3.488l31.79 12.65z" fill="none"/><path fill="#3658C1" d="M1442.549 697.193c-.89-.768-2.157-1.031-3.418-.458l-139.799 63.511c-2.521 1.146-3.151 4.765-1.1 6.535l30.243 26.1c1.458 1.259 1.624 3.648.37 5.327l-96.512 129.22c-1.282 1.716-3.488 2.01-4.899.792l-64.984-86.552c-1.906-1.755-4.11-1.46-5.393.257L948.8 1120.76c-1.253 1.678-1.11 4.045.372 5.324l41.214 35.57c1.457 1.258 3.662.917 4.916-.761l159.755-213.899c1.282-1.716 3.487-2.01 4.916-.776l64.967 86.537c1.93 1.775 4.136 1.48 5.418-.236l145.011-194.157c1.255-1.678 3.46-2.02 4.918-.762l30.244 26.101c2.05 1.77 5.2.327 5.696-2.567l27.475-160.455c.248-1.446-.265-2.718-1.155-3.486z"/><path stroke-linecap="round" stroke-linejoin="round" stroke="#111" stroke-width="1.28" d="M1442.549 697.193c-.89-.768-2.157-1.031-3.418-.458l-139.799 63.511c-2.521 1.146-3.151 4.765-1.1 6.535l30.243 26.1c1.458 1.259 1.624 3.648.37 5.327l-96.512 129.22c-1.282 1.716-3.488 2.01-4.899.792l-64.984-86.552c-1.906-1.755-4.11-1.46-5.393.257L948.8 1120.76c-1.253 1.678-1.11 4.045.372 5.324l41.214 35.57c1.457 1.258 3.662.917 4.916-.761l159.755-213.899c1.282-1.716 3.487-2.01 4.916-.776l64.967 86.537c1.93 1.775 4.136 1.48 5.418-.236l145.011-194.157c1.255-1.678 3.46-2.02 4.918-.762l30.244 26.101c2.05 1.77 5.2.327 5.696-2.567l27.475-160.455c.248-1.446-.265-2.718-1.155-3.486z" fill="none"/></g><g style="display:block"><path fill="url(#d)" d="M157.649-50.744c-33.967 21.178-74.123 31.737-115.41 36.167C9.321-11.046-24.806-12.42-58.276-18.34c-52.263-9.243-103.297-29.395-146.969-60.988l-10.89 44.39c43.671 31.594 94.661 52.212 146.92 61.475 33.466 5.933 67.45 7.197 100.368 3.665 41.289-4.43 80.922-16.366 115.703-36.168 30.563-17.402 74.384-45.608 101.31-121.328l16.386-60.637c-17.13 49.188-32.137 90.606-106.903 137.187z" transform="rotate(5.643 -12275.463 4517.88) scale(.64)"/><path stroke-linecap="round" stroke-linejoin="round" stroke="#111" stroke-width="1.28" d="M488.354 1206.54c-22.967 11.35-49.206 15.549-75.78 15.772-21.189.177-42.837-2.846-63.782-8.722-32.704-9.176-63.94-25.223-89.766-48.092l-9.73 27.586c25.826 22.87 57.004 39.211 89.705 48.4 20.941 5.884 42.506 8.828 63.693 8.65 26.576-.223 52.57-5.331 75.968-15.754 20.56-9.16 50.245-24.367 72.16-70.898l14.251-37.589c-14.005 30.25-26.17 55.685-76.72 80.647z" fill="none"/><path fill="#111" d="m385.58 1059.005-9.73 27.587-85.116-145.108 9.73-27.586 85.116 145.106z"/><path stroke-linecap="round" stroke-linejoin="round" stroke="#111" stroke-width="1.28" d="m385.58 1059.005-9.73 27.587-85.116-145.108 9.73-27.586 85.116 145.106z" fill="none"/><path fill="#3658C1" d="M357.57 905.16c34.019-.285 68.648 7.558 99.947 22.187l-71.938 131.659-85.114-145.108c18.343-5.746 37.624-8.574 57.106-8.738z"/><path stroke-linecap="round" stroke-linejoin="round" stroke="#111" stroke-width="1.28" d="M357.57 905.16c34.019-.285 68.648 7.558 99.947 22.187l-71.938 131.659-85.114-145.108c18.343-5.746 37.624-8.574 57.106-8.738z" fill="none"/><path fill="#B0C3FF" d="M457.517 927.346c32.956 15.414 62.241 38.353 83.177 67.33 42.99 59.498 39.732 128.964-1.628 175.612l-153.488-111.283 71.938-131.659z"/><path stroke-linecap="round" stroke-linejoin="round" stroke="#111" stroke-width="1.28" d="M457.517 927.346c32.956 15.414 62.241 38.353 83.177 67.33 42.99 59.498 39.732 128.964-1.628 175.612l-153.488-111.283 71.938-131.659z" fill="none"/><path fill="#3658C1" d="m385.58 1059.005 153.486 111.283c-13.147 14.8-30.102 27.366-50.675 36.505-23.411 10.398-49.392 15.532-75.967 15.754-21.187.178-42.751-2.766-63.694-8.65l36.85-154.892z"/><path stroke-linecap="round" stroke-linejoin="round" stroke="#111" stroke-width="1.28" d="m385.58 1059.005 153.486 111.283c-13.147 14.8-30.102 27.366-50.675 36.505-23.411 10.398-49.392 15.532-75.967 15.754-21.187.178-42.751-2.766-63.694-8.65l36.85-154.892z" fill="none"/><path fill="#B0C3FF" d="m385.58 1059.005-36.85 154.892c-32.705-9.177-63.878-25.53-89.704-48.4l126.554-106.492z"/><path stroke-linecap="round" stroke-linejoin="round" stroke="#111" stroke-width="1.28" d="m385.58 1059.005-36.85 154.892c-32.705-9.177-63.878-25.53-89.704-48.4l126.554-106.492z" fill="none"/></g><g style="display:block"><path fill="#FFF" d="M230.157 905.048 319.84 1050.4l-120.011 110.719c-11.373-9.943-21.513-20.959-30.174-32.775-58.462-79.756-39.298-176.812 42.56-215.967 5.757-2.753 11.76-5.189 17.943-7.329z"/><path stroke-linecap="round" stroke-linejoin="round" stroke="#111" stroke-width="1.28" d="M230.157 905.048 319.84 1050.4l-120.011 110.719c-11.373-9.943-21.513-20.959-30.174-32.775-58.462-79.756-39.298-176.812 42.56-215.967 5.757-2.753 11.76-5.189 17.943-7.329z" fill="none"/><path fill="#111" d="m319.84 1050.4-11.992 29.753-120.011 110.72 11.99-29.755L319.84 1050.4z"/><path stroke-linecap="round" stroke-linejoin="round" stroke="#111" stroke-width="1.28" d="m319.84 1050.4-11.992 29.753-120.011 110.72 11.99-29.755L319.84 1050.4z" fill="none"/><path fill="#3658C1" d="m199.828 1161.119-11.991 29.753c-11.373-9.942-21.513-20.957-30.174-32.773-41.734-56.935-44.21-128.786-14.529-176.254l14.663-24.128c-31.78 46.031-29.9 113.71 11.857 170.628 8.666 11.813 18.8 22.831 30.174 32.774"/><path stroke-linecap="round" stroke-linejoin="round" stroke="#111" stroke-width="1.28" d="m199.828 1161.119-11.991 29.753c-11.373-9.942-21.513-20.957-30.174-32.773-41.734-56.935-44.21-128.786-14.529-176.254l14.663-24.128c-31.78 46.031-29.9 113.71 11.857 170.628 8.666 11.813 18.8 22.831 30.174 32.774" fill="none"/></g><g style="display:block"><path fill="url(#e)" d="M780.23 31.772-370.149 320.176c-40.65 13.208-19.066 40.16-35.052-1.591l-284.545-746.783c-11.72-30.61-17.381-75.88-79.001-54.352l-25.709 25.924c-17.999 18.58-19.147 49.885-7.426 80.495l310.934 812.05c15.987 41.752 61.872 64.877 102.523 51.669L762.49 113.633c10.847-3.525 24.755-10.66 32.587-18.517 3.835-4.005 11.34-13.217 11.34-13.217 16.536-26.52 12.168-35.865 7.935-47.22-8.36-7.764-28.6-4.702-34.122-2.907z" transform="rotate(1.575 -29477.591 27952.65) scale(.64)"/><path stroke-linecap="round" stroke-linejoin="round" stroke="#111" stroke-width="1.28" d="M1255.755 854.817 514.717 1019.09c-26.238 7.735-12.904 25.357-22.397-1.634L323.417 534.69c-6.96-19.79-9.785-48.85-49.586-36.162l-16.903 16.133c-11.842 11.57-13.127 31.577-6.167 51.366L435.4 1091.013c9.494 26.992 38.442 42.594 64.681 34.859l742.886-218.996c7.001-2.064 16.024-6.384 21.173-11.273 2.524-2.495 7.488-8.256 7.488-8.256 11.045-16.676 8.415-22.73 5.907-30.07-5.212-5.114-18.215-3.511-21.78-2.46z" fill="none"/><path fill="#B0C3FF" d="M1034.205 269.88c26.239-7.735 55.188 7.867 64.682 34.859l184.638 524.986c9.493 26.992-4.074 55.127-30.313 62.862l-742.886 218.995c-26.238 7.735-55.187-7.867-64.68-34.859l-184.64-524.986c-9.493-26.992 4.074-55.127 30.312-62.862l742.886-218.995z"/><path stroke-linecap="round" stroke-linejoin="round" stroke="#111" stroke-width="1.28" d="M1034.205 269.88c26.239-7.735 55.188 7.867 64.682 34.859l184.638 524.986c9.493 26.992-4.074 55.127-30.313 62.862l-742.886 218.995c-26.238 7.735-55.187-7.867-64.68-34.859l-184.64-524.986c-9.493-26.992 4.074-55.127 30.312-62.862l742.886-218.995z" fill="none"/><path fill="#FFF" d="m1251.028 824.181-175.005-497.593c-7.056-20.064-28.578-31.664-48.083-25.914L316.023 510.54c-19.506 5.75-29.591 26.668-22.535 46.731l175.005 497.594c7.057 20.065 28.59 31.693 48.094 25.944l711.917-209.866c19.506-5.75 29.58-26.697 22.524-46.762z"/><path stroke-linecap="round" stroke-linejoin="round" stroke="#111" stroke-width="1.28" d="m1251.028 824.181-175.005-497.593c-7.056-20.064-28.578-31.664-48.083-25.914L316.023 510.54c-19.506 5.75-29.591 26.668-22.535 46.731l175.005 497.594c7.057 20.065 28.59 31.693 48.094 25.944l711.917-209.866c19.506-5.75 29.58-26.697 22.524-46.762z" fill="none"/><path fill="#111" d="M365.038 804.105c-3.256.96-4.953 4.43-3.775 7.779 1.178 3.35 4.777 5.29 8.033 4.33 3.228-.952 4.915-4.45 3.737-7.8-1.178-3.348-4.767-5.26-7.995-4.309"/><path stroke-linecap="round" stroke-linejoin="round" stroke="#111" stroke-width="1.28" d="M365.038 804.105c-3.256.96-4.953 4.43-3.775 7.779 1.178 3.35 4.777 5.29 8.033 4.33 3.228-.952 4.915-4.45 3.737-7.8-1.178-3.348-4.767-5.26-7.995-4.309" fill="none"/><path fill="#B0C3FF" d="m828.705 398.138-98.583 29.061 35.667 101.412 98.583-29.061-35.667-101.412"/><path stroke-linecap="round" stroke-linejoin="round" stroke="#111" stroke-width="1.28" d="m828.705 398.138-98.583 29.061 35.667 101.412 98.583-29.061-35.667-101.412" fill="none"/><path fill="#3658C1" d="m1046.075 398.599-173.682 51.2c-2.392.704-3.617 3.246-2.762 5.68l3.453 9.817c.866 2.461 3.48 3.87 5.874 3.165l173.68-51.2c2.393-.704 3.619-3.246 2.753-5.707l-3.453-9.818c-.856-2.433-3.47-3.842-5.863-3.137"/><path stroke-linecap="round" stroke-linejoin="round" stroke="#111" stroke-width="1.28" d="m1046.075 398.599-173.682 51.2c-2.392.704-3.617 3.246-2.762 5.68l3.453 9.817c.866 2.461 3.48 3.87 5.874 3.165l173.68-51.2c2.393-.704 3.619-3.246 2.753-5.707l-3.453-9.818c-.856-2.433-3.47-3.842-5.863-3.137" fill="none"/><path fill="#3658C1" d="m973.86 382.136-113.497 33.458c-2.393.705-3.618 3.247-2.752 5.708l3.443 9.79c.866 2.46 3.48 3.87 5.873 3.165l113.497-33.458c2.392-.705 3.618-3.247 2.752-5.708l-3.444-9.79c-.865-2.46-3.48-3.87-5.873-3.165"/><path stroke-linecap="round" stroke-linejoin="round" stroke="#111" stroke-width="1.28" d="m973.86 382.136-113.497 33.458c-2.393.705-3.618 3.247-2.752 5.708l3.443 9.79c.866 2.46 3.48 3.87 5.873 3.165l113.497-33.458c2.392-.705 3.618-3.247 2.752-5.708l-3.444-9.79c-.865-2.46-3.48-3.87-5.873-3.165M774.842 559.24l115.238-33.92m17.58-5.262 137.942-40.635M791.02 605.239l187.94-55.31m23.09-6.905 91.756-27.043M807.197 651.237l179.558-53.1" fill="none"/><path fill="#FFF" d="m925.136 775.532-33.667 9.924 45.724 130.008 33.667-9.924-45.724-130.008"/><path stroke-linecap="round" stroke-linejoin="round" stroke="#111" stroke-width="1.28" d="m925.136 775.532-33.667 9.924 45.724 130.008 33.667-9.924-45.724-130.008" fill="none"/><path fill="#B0C3FF" d="m943.01 720.697-33.668 9.925L970.86 905.54l33.668-9.925-61.518-174.918"/><path stroke-linecap="round" stroke-linejoin="round" stroke="#111" stroke-width="1.28" d="m943.01 720.697-33.668 9.925L970.86 905.54l33.668-9.925-61.518-174.918" fill="none"/><path fill="#FFF" d="m971.554 696.296-33.639 9.917 66.613 189.4 33.639-9.915-66.613-189.402"/><path stroke-linecap="round" stroke-linejoin="round" stroke="#111" stroke-width="1.28" d="m971.554 696.296-33.639 9.917 66.613 189.4 33.639-9.915-66.613-189.402" fill="none"/><path fill="#B0C3FF" d="m1018.018 722.752-33.668 9.925 53.817 153.021 33.668-9.925-53.817-153.021"/><path stroke-linecap="round" stroke-linejoin="round" stroke="#111" stroke-width="1.28" d="m1018.018 722.752-33.668 9.925 53.817 153.021 33.668-9.925-53.817-153.021" fill="none"/><path fill="#FFF" d="m1066.575 755.161-33.668 9.925 38.928 110.687 33.668-9.926-38.928-110.686"/><path stroke-linecap="round" stroke-linejoin="round" stroke="#111" stroke-width="1.28" d="m1066.575 755.161-33.668 9.925 38.928 110.687 33.668-9.926-38.928-110.686" fill="none"/><path fill="#B0C3FF" d="m1081.016 690.659-33.64 9.917 58.126 165.272 33.64-9.917-58.126-165.272"/><path stroke-linecap="round" stroke-linejoin="round" stroke="#111" stroke-width="1.28" d="m1081.016 690.659-33.64 9.917 58.126 165.272 33.64-9.917-58.126-165.272" fill="none"/><path fill="#FFF" d="m1099.634 637.941-33.668 9.925 73.177 208.065 33.668-9.925-73.177-208.065"/><path stroke-linecap="round" stroke-linejoin="round" stroke="#111" stroke-width="1.28" d="m1099.634 637.941-33.668 9.925 73.177 208.065 33.668-9.925-73.177-208.065M503.409 932.709l42.143 25.334 31.66-64.052 69.545 6.705 13.084-49.174 46.275 10.753 39.49-62.916" fill="none"/><path stroke-linecap="round" stroke-linejoin="round" stroke="#111" stroke-width="1.28" d="m520.195 974.672 53.133-2.286 44.59-40.013 5.535-59.93 85.202 22.49 57.222-38.81" fill="none"/><path stroke-linecap="round" stroke-linejoin="round" stroke="#111" stroke-width="1.28" d="m449.304 838.594 70.4 200.171 296.116-87.268" fill="none"/><path fill="#FFF" d="m453.602 875.615 15.387-4.537"/><path stroke-linecap="round" stroke-linejoin="round" stroke="#111" stroke-width="1.28" d="m453.602 875.615 15.387-4.537" fill="none"/><path fill="#FFF" d="m465.25 908.733 15.387-4.537"/><path stroke-linecap="round" stroke-linejoin="round" stroke="#111" stroke-width="1.28" d="m465.25 908.733 15.387-4.537" fill="none"/><path fill="#FFF" d="m476.887 941.82 15.387-4.535"/><path stroke-linecap="round" stroke-linejoin="round" stroke="#111" stroke-width="1.28" d="m476.887 941.82 15.387-4.535" fill="none"/><path fill="#FFF" d="m488.525 974.91 15.386-4.535"/><path stroke-linecap="round" stroke-linejoin="round" stroke="#111" stroke-width="1.28" d="m488.525 974.91 15.386-4.535" fill="none"/><path fill="#FFF" d="m500.162 1008 15.387-4.537"/><path stroke-linecap="round" stroke-linejoin="round" stroke="#111" stroke-width="1.28" d="m500.162 1008 15.387-4.537" fill="none"/><path fill="#FFF" d="m571.52 1031.982-5.557-15.802"/><path stroke-linecap="round" stroke-linejoin="round" stroke="#111" stroke-width="1.28" d="m571.52 1031.982-5.557-15.802" fill="none"/><path fill="#FFF" d="m620.602 1017.513-5.557-15.802"/><path stroke-linecap="round" stroke-linejoin="round" stroke="#111" stroke-width="1.28" d="m620.602 1017.513-5.557-15.802" fill="none"/><path fill="#FFF" d="m669.712 1003.036-5.556-15.802"/><path stroke-linecap="round" stroke-linejoin="round" stroke="#111" stroke-width="1.28" d="m669.712 1003.036-5.556-15.802" fill="none"/><path fill="#FFF" d="m718.795 988.567-5.557-15.802"/><path stroke-linecap="round" stroke-linejoin="round" stroke="#111" stroke-width="1.28" d="m718.795 988.567-5.557-15.802" fill="none"/><path fill="#FFF" d="m767.877 974.097-5.556-15.801"/><path stroke-linecap="round" stroke-linejoin="round" stroke="#111" stroke-width="1.28" d="m767.877 974.097-5.556-15.801M408.082 622.72l94.241-27.783m16.889-4.979 150.365-44.325M430.199 685.605l206.79-60.96M452.306 748.463l56.121-16.544m15.665-4.619 166.475-49.074" fill="none"/><path fill="#3658C1" d="M423.215 747.214c-4.787 1.411-7.255 6.53-5.523 11.453 1.721 4.894 6.988 7.733 11.775 6.322 4.758-1.403 7.253-6.53 5.532-11.424-1.732-4.923-7.025-7.753-11.784-6.35"/><path stroke-linecap="round" stroke-linejoin="round" stroke="#111" stroke-width="1.28" d="M423.215 747.214c-4.787 1.411-7.255 6.53-5.523 11.453 1.721 4.894 6.988 7.733 11.775 6.322 4.758-1.403 7.253-6.53 5.532-11.424-1.732-4.923-7.025-7.753-11.784-6.35" fill="none"/><path fill="#3658C1" d="M401.108 684.356c-4.787 1.412-7.255 6.53-5.523 11.453 1.721 4.894 6.988 7.733 11.775 6.322 4.758-1.403 7.253-6.53 5.532-11.424-1.732-4.923-7.026-7.753-11.784-6.35"/><path stroke-linecap="round" stroke-linejoin="round" stroke="#111" stroke-width="1.28" d="M401.108 684.356c-4.787 1.412-7.255 6.53-5.523 11.453 1.721 4.894 6.988 7.733 11.775 6.322 4.758-1.403 7.253-6.53 5.532-11.424-1.732-4.923-7.026-7.753-11.784-6.35" fill="none"/><path fill="#3658C1" d="M379 621.498c-4.786 1.412-7.255 6.53-5.533 11.425 1.732 4.924 6.999 7.763 11.785 6.352 4.759-1.403 7.254-6.53 5.522-11.454-1.722-4.895-7.015-7.725-11.773-6.323"/><path stroke-linecap="round" stroke-linejoin="round" stroke="#111" stroke-width="1.28" d="M379 621.498c-4.786 1.412-7.255 6.53-5.533 11.425 1.732 4.924 6.999 7.763 11.785 6.352 4.759-1.403 7.254-6.53 5.522-11.454-1.722-4.895-7.015-7.725-11.773-6.323" fill="none"/><path fill="#3658C1" d="m625.001 458.188-272.623 80.366c-2.394.706-3.637 3.284-2.771 5.745l8.678 24.674c.866 2.461 3.518 3.89 5.912 3.185l272.623-80.367c2.393-.705 3.637-3.283 2.771-5.744l-8.678-24.675c-.865-2.461-3.519-3.89-5.912-3.184"/><path stroke-linecap="round" stroke-linejoin="round" stroke="#111" stroke-width="1.28" d="m625.001 458.188-272.623 80.366c-2.394.706-3.637 3.284-2.771 5.745l8.678 24.674c.866 2.461 3.518 3.89 5.912 3.185l272.623-80.367c2.393-.705 3.637-3.283 2.771-5.744l-8.678-24.675c-.865-2.461-3.519-3.89-5.912-3.184" fill="none"/></g><g style="display:block"><path fill="#B0C3FF" d="M242.92 333.846c-.036-.733.202-1.38.635-1.847l9.575-11.003c-.434.468-.67 1.114-.635 1.848l.717 13.468-9.575 11.002-.717-13.468z"/><path stroke-linecap="round" stroke-linejoin="round" stroke="#111" stroke-width="1.28" d="M242.92 333.846c-.036-.733.202-1.38.635-1.847l9.575-11.003c-.434.468-.67 1.114-.635 1.848l.717 13.468-9.575 11.002-.717-13.468z" fill="none"/><path fill="#B0C3FF" d="m322.646 424.363 13.741 4.84c.662.227 1.318.249 1.888.092a2.428 2.428 0 0 0 1.15-.686l-9.574 11.003a2.436 2.436 0 0 1-1.15.686c-.57.157-1.226.135-1.888-.094l-13.742-4.84 9.575-11.001z"/><path stroke-linecap="round" stroke-linejoin="round" stroke="#111" stroke-width="1.28" d="m322.646 424.363 13.741 4.84c.662.227 1.318.249 1.888.092a2.428 2.428 0 0 0 1.15-.686l-9.574 11.003a2.436 2.436 0 0 1-1.15.686c-.57.157-1.226.135-1.888-.094l-13.742-4.84 9.575-11.001z" fill="none"/><path fill="#B0C3FF" d="m257.28 369.576-9.574 11.002c2.347-2.532 5.423-4.415 9.038-5.407 2.518-.69 5.299-.951 8.275-.698 11.604.996 22.67 10.055 26.112 21.386 2.504 8.226.711 15.76-3.922 20.758l9.574-11.001c4.634-4.999 6.427-12.533 3.923-20.758-3.44-11.332-14.508-20.392-26.112-21.385-2.976-.254-5.757.005-8.275.697-3.615.992-6.691 2.875-9.039 5.407"/><path stroke-linecap="round" stroke-linejoin="round" stroke="#111" stroke-width="1.28" d="m257.28 369.576-9.574 11.002c2.347-2.532 5.423-4.415 9.038-5.407 2.518-.69 5.299-.951 8.275-.698 11.604.996 22.67 10.055 26.112 21.386 2.504 8.226.711 15.76-3.922 20.758l9.574-11.001c4.634-4.999 6.427-12.533 3.923-20.758-3.44-11.332-14.508-20.392-26.112-21.385-2.976-.254-5.757.005-8.275.697-3.615.992-6.691 2.875-9.039 5.407" fill="none"/><path fill="#B0C3FF" d="m300.847 438.872-9.575 11.002c7.769-2.184 14.386-6.27 19.453-11.737l9.575-11.002c-5.067 5.466-11.685 9.553-19.453 11.737"/><path stroke-linecap="round" stroke-linejoin="round" stroke="#111" stroke-width="1.28" d="m300.847 438.872-9.575 11.002c7.769-2.184 14.386-6.27 19.453-11.737l9.575-11.002c-5.067 5.466-11.685 9.553-19.453 11.737" fill="none"/><path fill="#B0C3FF" d="M204.584 358.346c.112-.295.273-.554.475-.77l9.574-11.002a2.355 2.355 0 0 0-.474.77l-5.35 14.336-9.575 11.002 5.35-14.336z"/><path stroke-linecap="round" stroke-linejoin="round" stroke="#111" stroke-width="1.28" d="M204.584 358.346c.112-.295.273-.554.475-.77l9.574-11.002a2.355 2.355 0 0 0-.474.77l-5.35 14.336-9.575 11.002 5.35-14.336z" fill="none"/><path fill="#B0C3FF" d="m210.352 365.584-9.574 11.002 12.416 8.365 9.574-11.002-12.416-8.365z"/><path stroke-linecap="round" stroke-linejoin="round" stroke="#111" stroke-width="1.28" d="m210.352 365.584-9.574 11.002 12.416 8.365 9.574-11.002-12.416-8.365z" fill="none"/><path fill="#B0C3FF" d="m208.81 361.68-9.576 11.002c-.486 1.315.162 2.983 1.543 3.904l9.576-11.001c-1.381-.921-2.03-2.59-1.544-3.905"/><path stroke-linecap="round" stroke-linejoin="round" stroke="#111" stroke-width="1.28" d="m208.81 361.68-9.576 11.002c-.486 1.315.162 2.983 1.543 3.904l9.576-11.001c-1.381-.921-2.03-2.59-1.544-3.905" fill="none"/><path fill="#B0C3FF" d="m222.769 373.95-9.575 11.002c-.34 4.54-.13 8.714.883 13.651 1.007 4.924 2.735 10.276 4.923 14.787l9.574-11.002c-2.187-4.511-3.839-9.272-4.846-14.195-1.013-4.936-1.3-9.703-.96-14.243"/><path stroke-linecap="round" stroke-linejoin="round" stroke="#111" stroke-width="1.28" d="m222.769 373.95-9.575 11.002c-.34 4.54-.13 8.714.883 13.651 1.007 4.924 2.735 10.276 4.923 14.787l9.574-11.002c-2.187-4.511-3.839-9.272-4.846-14.195-1.013-4.936-1.3-9.703-.96-14.243" fill="none"/><path fill="#B0C3FF" d="m282.54 455.155 16.512-.19c.264 0 .514-.035.747-.099a2.39 2.39 0 0 0 1.134-.68l-9.574 11.004c-.296.32-.683.554-1.135.678a2.831 2.831 0 0 1-.746.1l-16.512.188 9.575-11.002z"/><path stroke-linecap="round" stroke-linejoin="round" stroke="#111" stroke-width="1.28" d="m282.54 455.155 16.512-.19c.264 0 .514-.035.747-.099a2.39 2.39 0 0 0 1.134-.68l-9.574 11.004c-.296.32-.683.554-1.135.678a2.831 2.831 0 0 1-.746.1l-16.512.188 9.575-11.002z" fill="none"/><path fill="#B0C3FF" d="m274.209 439.169-9.575 11.002 4.774 13.417 9.575-11.002-4.774-13.417z"/><path stroke-linecap="round" stroke-linejoin="round" stroke="#111" stroke-width="1.28" d="m274.209 439.169-9.575 11.002 4.774 13.417 9.575-11.002-4.774-13.417z" fill="none"/><path fill="#B0C3FF" d="m278.983 452.586-9.576 11.002c.528 1.495 2.042 2.586 3.559 2.568l9.575-11.001c-1.516.017-3.03-1.074-3.558-2.569"/><path stroke-linecap="round" stroke-linejoin="round" stroke="#111" stroke-width="1.28" d="m278.983 452.586-9.576 11.002c.528 1.495 2.042 2.586 3.559 2.568l9.575-11.001c-1.516.017-3.03-1.074-3.558-2.569" fill="none"/><path fill="#B0C3FF" d="m246.593 425.213-9.575 11.002c8.074 6.706 17.59 11.627 27.616 13.956l9.575-11.002c-10.026-2.33-19.543-7.25-27.616-13.956"/><path stroke-linecap="round" stroke-linejoin="round" stroke="#111" stroke-width="1.28" d="m246.593 425.213-9.575 11.002c8.074 6.706 17.59 11.627 27.616 13.956l9.575-11.002c-10.026-2.33-19.543-7.25-27.616-13.956" fill="none"/><path fill="#B0C3FF" d="m219.536 411.065-9.574 11.003c-.907.978-.853 2.58.146 3.838l9.575-11.002c-.999-1.259-1.054-2.86-.147-3.839"/><path stroke-linecap="round" stroke-linejoin="round" stroke="#111" stroke-width="1.28" d="m219.536 411.065-9.574 11.003c-.907.978-.853 2.58.146 3.838l9.575-11.002c-.999-1.259-1.054-2.86-.147-3.839" fill="none"/><path fill="#B0C3FF" d="m234.54 430.455-9.576 11.001 12.054-5.241 9.574-11.002-12.053 5.242z"/><path stroke-linecap="round" stroke-linejoin="round" stroke="#111" stroke-width="1.28" d="m234.54 430.455-9.576 11.001 12.054-5.241 9.574-11.002-12.053 5.242z" fill="none"/><path fill="#B0C3FF" d="m219.683 414.904-9.575 11.002 11.167 14.158 9.575-11.002-11.167-14.158z"/><path stroke-linecap="round" stroke-linejoin="round" stroke="#111" stroke-width="1.28" d="m219.683 414.904-9.575 11.002 11.167 14.158 9.575-11.002-11.167-14.158z" fill="none"/><path fill="#B0C3FF" d="m230.85 429.062-9.575 11.002c.93 1.188 2.446 1.733 3.69 1.392l9.574-11.001c-1.242.34-2.76-.205-3.688-1.393"/><path stroke-linecap="round" stroke-linejoin="round" stroke="#111" stroke-width="1.28" d="m230.85 429.062-9.575 11.002c.93 1.188 2.446 1.733 3.69 1.392l9.574-11.001c-1.242.34-2.76-.205-3.688-1.393" fill="none"/><path fill="#FFF" d="M228.574 402.388c-2.187-4.511-3.84-9.272-4.847-14.195-1.012-4.937-1.299-9.704-.958-14.243l-12.416-8.365c-1.381-.921-2.03-2.59-1.544-3.905l5.35-14.336c.282-.745.882-1.252 1.625-1.457.57-.156 1.226-.134 1.888.094l13.729 4.843c5.305-6.863 12.774-11.957 21.81-14.512l-.717-13.468c-.06-1.23.65-2.218 1.769-2.525a2.874 2.874 0 0 1 .744-.1l16.499-.186c1.516-.018 3.043 1.069 3.57 2.564l4.774 13.418c10.027 2.33 19.543 7.25 27.616 13.956l12.054-5.242c1.243-.341 2.76.205 3.689 1.392l11.167 14.16c1.03 1.297 1.055 2.96.058 3.927l-8.943 8.6c2.188 4.512 3.833 9.26 4.84 14.184 1.013 4.936 1.3 9.703.96 14.242l12.416 8.365c1.368.925 2.03 2.59 1.543 3.905l-5.35 14.336c-.282.745-.881 1.252-1.625 1.456-.57.157-1.225.136-1.888-.093l-13.74-4.84c-5.294 6.86-12.769 11.97-21.8 14.509l.718 13.468c.065 1.24-.655 2.22-1.766 2.526a2.835 2.835 0 0 1-.747.099l-16.511.19c-1.516.017-3.03-1.074-3.558-2.569l-4.774-13.417c-10.026-2.33-19.543-7.25-27.616-13.956l-12.054 5.242c-1.242.34-2.76-.205-3.689-1.392l-11.167-14.159c-1.03-1.298-1.056-2.96-.058-3.928l8.95-8.588zm50.891 9.324c2.983.256 5.768-.003 8.29-.695 10.745-2.95 16.722-13.77 12.951-26.16-3.44-11.33-14.508-20.39-26.112-21.384-2.976-.254-5.757.005-8.275.697-10.75 2.95-16.734 13.772-12.966 26.156 3.44 11.332 14.508 20.39 26.112 21.386"/><path stroke-linecap="round" stroke-linejoin="round" stroke="#111" stroke-width="1.28" d="M228.574 402.388c-2.187-4.511-3.84-9.272-4.847-14.195-1.012-4.937-1.299-9.704-.958-14.243l-12.416-8.365c-1.381-.921-2.03-2.59-1.544-3.905l5.35-14.336c.282-.745.882-1.252 1.625-1.457.57-.156 1.226-.134 1.888.094l13.729 4.843c5.305-6.863 12.774-11.957 21.81-14.512l-.717-13.468c-.06-1.23.65-2.218 1.769-2.525a2.874 2.874 0 0 1 .744-.1l16.499-.186c1.516-.018 3.043 1.069 3.57 2.564l4.774 13.418c10.027 2.33 19.543 7.25 27.616 13.956l12.054-5.242c1.243-.341 2.76.205 3.689 1.392l11.167 14.16c1.03 1.297 1.055 2.96.058 3.927l-8.943 8.6c2.188 4.512 3.833 9.26 4.84 14.184 1.013 4.936 1.3 9.703.96 14.242l12.416 8.365c1.368.925 2.03 2.59 1.543 3.905l-5.35 14.336c-.282.745-.881 1.252-1.625 1.456-.57.157-1.225.136-1.888-.093l-13.74-4.84c-5.294 6.86-12.769 11.97-21.8 14.509l.718 13.468c.065 1.24-.655 2.22-1.766 2.526a2.835 2.835 0 0 1-.747.099l-16.511.19c-1.516.017-3.03-1.074-3.558-2.569l-4.774-13.417c-10.026-2.33-19.543-7.25-27.616-13.956l-12.054 5.242c-1.242.34-2.76-.205-3.689-1.392l-11.167-14.159c-1.03-1.298-1.056-2.96-.058-3.928l8.95-8.588zm50.891 9.324c2.983.256 5.768-.003 8.29-.695 10.745-2.95 16.722-13.77 12.951-26.16-3.44-11.33-14.508-20.39-26.112-21.384-2.976-.254-5.757.005-8.275.697-10.75 2.95-16.734 13.772-12.966 26.156 3.44 11.332 14.508 20.39 26.112 21.386" fill="none"/></g><g style="display:block"><path fill="#3658C1" d="m468.133 471.916 3.782 12.523 14.462 21.58-3.711-15.286-14.533-18.817z"/><path stroke="#111" stroke-width="1.28" d="m468.133 471.916 3.782 12.523 14.462 21.58-3.711-15.286-14.533-18.817z" fill="none"/><path fill="#3658C1" d="m353.998 448.56 7.765 16.649 9.372 16.18-7.748-15.535-9.389-17.296z"/><path stroke="#111" stroke-width="1.28" d="m353.998 448.56 7.765 16.649 9.372 16.18-7.748-15.535-9.389-17.296z" fill="none"/><path fill="#3658C1" d="m358.166 400.676 22.99 8.423 8.81 12.824-22.99-8.423c-.648-.203-1.15-.578-1.483-1.06l-8.81-12.824c.332.483.835.858 1.483 1.06z"/><path stroke-linecap="round" stroke-linejoin="round" stroke="#111" stroke-width="1.28" d="m358.166 400.676 22.99 8.423 8.81 12.824-22.99-8.423c-.648-.203-1.15-.578-1.483-1.06l-8.81-12.824c.332.483.835.858 1.483 1.06z" fill="none"/><path fill="#3658C1" d="M514.846 317.866c.4-1.047.287-2.05-.222-2.79l8.81 12.823c.51.74.621 1.743.222 2.79l-8.27 24.951-8.81-12.822 8.27-24.951z"/><path stroke-linecap="round" stroke-linejoin="round" stroke="#111" stroke-width="1.28" d="M514.846 317.866c.4-1.047.287-2.05-.222-2.79l8.81 12.823c.51.74.621 1.743.222 2.79l-8.27 24.951-8.81-12.822 8.27-24.951z" fill="none"/><path fill="#3658C1" d="m408.531 440.012 8.81 12.823c-6.43-9.354-8.534-21.714-4.836-35.12 7.748-28.098 38.047-50.161 67.67-49.28 15.488.462 27.726 7.105 34.77 17.355l-8.81-12.823c-7.045-10.25-19.282-16.893-34.77-17.353-29.624-.883-59.92 21.18-67.67 49.278-3.697 13.407-1.593 25.766 4.836 35.12"/><path stroke-linecap="round" stroke-linejoin="round" stroke="#111" stroke-width="1.28" d="m408.531 440.012 8.81 12.823c-6.43-9.354-8.534-21.714-4.836-35.12 7.748-28.098 38.047-50.161 67.67-49.28 15.488.462 27.726 7.105 34.77 17.355l-8.81-12.823c-7.045-10.25-19.282-16.893-34.77-17.353-29.624-.883-59.92 21.18-67.67 49.278-3.697 13.407-1.593 25.766 4.836 35.12" fill="none"/><path fill="#3658C1" d="m362.188 468.547 8.81 12.823c.52.756 1.414 1.181 2.435 1.212a4.523 4.523 0 0 0 1.982-.416l-8.81-12.824a4.53 4.53 0 0 1-1.983.416c-1.02-.03-1.915-.456-2.434-1.212"/><path stroke-linecap="round" stroke-linejoin="round" stroke="#111" stroke-width="1.28" d="m362.188 468.547 8.81 12.823c.52.756 1.414 1.181 2.435 1.212a4.523 4.523 0 0 0 1.982-.416l-8.81-12.824a4.53 4.53 0 0 1-1.983.416c-1.02-.03-1.915-.456-2.434-1.212" fill="none"/><path fill="#3658C1" d="m366.604 469.343 8.81 12.823 26.645-10.715-8.81-12.823-26.645 10.715z"/><path stroke-linecap="round" stroke-linejoin="round" stroke="#111" stroke-width="1.28" d="m366.604 469.343 8.81 12.823 26.645-10.715-8.81-12.823-26.645 10.715z" fill="none"/><path fill="#3658C1" d="M561.268 357.24c.09.132.17.274.237.426l8.05 18.248-8.81-12.824-8.05-18.247a2.543 2.543 0 0 0-.237-.427l8.81 12.825z"/><path stroke-linecap="round" stroke-linejoin="round" stroke="#111" stroke-width="1.28" d="M561.268 357.24c.09.132.17.274.237.426l8.05 18.248-8.81-12.824-8.05-18.247a2.543 2.543 0 0 0-.237-.427l8.81 12.825z" fill="none"/><path fill="#3658C1" d="m393.25 458.628 8.81 12.823c4.147 4.613 9.144 8.493 14.844 11.52l-8.81-12.822c-5.7-3.027-10.697-6.908-14.845-11.52"/><path stroke-linecap="round" stroke-linejoin="round" stroke="#111" stroke-width="1.28" d="m393.25 458.628 8.81 12.823c4.147 4.613 9.144 8.493 14.844 11.52l-8.81-12.822c-5.7-3.027-10.697-6.908-14.845-11.52" fill="none"/><path fill="#3658C1" d="m534.482 383.995 8.81 12.824 24.244-16.176-8.81-12.823-24.244 16.175z"/><path stroke-linecap="round" stroke-linejoin="round" stroke="#111" stroke-width="1.28" d="m534.482 383.995 8.81 12.824 24.244-16.176-8.81-12.823-24.244 16.175z" fill="none"/><path fill="#3658C1" d="m558.725 367.82 8.81 12.823c1.823-1.121 2.708-3.182 2.02-4.73l-8.81-12.822c.688 1.546-.197 3.608-2.02 4.728"/><path stroke-linecap="round" stroke-linejoin="round" stroke="#111" stroke-width="1.28" d="m558.725 367.82 8.81 12.823c1.823-1.121 2.708-3.182 2.02-4.73l-8.81-12.822c.688 1.546-.197 3.608-2.02 4.728" fill="none"/><path fill="#3658C1" d="m533.51 403.88 8.81 12.822c1.372-6.77 1.706-13.468.971-19.884l-8.81-12.822c.734 6.415.401 13.112-.971 19.883"/><path stroke-linecap="round" stroke-linejoin="round" stroke="#111" stroke-width="1.28" d="m533.51 403.88 8.81 12.822c1.372-6.77 1.706-13.468.971-19.884l-8.81-12.822c.734 6.415.401 13.112-.971 19.883" fill="none"/><path fill="#3658C1" d="m442.86 477.618 8.811 12.823c7.248-.24 14.654-1.456 21.989-3.612l-8.81-12.823c-7.336 2.156-14.742 3.371-21.99 3.612"/><path stroke-linecap="round" stroke-linejoin="round" stroke="#111" stroke-width="1.28" d="m442.86 477.618 8.811 12.823c7.248-.24 14.654-1.456 21.989-3.612l-8.81-12.823c-7.336 2.156-14.742 3.371-21.99 3.612" fill="none"/><path fill="#3658C1" d="m401.791 499.033 21.42 4.592 8.81 12.823-21.42-4.592c-.775-.167-1.376-.574-1.757-1.129l-8.811-12.823c.38.555.982.961 1.757 1.129z"/><path stroke-linecap="round" stroke-linejoin="round" stroke="#111" stroke-width="1.28" d="m401.791 499.033 21.42 4.592 8.81 12.823-21.42-4.592c-.775-.167-1.376-.574-1.757-1.129l-8.811-12.823c.38.555.982.961 1.757 1.129z" fill="none"/><path fill="#3658C1" d="m428.199 501.203 8.81 12.824 14.662-23.586-8.81-12.823-14.662 23.585z"/><path stroke-linecap="round" stroke-linejoin="round" stroke="#111" stroke-width="1.28" d="m428.199 501.203 8.81 12.824 14.662-23.586-8.81-12.823-14.662 23.585z" fill="none"/><path fill="#3658C1" d="m423.211 503.626 8.81 12.823c.218.047.441.073.667.08 1.653.049 3.434-.956 4.32-2.503l-8.81-12.822c-.886 1.546-2.667 2.551-4.32 2.502a3.682 3.682 0 0 1-.667-.08"/><path stroke-linecap="round" stroke-linejoin="round" stroke="#111" stroke-width="1.28" d="m423.211 503.626 8.81 12.823c.218.047.441.073.667.08 1.653.049 3.434-.956 4.32-2.503l-8.81-12.822c-.886 1.546-2.667 2.551-4.32 2.502a3.682 3.682 0 0 1-.667-.08" fill="none"/><path fill="#3658C1" d="m500.954 454.934 8.81 12.824c6.114-4.96 11.59-10.551 16.274-16.61l-8.81-12.823c-4.684 6.06-10.16 11.65-16.274 16.61"/><path stroke-linecap="round" stroke-linejoin="round" stroke="#111" stroke-width="1.28" d="m500.954 454.934 8.81 12.824c6.114-4.96 11.59-10.551 16.274-16.61l-8.81-12.823c-4.684 6.06-10.16 11.65-16.274 16.61" fill="none"/><path fill="#3658C1" d="m517.228 438.325 8.81 12.823 25.987 2.093-8.81-12.823-25.987-2.093z"/><path stroke-linecap="round" stroke-linejoin="round" stroke="#111" stroke-width="1.28" d="m517.228 438.325 8.81 12.823 25.987 2.093-8.81-12.823-25.987-2.093z" fill="none"/><path fill="#3658C1" d="M558.081 416.446c.53-1.135.454-2.274-.11-3.094l8.81 12.823c.565.82.64 1.958.11 3.094l-10.03 21.206-8.81-12.823 10.03-21.206z"/><path stroke-linecap="round" stroke-linejoin="round" stroke="#111" stroke-width="1.28" d="M558.081 416.446c.53-1.135.454-2.274-.11-3.094l8.81 12.823c.565.82.64 1.958.11 3.094l-10.03 21.206-8.81-12.823 10.03-21.206z" fill="none"/><path fill="#3658C1" d="m543.215 440.417 8.81 12.823c2.14.08 4.036-1.08 4.835-2.765l-8.81-12.824c-.8 1.686-2.695 2.847-4.835 2.766"/><path stroke-linecap="round" stroke-linejoin="round" stroke="#111" stroke-width="1.28" d="m543.215 440.417 8.81 12.823c2.14.08 4.036-1.08 4.835-2.765l-8.81-12.824c-.8 1.686-2.695 2.847-4.835 2.766" fill="none"/><path fill="#3658C1" d="m477.5 493.322 8.81 12.824c.522.759 1.414 1.176 2.424 1.205.732.022 1.526-.159 2.285-.562l-8.81-12.824c-.76.403-1.553.585-2.285.564-1.01-.03-1.902-.448-2.424-1.207"/><path stroke-linecap="round" stroke-linejoin="round" stroke="#111" stroke-width="1.28" d="m477.5 493.322 8.81 12.824c.522.759 1.414 1.176 2.424 1.205.732.022 1.526-.159 2.285-.562l-8.81-12.824c-.76.403-1.553.585-2.285.564-1.01-.03-1.902-.448-2.424-1.207" fill="none"/><path fill="#3658C1" d="m506.845 477.566 8.81 12.824-5.891-22.634-8.81-12.823 5.891 22.633z"/><path stroke-linecap="round" stroke-linejoin="round" stroke="#111" stroke-width="1.28" d="m506.845 477.566 8.81 12.824-5.891-22.634-8.81-12.823 5.891 22.633z" fill="none"/><path fill="#3658C1" d="m482.21 493.966 8.81 12.823 22.224-11.747-8.81-12.824-22.224 11.748z"/><path stroke-linecap="round" stroke-linejoin="round" stroke="#111" stroke-width="1.28" d="m482.21 493.966 8.81 12.823 22.224-11.747-8.81-12.824-22.224 11.748z" fill="none"/><path fill="#3658C1" d="m504.434 482.218 8.81 12.823c1.885-1 2.938-3.018 2.412-4.651l-8.81-12.824c.525 1.634-.526 3.65-2.412 4.652"/><path stroke-linecap="round" stroke-linejoin="round" stroke="#111" stroke-width="1.28" d="m504.434 482.218 8.81 12.823c1.885-1 2.938-3.018 2.412-4.651l-8.81-12.824c.525 1.634-.526 3.65-2.412 4.652" fill="none"/><path fill="#B0C3FF" d="M366.605 375.314c.8-1.686 2.696-2.847 4.849-2.765l25.984 2.105c4.683-6.06 10.164-11.664 16.26-16.61l-5.888-22.645c-.53-1.621.526-3.65 2.41-4.652l22.236-11.734c.763-.405 1.564-.589 2.3-.567 1.082.032 2.028.508 2.525 1.377l12.538 19.136c7.332-2.143 14.742-3.37 21.99-3.61l14.658-23.573c.878-1.56 2.668-2.565 4.324-2.516.226.007.45.033.667.08l21.403 4.605c1.817.394 2.683 2.09 1.985 3.922l-8.27 24.95c5.7 3.027 10.696 6.908 14.84 11.534l26.635-10.729a4.61 4.61 0 0 1 1.984-.409c1.194.036 2.212.61 2.66 1.63l8.05 18.248c.687 1.547-.198 3.609-2.02 4.729l-24.244 16.176c.734 6.415.401 13.112-.971 19.883l22.99 8.423c1.737.534 2.421 2.342 1.58 4.144l-10.03 21.207c-.8 1.684-2.695 2.846-4.835 2.765l-25.988-2.093c-4.683 6.06-10.16 11.65-16.273 16.61l5.891 22.633c.526 1.632-.526 3.65-2.411 4.65l-22.224 11.748c-.76.403-1.554.585-2.287.563-1.086-.032-2.037-.513-2.536-1.386l-12.537-19.137c-7.336 2.156-14.742 3.37-21.99 3.612l-14.662 23.585c-.887 1.547-2.668 2.552-4.321 2.503a3.682 3.682 0 0 1-.667-.08l-21.418-4.592c-1.818-.394-2.681-2.103-1.983-3.935l8.284-24.95c-5.7-3.027-10.696-6.909-14.844-11.52l-26.645 10.714a4.525 4.525 0 0 1-1.982.416c-1.193-.036-2.215-.613-2.665-1.624l-8.037-18.247c-.684-1.56.184-3.609 2.01-4.742l24.24-16.163c-.72-6.415-.4-13.112.986-19.883l-22.99-8.423c-1.748-.548-2.436-2.343-1.581-4.144l10.02-21.22zm76.696 82.053c29.623.882 59.92-21.18 67.67-49.278 7.749-28.099-9.984-51.594-39.607-52.477-29.623-.882-59.92 21.181-67.67 49.28-7.748 28.096 9.984 51.592 39.607 52.474"/><path stroke-linecap="round" stroke-linejoin="round" stroke="#111" stroke-width="1.28" d="M366.605 375.314c.8-1.686 2.696-2.847 4.849-2.765l25.984 2.105c4.683-6.06 10.164-11.664 16.26-16.61l-5.888-22.645c-.53-1.621.526-3.65 2.41-4.652l22.236-11.734c.763-.405 1.564-.589 2.3-.567 1.082.032 2.028.508 2.525 1.377l12.538 19.136c7.332-2.143 14.742-3.37 21.99-3.61l14.658-23.573c.878-1.56 2.668-2.565 4.324-2.516.226.007.45.033.667.08l21.403 4.605c1.817.394 2.683 2.09 1.985 3.922l-8.27 24.95c5.7 3.027 10.696 6.908 14.84 11.534l26.635-10.729a4.61 4.61 0 0 1 1.984-.409c1.194.036 2.212.61 2.66 1.63l8.05 18.248c.687 1.547-.198 3.609-2.02 4.729l-24.244 16.176c.734 6.415.401 13.112-.971 19.883l22.99 8.423c1.737.534 2.421 2.342 1.58 4.144l-10.03 21.207c-.8 1.684-2.695 2.846-4.835 2.765l-25.988-2.093c-4.683 6.06-10.16 11.65-16.273 16.61l5.891 22.633c.526 1.632-.526 3.65-2.411 4.65l-22.224 11.748c-.76.403-1.554.585-2.287.563-1.086-.032-2.037-.513-2.536-1.386l-12.537-19.137c-7.336 2.156-14.742 3.37-21.99 3.612l-14.662 23.585c-.887 1.547-2.668 2.552-4.321 2.503a3.682 3.682 0 0 1-.667-.08l-21.418-4.592c-1.818-.394-2.681-2.103-1.983-3.935l8.284-24.95c-5.7-3.027-10.696-6.909-14.844-11.52l-26.645 10.714a4.525 4.525 0 0 1-1.982.416c-1.193-.036-2.215-.613-2.665-1.624l-8.037-18.247c-.684-1.56.184-3.609 2.01-4.742l24.24-16.163c-.72-6.415-.4-13.112.986-19.883l-22.99-8.423c-1.748-.548-2.436-2.343-1.581-4.144l10.02-21.22zm76.696 82.053c29.623.882 59.92-21.18 67.67-49.278 7.749-28.099-9.984-51.594-39.607-52.477-29.623-.882-59.92 21.181-67.67 49.28-7.748 28.096 9.984 51.592 39.607 52.474" fill="none"/></g></g></svg>