<svg xmlns="http://www.w3.org/2000/svg" viewBox="0 0 1600 1600" width="1600" height="1600" style="width:100%;height:100%;transform:translate3d(0,0,0);content-visibility:visible"><defs><linearGradient id="l" spreadMethod="pad" gradientUnits="userSpaceOnUse" x1="-614.49" y1="2.979" x2="629.199" y2="-1.6"><stop offset="0%" stop-color="#FFF"/><stop offset="24%" stop-color="#FFF"/><stop offset="47%" stop-color="#FFF"/><stop offset="74%" stop-color="#FFF" stop-opacity=".6"/><stop offset="100%" stop-color="#FFF" stop-opacity=".2"/></linearGradient><linearGradient id="i" spreadMethod="pad" gradientUnits="userSpaceOnUse" x1="1.125" y1="-102.873" x2="-.362" y2="75.064"><stop offset="0%" stop-color="#63AD8F"/><stop offset="50%" stop-color="#B1D6C7"/><stop offset="100%" stop-color="#FFF"/></linearGradient><linearGradient id="j" spreadMethod="pad" gradientUnits="userSpaceOnUse" x1=".212" y1="-107.474" x2=".529" y2="108.739"><stop offset="0%" stop-color="#63AD8F"/><stop offset="50%" stop-color="#B1D6C7"/><stop offset="100%" stop-color="#FFF"/></linearGradient><linearGradient id="k" spreadMethod="pad" gradientUnits="userSpaceOnUse" x1=".337" y1="-6.637" x2=".529" y2="32.189"><stop offset="0%" stop-color="#63AD8F"/><stop offset="50%" stop-color="#B1D6C7"/><stop offset="100%" stop-color="#FFF"/></linearGradient><linearGradient id="h" spreadMethod="pad" gradientUnits="userSpaceOnUse" x1="8.949" y1="-229.047" x2=".172" y2="240.369"><stop offset="0%" stop-color="#FFF"/><stop offset="50%" stop-color="#A7C1F1" stop-opacity=".5"/><stop offset="100%" stop-color="#4F82E3" stop-opacity="0"/></linearGradient><linearGradient id="g" spreadMethod="pad" gradientUnits="userSpaceOnUse" x1="-2.072" y1="-299.512" x2="-.615" y2="466.107"><stop offset="0%" stop-color="#FFF"/><stop offset="50%" stop-color="#A7C1F1" stop-opacity=".5"/><stop offset="100%" stop-color="#4F82E3" stop-opacity="0"/></linearGradient><linearGradient id="f" spreadMethod="pad" gradientUnits="userSpaceOnUse" x1=".899" y1="-360.969" x2="2.591" y2="421.602"><stop offset="0%" stop-color="#FFF"/><stop offset="50%" stop-color="#A7C1F1" stop-opacity=".5"/><stop offset="100%" stop-color="#4F82E3" stop-opacity="0"/></linearGradient><linearGradient id="e" spreadMethod="pad" gradientUnits="userSpaceOnUse" x1="-1.495" y1="-299.512" x2=".38" y2="396.107"><stop offset="0%" stop-color="#FFF"/><stop offset="50%" stop-color="#A7C1F1" stop-opacity=".5"/><stop offset="100%" stop-color="#4F82E3" stop-opacity="0"/></linearGradient><linearGradient id="d" spreadMethod="pad" gradientUnits="userSpaceOnUse" x1="-.609" y1="-192.066" x2="3.508" y2="195.436"><stop offset="0%" stop-color="#FFF"/><stop offset="50%" stop-color="#A7C1F1" stop-opacity=".5"/><stop offset="100%" stop-color="#4F82E3" stop-opacity="0"/></linearGradient><linearGradient id="c" spreadMethod="pad" gradientUnits="userSpaceOnUse" x1="-.206" y1="-213.047" x2="-.972" y2="252.369"><stop offset="0%" stop-color="#FFF"/><stop offset="50%" stop-color="#A7C1F1" stop-opacity=".5"/><stop offset="100%" stop-color="#4F82E3" stop-opacity="0"/></linearGradient><linearGradient id="b" spreadMethod="pad" gradientUnits="userSpaceOnUse" x1="-979" y1="337" x2="1022.508" y2="330.558"><stop offset="0%" stop-color="#4F82E3" stop-opacity="0"/><stop offset="25%" stop-color="#4F82E3" stop-opacity=".5"/><stop offset="50%" stop-color="#4F82E3"/><stop offset="75%" stop-color="#4F82E3" stop-opacity=".5"/><stop offset="100%" stop-color="#4F82E3" stop-opacity="0"/></linearGradient><clipPath id="a"><path d="M0 0h1600v1600H0z"/></clipPath></defs><g clip-path="url(#a)"><path fill="url(#b)" d="M-637.312-354.485c-124 200.562-294.563 904.36-294.563 904.36h1863.75S926 286.708 883.062 121.208c-47.75-184.125-141.437-356-323.937-260.125-124.25 66.812-248.5 421.855-372.75 354.855s-248.5-439.172-372.75-617.36c-56.312-80.688-128.688-119.875-202.563-119.875-89.188 0-180.562 57.062-248.374 166.812z" transform="matrix(.8 0 0 .8 812.802 803.451)" style="display:block"/><path stroke-miterlimit="10" stroke="#FFF" stroke-width="1.6" d="M675.301 539.503h613.875m-542.649-61.735.107 609.1m70.4-609.1.106 609.1m72-609.1.107 609.1m68.871-609.1.107 609.1m62.33-609.1.106 609.1m72.142-609.1.107 609.1m68.764-609.1.107 609.1m67.2-609.1.106 609.1M675.301 611.609h613.875m-613.875 68.978h613.875m-613.875 62.579h613.875M675.301 815.13h613.875m-613.875 68.96h613.875m-613.875 72.16h613.875m-613.875 72.106h613.875" fill="none" style="display:block"/><g style="display:block"><path fill="#63AD8F" d="M975.166 656.621c14.123 29.142 33.615 54.812 59.373 74.722a212.735 212.735 0 0 0 87.78 40.135c31.968 6.483 64.98 5.536 96.423-2.771 31.445-8.307 60.696-23.654 84.991-45l-46.179-55.26c-15.915 14.278-35.888 25.08-56.63 30.735-20.744 5.658-42.565 6.431-63.724 2.264a139.935 139.935 0 0 1-58.146-26.267c-17.075-13.105-30.521-30.873-39.883-50.128l-64.004 31.57h-.001z"/><path fill="#111" d="M1257.553 668.446c24.68-22.774 40.318-53.86 43.973-87.404 3.656-33.542-4.926-67.233-24.127-94.724l65.493-30.813c26.053 42.154 35.993 91.13 28.91 140.457-7.082 49.324-31.2 94.587-68.07 127.743l-46.179-55.259z"/><path fill="#FFF" d="M1277.577 486.807a137.613 137.613 0 0 0-83.777-55.117c-33.86-7.178-70.8-2.344-100.493 15.378l-45.039-54.021a208.786 208.786 0 0 1 77.037-32.027c55.738-10.885 113.5 1.36 160.074 33.933a209.42 209.42 0 0 1 57.513 60.553l-65.315 31.302z"/><path fill="#4F82E3" d="M1048.269 393.046c-41.412 28.319-72.926 69.182-86.06 117.802-13.131 48.623-8.533 100.342 12.956 145.773l64.005-31.57c-14.586-31.042-16.764-66.483-6.83-99.384 9.935-32.898 31.668-60.92 60.966-78.599l-45.038-54.021.001-.001z"/></g><path fill="url(#c)" d="M47.829-232.761h-95.658v465.522h95.658v-465.522z" transform="matrix(.58667 0 0 .46384 597.85 1138.116)" style="display:block"/><path fill="url(#d)" d="M47.829-193.827h-95.658v387.654h95.658v-387.654z" transform="matrix(.58667 0 0 .47062 511.197 1154.863)" style="display:block"/><path fill="url(#e)" d="M47.829-300.508h-95.658v601.016h95.658v-601.016z" transform="matrix(.58667 0 0 .48306 429.464 1098.423)" style="display:block"/><path fill="url(#f)" d="M47.829-365.998h-95.658v731.996h95.658v-731.996z" transform="matrix(.58667 0 0 .50356 337.818 1061.77)" style="display:block"/><path fill="url(#g)" d="M47.829-300.508h-95.658v601.016h95.658v-601.016z" transform="matrix(.58667 0 0 .5136 249.928 1089.738)" style="display:block"/><path fill="url(#h)" d="M47.829-232.761h-95.658v465.522h95.658v-465.522z" transform="matrix(.58667 0 0 .52604 159.909 1123.632)" style="display:block"/><g style="display:block"><path fill="url(#i)" d="M-735.238-72.991H735.238V53.835c0 10.579-8.572 19.156-19.145 19.156H-716.09c-10.573 0-19.148-8.577-19.148-19.156V-72.991z" transform="translate(793.793 1081.032) scale(.53333)"/><path fill="#FFF" d="M401.282 590.195a7.15 7.15 0 0 1 7.147-7.153h769.954a7.149 7.149 0 0 1 7.146 7.153v451.91H401.282v-451.91z"/><path fill="#111" d="M422.047 603.262H1165.5v418.548H422.047V603.262z"/><path fill="url(#j)" d="M-174.166-108.453h348.332v216.906h-348.332v-216.906z" transform="translate(793.317 1177.738) scale(.53333)"/><path fill="url(#k)" d="M-174.166-7.37h348.332V7.37h-348.332V-7.37z" transform="translate(793.317 1238.948) scale(.53333)"/></g><path fill="url(#l)" d="m460.055-105.933-1005.446-.867c-38.113 0-69.01 30.855-69.01 68.92v75.76c0 38.065 30.897 68.92 69.01 68.92l1005.448.867c38.113 0 69.01-30.855 69.01-68.92v-75.761c-.001-38.065-30.9-68.92-69.012-68.92z" transform="translate(568.96 728.32) scale(.53333)" style="display:block"/><path fill="#4F82E3" d="M-12.465-71.456c-31.62 0-57.191 25.612-57.191 57.279 0 31.667 25.571 57.279 57.191 57.279 11.288 0 21.733-3.316 30.59-8.949l34.174 34.229a10.092 10.092 0 0 0 14.288.218c4.006-3.892 4.103-10.301.218-14.314a8.307 8.307 0 0 0-.23-.23l-33.628-33.59c7.334-9.635 11.776-21.574 11.776-34.643 0-31.667-25.57-57.279-57.188-57.279zm0 13.477c24.218 0 43.731 19.546 43.731 43.802 0 24.257-19.514 43.804-43.731 43.804-24.22 0-43.736-19.547-43.736-43.804.001-24.256 19.516-43.802 43.736-43.802z" transform="rotate(.034 -1302206.168 580301.528) scale(.53333)" style="display:block"/><path fill="#4F82E3" d="m543.864 40.355 67.185-405.668L225.891-220.62l108.785 89.283L20.206 217.2-167.991 46.274l.268-.294-97.189-88.309L-666 401.377l174.875.022 234.761-258.002L25.135 399.059l1.814-1.993 1.34 1.282L436.494-47.774l107.373 88.127-.002.002z" transform="translate(1159.658 1049.51) scale(.48333)" style="display:block"/><path fill="#FFF" d="M-69.085-48.053c-.675-8.387-3.84-14.926-9.494-19.625-5.567-4.695-14.05-7.043-25.443-7.043-7.257 0-13.206.88-17.848 2.641-4.559 1.675-7.932 3.984-10.126 6.919-2.194 2.933-3.334 6.289-3.421 10.062-.167 3.103.38 5.912 1.647 8.43 1.35 2.431 3.46 4.651 6.329 6.664 2.869 1.929 6.539 3.692 11.015 5.284 4.472 1.596 9.789 3.02 15.948 4.277l21.267 4.531c14.348 3.02 26.625 7.002 36.836 11.95C-32.162-9.018-23.81-3.188-17.311 3.523c6.499 6.624 11.265 14.087 14.305 22.39 3.122 8.302 4.726 17.358 4.809 27.17-.083 16.943-4.346 31.282-12.785 43.022-8.439 11.74-20.506 20.672-36.203 26.795-15.61 6.123-34.391 9.182-56.33 9.182-22.534 0-42.194-3.311-58.991-9.938-16.709-6.624-29.705-16.813-38.99-30.566-9.198-13.837-13.84-31.533-13.923-53.084h66.84c.421 7.882 2.404 14.506 5.948 19.873 3.544 5.371 8.523 9.436 14.936 12.205 6.499 2.766 14.222 4.15 23.165 4.15 7.511 0 13.8-.922 18.864-2.768 5.064-1.842 8.904-4.4 11.519-7.671 2.615-3.273 3.968-7.006 4.051-11.199-.083-3.94-1.392-7.376-3.924-10.312-2.449-3.02-6.499-5.704-12.153-8.052-5.654-2.431-13.29-4.695-22.911-6.791l-25.823-5.538c-22.954-4.945-41.056-13.209-54.306-24.781-13.165-11.657-19.705-27.546-19.622-47.673-.083-16.355 4.305-30.653 13.165-42.895 8.944-12.329 21.308-21.93 37.089-28.808 15.867-6.875 34.052-10.316 54.559-10.316 20.931 0 39.033 3.481 54.306 10.443 15.277 6.958 27.05 16.773 35.319 29.433 8.353 12.58 12.575 27.298 12.658 44.155h-67.344l-.002-.002z" transform="translate(837.45 890.796) scale(.53333)" style="display:block"/><path fill="#FFF" d="M28.579 129.062v-257.621h186.84v56.354H98.959v44.279H205.8v56.354H98.959v44.279h115.955v56.354H28.579v.001z" transform="translate(837.45 890.795) scale(.53333)" style="display:block"/><path fill="#FFF" d="M0-55c30.354 0 55 24.646 55 55S30.354 55 0 55-55 30.354-55 0s24.646-55 55-55z" transform="translate(1046.4 890.666) scale(.37536)" style="display:block"/><path stroke-miterlimit="10" stroke="#FFF" stroke-width="25" d="M135.28 0c0 74.713-60.567 135.28-135.28 135.28S-135.28 74.713-135.28 0-74.713-135.28 0-135.28 135.28-74.713 135.28 0z" fill="none" transform="translate(1046.517 890.549) scale(.53333)" style="display:block"/><path stroke-miterlimit="10" stroke="#FFF" stroke-width="25" d="M86.28 0c0 47.651-38.629 86.28-86.28 86.28S-86.28 47.651-86.28 0-47.651-86.28 0-86.28 86.28-47.651 86.28 0z" fill="none" transform="translate(1046.517 890.549) scale(.53333)" style="display:block"/><path fill="#4F82E3" d="m3.798-32.76-7.617.002.007 22.04-15.95-15.94-5.386 5.389L-7.675-3.807-32.76-3.8l.002 7.619 23.564-.008-16.658 16.668 5.389 5.386L-3.806 9.197-3.8 32.76l7.619-.002-.007-25.087 17.383 17.374 5.385-5.389-15.859-15.85 22.039-.008-.002-7.617-23.563.008L25.85-20.479l-5.388-5.384L3.806-9.197 3.798-32.76z" transform="rotate(.166 -248892.006 148743.815)" style="display:block"/><path fill="#4F82E3" d="m3.8-32.759-7.619.002.006 22.038-15.949-15.939-5.386 5.388L-7.673-3.808l-25.087.009.002 7.619 23.564-.008-16.656 16.666 5.388 5.386L-3.806 9.198l.008 23.561 7.617-.002-.007-25.085 17.384 17.372 5.384-5.387L10.72 3.806l22.04-.007-.002-7.619-23.562.008 16.656-16.666-5.389-5.386L3.806-9.197 3.8-32.759z" transform="rotate(.166 -248936.449 186904.872)" style="display:block"/><path fill="#4F82E3" d="m3.8-32.759-7.619.002.006 22.038-15.948-15.94-5.385 5.389L-7.673-3.808l-25.087.009.002 7.619 23.563-.008-16.655 16.666 5.388 5.386L-3.806 9.198l.008 23.561 7.618-.002-.008-25.085 17.384 17.372 5.386-5.387L10.72 3.806l22.04-.007-.002-7.619-23.562.008 16.656-16.666-5.389-5.386L3.807-9.198 3.8-32.759z" transform="rotate(.166 -248980.934 225065.583)" style="display:block"/></g></svg>