<?xml version="1.0" encoding="utf-8"?>

<!-- Uploaded to: SVG Repo, www.svgrepo.com, Generator: SVG Repo Mixer Tools -->
<svg version="1.1" id="Icons" xmlns="http://www.w3.org/2000/svg" xmlns:xlink="http://www.w3.org/1999/xlink" 
	 viewBox="0 0 32 32" xml:space="preserve">
<style type="text/css">
	.st0{fill:none;stroke:#000000;stroke-width:2;stroke-linecap:round;stroke-linejoin:round;stroke-miterlimit:10;}
</style>
<line class="st0" x1="23" y1="24" x2="23" y2="29"/>
<path class="st0" d="M10,21V10c0-1.7-1.3-3-3-3H1v11h6C8.7,18,10,19.3,10,21L10,21"/>
<path class="st0" d="M10,21V10c0-1.7,1.3-3,3-3h6v11h-6C11.3,18,10,19.3,10,21L10,21"/>
<path class="st0" d="M12.2,18.1c0.3,0.3,0.5,0.6,0.8,0.9v8"/>
<path class="st0" d="M22,24h4c1.1,0,2-0.9,2-2v-4h3l-3-6c0-5-4-9-9-9c-3.4,0-6.4,1.9-7.9,4.7"/>
</svg>