<?xml version="1.0" encoding="utf-8"?>
<!-- Uploaded to: SVG Repo, www.svgrepo.com, Generator: SVG Repo Mixer Tools -->
<svg width="800px" height="800px" viewBox="0 0 1024 1024" fill="#000000" class="icon"  version="1.1" xmlns="http://www.w3.org/2000/svg"><path d="M744.262 888.95H8.076a7.994 7.994 0 0 1-7.998-8v-87.316c0-56.29 29.058-77.834 82.676-97.892 30.902-11.532 88.676-37.356 121.218-61.21a7.978 7.978 0 0 1 11.186 1.718 8.014 8.014 0 0 1-1.718 11.186c-33.854 24.808-93.362 51.446-125.092 63.288-48.962 18.326-72.272 35.402-72.272 82.912v79.318h720.188v-95.316c0-4.422 3.576-7.998 7.998-7.998s8 3.576 8 7.998v103.314a7.994 7.994 0 0 1-8 7.998zM344.034 659.542c-0.796 0-1.61-0.124-2.422-0.376-82.49-26.214-197.552-147.496-197.552-285.462 0-4.422 3.578-8 8-8a7.994 7.994 0 0 1 7.998 8c0 130.716 108.564 245.484 186.398 270.214a7.98 7.98 0 0 1 5.202 10.044 8 8 0 0 1-7.624 5.58zM152.074 360.674a8.012 8.012 0 0 1-7.968-7.25c-8.764-93.582 13.936-166.798 67.508-217.62 111.938-106.228 316.912-77.522 325.55-76.24a8 8 0 1 1 1.892 15.312c-14.56 5.99-24.542 15.318-29.7 27.722-8 19.334-2.844 41.542 0.234 51.414 11.904 0.21 38.042 2.282 61.304 21.466 24.512 20.224 38.51 52.852 41.604 96.996a8 8 0 0 1-7.42 8.53 7.948 7.948 0 0 1-8.546-7.422c-2.766-39.588-14.81-68.444-35.824-85.762-25.45-21.004-55.414-17.624-55.726-17.592-3.67 0.532-6.966-1.562-8.358-4.858-0.624-1.508-15.186-37.2-2.046-68.898 3.782-9.124 9.436-16.944 16.874-23.41-56.868-4.242-204.022-6.18-288.87 74.38-44.088 41.854-65.632 100.596-64.242 174.89l34.558-68.888c1.782-3.54 5.952-5.266 9.638-4.016 0.922 0.296 93.238 30.176 172.744 30.176 79.552 0 173.336-29.886 174.274-30.192a8.002 8.002 0 0 1 9.608 4.032l8.016 15.966a8.016 8.016 0 0 1-3.562 10.732c-3.938 1.938-8.764 0.406-10.748-3.562l-4.968-9.912c-23.09 6.936-101.94 28.934-172.618 28.934-70.538 0-148.2-21.928-171.134-28.91l-44.92 89.568a8.006 8.006 0 0 1-7.154 4.414zM216.05 616.984c-4.42 0-8-3.578-8-8v-15.998c0-4.42 3.578-7.998 8-7.998s8 3.578 8 7.998v15.998a7.998 7.998 0 0 1-8 8z" fill="" /><path d="M344.034 728.968a7.96 7.96 0 0 1-5.266-1.982L210.786 615a7.976 7.976 0 0 1-0.75-11.28c2.906-3.36 7.966-3.656 11.28-0.766l127.984 111.984a7.998 7.998 0 0 1 0.75 11.296 7.956 7.956 0 0 1-6.016 2.734z" fill="" /><path d="M344.034 728.968a7.99 7.99 0 0 1-5.782-2.466 8.016 8.016 0 0 1 0.25-11.312l15.998-15.326a7.974 7.974 0 0 1 11.312 0.25 7.992 7.992 0 0 1-0.25 11.294l-15.998 15.328a7.912 7.912 0 0 1-5.53 2.232zM376.514 840.956c-4.422 0-8.078-3.578-8.078-8 0-4.42 3.5-7.998 7.906-7.998h0.172a8.004 8.004 0 0 1 7.998 7.998c0 4.42-3.594 8-7.998 8zM376.514 792.96c-4.422 0-8.078-3.578-8.078-7.998 0-4.422 3.5-8 7.906-8h0.172a8.004 8.004 0 0 1 7.998 8 8.004 8.004 0 0 1-7.998 7.998z" fill="" /><path d="M600.016 792.96c-66.226 0-128.5-25.792-175.352-72.616-46.836-46.838-72.616-109.112-72.616-175.336 0-66.234 25.78-128.508 72.616-175.338 46.854-46.846 109.11-72.646 175.352-72.646 66.226 0 128.482 25.8 175.336 72.646 46.838 46.83 72.618 109.104 72.632 175.338-0.016 66.224-25.794 128.498-72.632 175.336-46.854 46.824-109.11 72.616-175.336 72.616z m0-479.936c-61.96 0-120.218 24.136-164.042 67.958-43.806 43.806-67.93 102.066-67.93 164.028s24.124 120.218 67.93 164.026c43.822 43.806 102.08 67.928 164.042 67.928 61.946 0 120.204-24.122 164.026-67.928 43.806-43.806 67.944-102.064 67.944-164.026s-24.136-120.22-67.944-164.028c-43.824-43.822-102.082-67.958-164.026-67.958z" fill="" /><path d="M600.016 760.964c-57.68 0-111.924-22.45-152.73-63.24-84.208-84.208-84.208-221.222 0-305.43 40.792-40.786 95.036-63.25 152.714-63.25 57.696 0 111.938 22.464 152.73 63.25 84.208 84.208 84.208 221.22 0 305.43-40.792 40.776-95.02 63.24-152.714 63.24zM600 345.042c-53.414 0-103.626 20.8-141.404 58.562-77.974 77.974-77.974 204.832 0 282.806 37.778 37.762 88.006 58.554 141.42 58.554s103.642-20.792 141.402-58.554c77.974-77.974 77.974-204.832 0-282.806-37.776-37.76-87.988-58.562-141.418-58.562zM809.286 784.9a7.976 7.976 0 0 1-5.656-2.344l-34.744-34.746a7.996 7.996 0 1 1 11.31-11.31l34.746 34.744a8 8 0 0 1-5.656 13.656zM831.906 762.278a7.976 7.976 0 0 1-5.654-2.344l-34.746-34.744a8 8 0 0 1 11.31-11.312l34.746 34.746a7.996 7.996 0 0 1-5.656 13.654z" fill="" /><path d="M797.974 796.21a7.996 7.996 0 0 1-5.656-13.654l45.244-45.244a8 8 0 0 1 11.312 11.31l-45.246 45.244a7.964 7.964 0 0 1-5.654 2.344z" fill="" /><path d="M961.328 959.564a7.976 7.976 0 0 1-5.656-2.344l-163.354-163.354a7.996 7.996 0 1 1 11.31-11.31l163.356 163.354a7.996 7.996 0 0 1-5.656 13.654zM1006.572 914.32a7.976 7.976 0 0 1-5.656-2.344l-163.354-163.354a8 8 0 0 1 11.312-11.31l163.352 163.354a7.996 7.996 0 0 1-5.654 13.654z" fill="" /><path d="M983.934 968.908a39.874 39.874 0 0 1-28.262-11.688 8 8 0 0 1 11.312-11.31c9.358 9.358 24.574 9.326 33.932-0.016a7.994 7.994 0 0 1 11.31 0.016 7.996 7.996 0 0 1 0 11.31 39.96 39.96 0 0 1-28.292 11.688z" fill="" /><path d="M1006.572 959.564a7.996 7.996 0 0 1-5.656-13.654c9.36-9.358 9.36-24.576 0-33.934a7.996 7.996 0 1 1 11.31-11.31c15.594 15.592 15.594 40.962 0 56.554a7.956 7.956 0 0 1-5.654 2.344z" fill="" /><path d="M440.02 553.008c-4.42 0-8-3.578-8-7.998 0-92.628 75.366-167.994 167.994-167.994 4.422 0 7.998 3.576 7.998 7.998s-3.576 8-7.998 8c-83.816 0-151.996 68.186-151.996 151.996a7.992 7.992 0 0 1-7.998 7.998z" fill="" /></svg>