<?xml version="1.0" ?><!-- Uploaded to: SVG Repo, www.svgrepo.com, Generator: SVG Repo Mixer Tools -->
<svg fill="#000000" width="800px" height="800px" viewBox="0 0 512 512" data-name="Layer 1" id="Layer_1" xmlns="http://www.w3.org/2000/svg"><path d="M460.38,233.18,387.84,171.9l0-85.78a4.53,4.53,0,0,0-4.54-4.53H328.27a4.53,4.53,0,0,0-4.53,4.53v31.63L259,63a4.55,4.55,0,0,0-5.85,0L51.62,233.12a4.54,4.54,0,0,0,2.92,8H96.79l0,204.37a4.54,4.54,0,0,0,9.07,0l0-208.9a4.53,4.53,0,0,0-4.53-4.53H66.94L256,72.41,325.34,131a4.53,4.53,0,0,0,7.46-3.46V90.65h46V174a4.52,4.52,0,0,0,1.61,3.46l64.67,54.64H410.68a4.53,4.53,0,0,0-4.54,4.53v45.82a4.53,4.53,0,0,0,9.06,0V241.16h42.24a4.53,4.53,0,0,0,2.93-8Z"/><path d="M213.32,364.88c-20.95,0-36.76,8.87-36.76,20.64s15.8,20.64,36.76,20.65,36.75-8.87,36.75-20.64S234.28,364.88,213.32,364.88Zm0,32.22c-17.16,0-27.69-6.75-27.69-11.58s10.53-11.58,27.69-11.58S241,380.69,241,385.52,230.47,397.1,213.32,397.1Z"/><path d="M351.49,308.77a42.65,42.65,0,1,0-47.61,0,55.75,55.75,0,0,0-22.94,12.15,15.39,15.39,0,0,0-5.15-.89l-124.93,0a15.71,15.71,0,0,0-15.68,15.69l0,109.8a4.53,4.53,0,0,0,4.53,4.54l140,0h81.9a32,32,0,0,0,32-32V363.24A56.36,56.36,0,0,0,351.49,308.77ZM282.39,441l-138.16,0V335.69a6.63,6.63,0,0,1,6.62-6.62l124.93,0a6.61,6.61,0,0,1,2.18.37,3.07,3.07,0,0,0,.28.35,4.51,4.51,0,0,0,2.21,1.22,6.58,6.58,0,0,1,2,4.68Zm11.72-167.59A33.59,33.59,0,1,1,327.69,307,33.62,33.62,0,0,1,294.11,273.39Zm90.44,144.68A23,23,0,0,1,361.62,441H323.15a11.62,11.62,0,0,1,0-23.23h32.72a4.53,4.53,0,0,0,4.53-4.53v-49.5a4.53,4.53,0,1,0-9.06,0v45H323.15a20.61,20.61,0,0,0-20.52,20.84,20.38,20.38,0,0,0,3.5,11.45H291.46V335.71a15.54,15.54,0,0,0-3.05-9.25A46.81,46.81,0,0,1,318,316h19.39a47.23,47.23,0,0,1,47.18,47.19Z"/></svg>