<svg fill="white" xmlns="http://www.w3.org/2000/svg" xmlns:xlink="http://www.w3.org/1999/xlink" viewBox="0 0 24 30" version="1.1" x="0px" y="0px"><title>exit</title><desc>Created with Sketch.</desc><g stroke="none" strokeWidth="1" fill="white" fill-rule="evenodd"><g  fill-rule="nonzero"><path d="M17,5 L7,5 L7,19 L17,19 L17,18 C17,17.4477153 17.4477153,17 18,17 C18.5522847,17 19,17.4477153 19,18 L19,19.2 C19,20.1941126 18.1941126,21 17.2,21 L6.79999995,21 C5.80588743,21 5,20.1941126 5,19.2 L5,4.79999995 C5,3.80588743 5.80588743,3 6.79999995,3 L17.2,3 C18.1941126,3 19,3.80588743 19,4.79999995 L19,6 C19,6.55228475 18.5522847,7 18,7 C17.4477153,7 17,6.55228475 17,6 L17,5 Z M16.4434938,13.021582 L9.9977149,12.9999974 C9.4454316,12.9987354 8.99874059,12.5499982 9.00000261,11.9977149 C9.00126463,11.4454316 9.45000179,10.9987406 10.0022851,11.0000026 L16.4650758,11.0216261 L16.4650758,11 L15.2075379,9.74246212 C14.7974874,9.33241161 14.7974874,8.66758839 15.2075379,8.25753788 C15.6175884,7.84748737 16.2824116,7.84748737 16.6924621,8.25753788 L19.6924621,11.2575379 C20.1025126,11.6675884 20.1025126,12.3324116 19.6924621,12.7424621 L16.6924621,15.7424621 C16.2824116,16.1525126 15.6175884,16.1525126 15.2075379,15.7424621 C14.7974874,15.3324116 14.7974874,14.6675884 15.2075379,14.2575379 L16.4434938,13.021582 Z"/></g></g></svg>