<svg fill="white" xmlns="http://www.w3.org/2000/svg" xmlns:xlink="http://www.w3.org/1999/xlink" version="1.1" x="0px" y="0px" viewBox="0 0 100 125" style="enable-background:new 0 0 100 100;" xml:space="preserve"><style type="text/css">
	.st0{fill-rule:evenodd;clip-rule:evenodd;}
</style><path class="st0" d="M89.409,20.226c0,12.413-15.369,18.369-23.729,9.139L37.177,45.822c0.872,2.708,0.872,5.658,0,8.366  L65.68,70.644c5.223-5.773,14.224-6.01,19.739-0.495c8.561,8.561,2.466,23.259-9.634,23.259c-9.263,0-15.791-9.054-12.97-17.807  L34.311,59.144c-8.344,9.223-23.729,3.285-23.729-9.139s15.385-18.363,23.729-9.139l28.503-16.456  c-1.587-4.923-0.236-10.245,3.336-13.817C74.71,2.032,89.409,8.126,89.409,20.226z"/></svg>